solid OpenSCAD_Model
  facet normal 0 -4.44089e-016 -1
    outer loop
      vertex -20 -48 -5
      vertex -19.563 -43.8418 -5
      vertex -19.563 -52.1582 -5
    endloop
  endfacet
  facet normal 0 -4.44089e-016 -1
    outer loop
      vertex -19.563 -52.1582 -5
      vertex -19.563 -43.8418 -5
      vertex -18.2709 -39.8653 -5
    endloop
  endfacet
  facet normal 0 -4.44089e-016 -1
    outer loop
      vertex -19.563 -52.1582 -5
      vertex -18.2709 -39.8653 -5
      vertex -16.1803 -36.2443 -5
    endloop
  endfacet
  facet normal 0 -4.44089e-016 -1
    outer loop
      vertex -19.563 -52.1582 -5
      vertex -16.1803 -36.2443 -5
      vertex -13.3826 -33.1371 -5
    endloop
  endfacet
  facet normal 0 -4.44089e-016 -1
    outer loop
      vertex -19.563 -52.1582 -5
      vertex -13.3826 -33.1371 -5
      vertex -10 -30.6795 -5
    endloop
  endfacet
  facet normal 0 -4.44089e-016 -1
    outer loop
      vertex -19.563 -52.1582 -5
      vertex -10 -30.6795 -5
      vertex -6.18034 -28.9789 -5
    endloop
  endfacet
  facet normal 0 -4.44089e-016 -1
    outer loop
      vertex -9.36783 -37.596 -5
      vertex -6.18034 -28.9789 -5
      vertex -2.09057 -28.1096 -5
    endloop
  endfacet
  facet normal 0 -4.44089e-016 -1
    outer loop
      vertex -4.32624 -34.6852 -5
      vertex -2.09057 -28.1096 -5
      vertex 2.09057 -28.1096 -5
    endloop
  endfacet
  facet normal 0 -4.44089e-016 -1
    outer loop
      vertex -1.4634 -34.0767 -5
      vertex 2.09057 -28.1096 -5
      vertex 6.18034 -28.9789 -5
    endloop
  endfacet
  facet normal 0 -4.44089e-016 -1
    outer loop
      vertex 4.32624 -34.6852 -5
      vertex 6.18034 -28.9789 -5
      vertex 10 -30.6795 -5
    endloop
  endfacet
  facet normal 0 -4.44089e-016 -1
    outer loop
      vertex 7 -35.8756 -5
      vertex 10 -30.6795 -5
      vertex 13.3826 -33.1371 -5
    endloop
  endfacet
  facet normal 0 -4.44089e-016 -1
    outer loop
      vertex 9.36783 -37.596 -5
      vertex 13.3826 -33.1371 -5
      vertex 16.1803 -36.2443 -5
    endloop
  endfacet
  facet normal 0 -4.44089e-016 -1
    outer loop
      vertex 11.3262 -39.771 -5
      vertex 16.1803 -36.2443 -5
      vertex 18.2709 -39.8653 -5
    endloop
  endfacet
  facet normal 0 -4.44089e-016 -1
    outer loop
      vertex 13.6941 -45.0892 -5
      vertex 18.2709 -39.8653 -5
      vertex 19.563 -43.8418 -5
    endloop
  endfacet
  facet normal 0 -4.44089e-016 -1
    outer loop
      vertex 14 -48 -5
      vertex 19.563 -43.8418 -5
      vertex 20 -48 -5
    endloop
  endfacet
  facet normal 0 -4.44089e-016 -1
    outer loop
      vertex 13.6941 -50.9108 -5
      vertex 20 -48 -5
      vertex 19.563 -52.1582 -5
    endloop
  endfacet
  facet normal 0 -4.44089e-016 -1
    outer loop
      vertex 12.7896 -53.6943 -5
      vertex 19.563 -52.1582 -5
      vertex 18.2709 -56.1347 -5
    endloop
  endfacet
  facet normal 0 -4.44089e-016 -1
    outer loop
      vertex 11.3262 -56.229 -5
      vertex 18.2709 -56.1347 -5
      vertex 16.1803 -59.7557 -5
    endloop
  endfacet
  facet normal 0 -4.44089e-016 -1
    outer loop
      vertex 7 -60.1244 -5
      vertex 16.1803 -59.7557 -5
      vertex 13.3826 -62.8629 -5
    endloop
  endfacet
  facet normal 0 -4.44089e-016 -1
    outer loop
      vertex 3.5 -61.4904 -5
      vertex 13.3826 -62.8629 -5
      vertex 10 -65.3205 -5
    endloop
  endfacet
  facet normal 0 -4.44089e-016 -1
    outer loop
      vertex 9 -65.5 -5
      vertex 10 -65.3205 -5
      vertex 9 -65.7657 -5
    endloop
  endfacet
  facet normal 0 -4.44089e-016 -1
    outer loop
      vertex -9.36783 -58.404 -5
      vertex -19.563 -52.1582 -5
      vertex -11.3262 -56.229 -5
    endloop
  endfacet
  facet normal 0 -4.44089e-016 -1
    outer loop
      vertex 3.5 -61.4904 -5
      vertex 10 -65.3205 -5
      vertex 9 -65.5 -5
    endloop
  endfacet
  facet normal 0 -4.44089e-016 -1
    outer loop
      vertex 4.32624 -61.3148 -5
      vertex 13.3826 -62.8629 -5
      vertex 3.5 -61.4904 -5
    endloop
  endfacet
  facet normal 0 -4.44089e-016 -1
    outer loop
      vertex 7 -60.1244 -5
      vertex 13.3826 -62.8629 -5
      vertex 4.32624 -61.3148 -5
    endloop
  endfacet
  facet normal 0 -4.44089e-016 -1
    outer loop
      vertex 9.36783 -58.404 -5
      vertex 16.1803 -59.7557 -5
      vertex 7 -60.1244 -5
    endloop
  endfacet
  facet normal 0 -4.44089e-016 -1
    outer loop
      vertex 11.3262 -56.229 -5
      vertex 16.1803 -59.7557 -5
      vertex 9.36783 -58.404 -5
    endloop
  endfacet
  facet normal 0 -4.44089e-016 -1
    outer loop
      vertex 12.7896 -53.6943 -5
      vertex 18.2709 -56.1347 -5
      vertex 11.3262 -56.229 -5
    endloop
  endfacet
  facet normal 0 -4.44089e-016 -1
    outer loop
      vertex 13.6941 -50.9108 -5
      vertex 19.563 -52.1582 -5
      vertex 12.7896 -53.6943 -5
    endloop
  endfacet
  facet normal 0 -4.44089e-016 -1
    outer loop
      vertex -12.7896 -53.6943 -5
      vertex -19.563 -52.1582 -5
      vertex -13.6941 -50.9108 -5
    endloop
  endfacet
  facet normal 0 -4.44089e-016 -1
    outer loop
      vertex 14 -48 -5
      vertex 20 -48 -5
      vertex 13.6941 -50.9108 -5
    endloop
  endfacet
  facet normal 0 -4.44089e-016 -1
    outer loop
      vertex 13.6941 -45.0892 -5
      vertex 19.563 -43.8418 -5
      vertex 14 -48 -5
    endloop
  endfacet
  facet normal 0 -4.44089e-016 -1
    outer loop
      vertex 12.7896 -42.3057 -5
      vertex 18.2709 -39.8653 -5
      vertex 13.6941 -45.0892 -5
    endloop
  endfacet
  facet normal 0 -4.44089e-016 -1
    outer loop
      vertex 11.3262 -39.771 -5
      vertex 18.2709 -39.8653 -5
      vertex 12.7896 -42.3057 -5
    endloop
  endfacet
  facet normal 0 -4.44089e-016 -1
    outer loop
      vertex 9.36783 -37.596 -5
      vertex 16.1803 -36.2443 -5
      vertex 11.3262 -39.771 -5
    endloop
  endfacet
  facet normal 0 -4.44089e-016 -1
    outer loop
      vertex 7 -35.8756 -5
      vertex 13.3826 -33.1371 -5
      vertex 9.36783 -37.596 -5
    endloop
  endfacet
  facet normal 0 -4.44089e-016 -1
    outer loop
      vertex 4.32624 -34.6852 -5
      vertex 10 -30.6795 -5
      vertex 7 -35.8756 -5
    endloop
  endfacet
  facet normal 0 -4.44089e-016 -1
    outer loop
      vertex 1.4634 -34.0767 -5
      vertex 6.18034 -28.9789 -5
      vertex 4.32624 -34.6852 -5
    endloop
  endfacet
  facet normal 0 -4.44089e-016 -1
    outer loop
      vertex -1.4634 -34.0767 -5
      vertex 6.18034 -28.9789 -5
      vertex 1.4634 -34.0767 -5
    endloop
  endfacet
  facet normal 0 -4.44089e-016 -1
    outer loop
      vertex -4.32624 -34.6852 -5
      vertex 2.09057 -28.1096 -5
      vertex -1.4634 -34.0767 -5
    endloop
  endfacet
  facet normal 0 -4.44089e-016 -1
    outer loop
      vertex -7 -35.8756 -5
      vertex -2.09057 -28.1096 -5
      vertex -4.32624 -34.6852 -5
    endloop
  endfacet
  facet normal 0 -4.44089e-016 -1
    outer loop
      vertex -9.36783 -37.596 -5
      vertex -2.09057 -28.1096 -5
      vertex -7 -35.8756 -5
    endloop
  endfacet
  facet normal 0 -4.44089e-016 -1
    outer loop
      vertex -11.3262 -39.771 -5
      vertex -6.18034 -28.9789 -5
      vertex -9.36783 -37.596 -5
    endloop
  endfacet
  facet normal 0 -4.44089e-016 -1
    outer loop
      vertex -13.6941 -45.0892 -5
      vertex -19.563 -52.1582 -5
      vertex -12.7896 -42.3057 -5
    endloop
  endfacet
  facet normal 0 -4.44089e-016 -1
    outer loop
      vertex -19.563 -52.1582 -5
      vertex -6.18034 -28.9789 -5
      vertex -11.3262 -39.771 -5
    endloop
  endfacet
  facet normal 0 -4.44089e-016 -1
    outer loop
      vertex -19.563 -52.1582 -5
      vertex -11.3262 -39.771 -5
      vertex -12.7896 -42.3057 -5
    endloop
  endfacet
  facet normal 0 -4.44089e-016 -1
    outer loop
      vertex -14 -48 -5
      vertex -19.563 -52.1582 -5
      vertex -13.6941 -45.0892 -5
    endloop
  endfacet
  facet normal 0 -4.44089e-016 -1
    outer loop
      vertex -13.6941 -50.9108 -5
      vertex -19.563 -52.1582 -5
      vertex -14 -48 -5
    endloop
  endfacet
  facet normal 0 -4.44089e-016 -1
    outer loop
      vertex -11.3262 -56.229 -5
      vertex -19.563 -52.1582 -5
      vertex -12.7896 -53.6943 -5
    endloop
  endfacet
  facet normal 0 -4.44089e-016 -1
    outer loop
      vertex 3.5 -61.4904 -5
      vertex 9 -65.5 -5
      vertex 3.5 -65.5 -5
    endloop
  endfacet
  facet normal 0 -4.44089e-016 -1
    outer loop
      vertex -3.5 -65.5 -5
      vertex -7 -60.1244 -5
      vertex -4.32624 -61.3148 -5
    endloop
  endfacet
  facet normal 0 -4.44089e-016 -1
    outer loop
      vertex -19.563 -52.1582 -5
      vertex -9.36783 -58.404 -5
      vertex -7 -60.1244 -5
    endloop
  endfacet
  facet normal 0 -4.44089e-016 -1
    outer loop
      vertex -3.5 -65.5 -5
      vertex -4.32624 -61.3148 -5
      vertex -3.5 -61.4904 -5
    endloop
  endfacet
  facet normal 0 -4.44089e-016 -1
    outer loop
      vertex -7 -60.1244 -5
      vertex -3.5 -65.5 -5
      vertex -19.563 -52.1582 -5
    endloop
  endfacet
  facet normal 0 -4.44089e-016 -1
    outer loop
      vertex -3.5 -65.5 -5
      vertex -9 -65.5 -5
      vertex -19.563 -52.1582 -5
    endloop
  endfacet
  facet normal 0 -4.44089e-016 -1
    outer loop
      vertex -9 -65.5 -5
      vertex -9 -65.7657 -5
      vertex -19.563 -52.1582 -5
    endloop
  endfacet
  facet normal 0 -4.44089e-016 -1
    outer loop
      vertex -19.563 -52.1582 -5
      vertex -9 -65.7657 -5
      vertex -10 -65.3205 -5
    endloop
  endfacet
  facet normal 0 -4.44089e-016 -1
    outer loop
      vertex -19.563 -52.1582 -5
      vertex -10 -65.3205 -5
      vertex -13.3826 -62.8629 -5
    endloop
  endfacet
  facet normal 0 -4.44089e-016 -1
    outer loop
      vertex -19.563 -52.1582 -5
      vertex -13.3826 -62.8629 -5
      vertex -16.1803 -59.7557 -5
    endloop
  endfacet
  facet normal 0 -4.44089e-016 -1
    outer loop
      vertex -19.563 -52.1582 -5
      vertex -16.1803 -59.7557 -5
      vertex -18.2709 -56.1347 -5
    endloop
  endfacet
  facet normal -0.994522 0.104528 -4.642e-017
    outer loop
      vertex -20 -48 -5
      vertex -20 -48 10
      vertex -19.563 -43.8418 -5
    endloop
  endfacet
  facet normal -0.994522 0.104528 -4.642e-017
    outer loop
      vertex -19.563 -43.8418 -5
      vertex -20 -48 10
      vertex -19.563 -43.8418 10
    endloop
  endfacet
  facet normal -0.994522 -0.104528 4.642e-017
    outer loop
      vertex -20 -48 -5
      vertex -19.563 -52.1582 -5
      vertex -20 -48 10
    endloop
  endfacet
  facet normal -0.994522 -0.104528 4.642e-017
    outer loop
      vertex -20 -48 10
      vertex -19.563 -52.1582 -5
      vertex -19.563 -52.1582 10
    endloop
  endfacet
  facet normal -0.951057 -0.309017 1.37231e-016
    outer loop
      vertex -19.563 -52.1582 -5
      vertex -18.2709 -56.1347 -5
      vertex -19.563 -52.1582 10
    endloop
  endfacet
  facet normal -0.951057 -0.309017 1.37231e-016
    outer loop
      vertex -19.563 -52.1582 10
      vertex -18.2709 -56.1347 -5
      vertex -18.2709 -56.1347 10
    endloop
  endfacet
  facet normal -0.866025 -0.5 2.22045e-016
    outer loop
      vertex -18.2709 -56.1347 -5
      vertex -16.1803 -59.7557 -5
      vertex -18.2709 -56.1347 10
    endloop
  endfacet
  facet normal -0.866025 -0.5 2.22045e-016
    outer loop
      vertex -18.2709 -56.1347 10
      vertex -16.1803 -59.7557 -5
      vertex -16.1803 -59.7557 10
    endloop
  endfacet
  facet normal -0.743145 -0.669131 2.97154e-016
    outer loop
      vertex -16.1803 -59.7557 -5
      vertex -13.3826 -62.8629 -5
      vertex -16.1803 -59.7557 10
    endloop
  endfacet
  facet normal -0.743145 -0.669131 2.97154e-016
    outer loop
      vertex -16.1803 -59.7557 10
      vertex -13.3826 -62.8629 -5
      vertex -13.3826 -62.8629 10
    endloop
  endfacet
  facet normal -0.587785 -0.809017 3.59276e-016
    outer loop
      vertex -13.3826 -62.8629 10
      vertex -13.3826 -62.8629 -5
      vertex -10 -65.3205 -5
    endloop
  endfacet
  facet normal -0.587785 -0.809017 3.59276e-016
    outer loop
      vertex -10 -65.3205 10
      vertex -13.3826 -62.8629 10
      vertex -10 -65.3205 -5
    endloop
  endfacet
  facet normal -0.406737 -0.913545 4.05696e-016
    outer loop
      vertex -10 -65.3205 10
      vertex -10 -65.3205 -5
      vertex -9 -65.7657 -5
    endloop
  endfacet
  facet normal -0.406737 -0.913545 4.05696e-016
    outer loop
      vertex -6.18034 -67.0211 10
      vertex -10 -65.3205 10
      vertex -9 -65.7657 10
    endloop
  endfacet
  facet normal -0.406737 -0.913545 4.05696e-016
    outer loop
      vertex -9 -65.7657 10
      vertex -10 -65.3205 10
      vertex -9 -65.7657 -5
    endloop
  endfacet
  facet normal -1 0 0
    outer loop
      vertex -9 -65.7657 -5
      vertex -9 -80.5 -5
      vertex -9 -80.5 10
    endloop
  endfacet
  facet normal -1 0 0
    outer loop
      vertex -9 -65.5 -5
      vertex -9 -80.5 -5
      vertex -9 -65.7657 -5
    endloop
  endfacet
  facet normal -1 0 0
    outer loop
      vertex -9 -65.7657 -5
      vertex -9 -80.5 10
      vertex -9 -65.7657 10
    endloop
  endfacet
  facet normal 1 0 0
    outer loop
      vertex -3.5 -65.5 -5
      vertex -3.5 -61.4904 -5
      vertex -3.5 -61.4904 10
    endloop
  endfacet
  facet normal 1 0 0
    outer loop
      vertex -3.5 -67.5909 10
      vertex -3.5 -65.5 -5
      vertex -3.5 -61.4904 10
    endloop
  endfacet
  facet normal 1 0 0
    outer loop
      vertex -3.5 -80.5 10
      vertex -3.5 -65.5 -5
      vertex -3.5 -67.5909 10
    endloop
  endfacet
  facet normal 1 0 0
    outer loop
      vertex -3.5 -80.5 -5
      vertex -3.5 -65.5 -5
      vertex -3.5 -80.5 10
    endloop
  endfacet
  facet normal 0.207912 0.978148 -4.34385e-016
    outer loop
      vertex -3.5 -61.4904 10
      vertex -3.5 -61.4904 -5
      vertex -4.32624 -61.3148 10
    endloop
  endfacet
  facet normal 0.207912 0.978148 -4.34385e-016
    outer loop
      vertex -4.32624 -61.3148 10
      vertex -3.5 -61.4904 -5
      vertex -4.32624 -61.3148 -5
    endloop
  endfacet
  facet normal 0.406736 0.913546 -4.05696e-016
    outer loop
      vertex -4.32624 -61.3148 10
      vertex -4.32624 -61.3148 -5
      vertex -7 -60.1244 10
    endloop
  endfacet
  facet normal 0.406736 0.913546 -4.05696e-016
    outer loop
      vertex -7 -60.1244 10
      vertex -4.32624 -61.3148 -5
      vertex -7 -60.1244 -5
    endloop
  endfacet
  facet normal 0.587785 0.809017 -3.59276e-016
    outer loop
      vertex -7 -60.1244 10
      vertex -7 -60.1244 -5
      vertex -9.36783 -58.404 10
    endloop
  endfacet
  facet normal 0.587785 0.809017 -3.59276e-016
    outer loop
      vertex -9.36783 -58.404 10
      vertex -7 -60.1244 -5
      vertex -9.36783 -58.404 -5
    endloop
  endfacet
  facet normal 0.743145 0.669131 -2.97154e-016
    outer loop
      vertex -11.3262 -56.229 10
      vertex -9.36783 -58.404 10
      vertex -9.36783 -58.404 -5
    endloop
  endfacet
  facet normal 0.743145 0.669131 -2.97154e-016
    outer loop
      vertex -11.3262 -56.229 -5
      vertex -11.3262 -56.229 10
      vertex -9.36783 -58.404 -5
    endloop
  endfacet
  facet normal 0.866026 0.5 -2.22045e-016
    outer loop
      vertex -12.7896 -53.6943 10
      vertex -11.3262 -56.229 10
      vertex -11.3262 -56.229 -5
    endloop
  endfacet
  facet normal 0.866026 0.5 -2.22045e-016
    outer loop
      vertex -12.7896 -53.6943 -5
      vertex -12.7896 -53.6943 10
      vertex -11.3262 -56.229 -5
    endloop
  endfacet
  facet normal 0.951057 0.309017 -1.37231e-016
    outer loop
      vertex -13.6941 -50.9108 10
      vertex -12.7896 -53.6943 10
      vertex -12.7896 -53.6943 -5
    endloop
  endfacet
  facet normal 0.951057 0.309017 -1.37231e-016
    outer loop
      vertex -13.6941 -50.9108 -5
      vertex -13.6941 -50.9108 10
      vertex -12.7896 -53.6943 -5
    endloop
  endfacet
  facet normal 0.994522 0.104529 -4.642e-017
    outer loop
      vertex -14 -48 10
      vertex -13.6941 -50.9108 10
      vertex -13.6941 -50.9108 -5
    endloop
  endfacet
  facet normal 0.994522 0.104529 -4.642e-017
    outer loop
      vertex -14 -48 -5
      vertex -14 -48 10
      vertex -13.6941 -50.9108 -5
    endloop
  endfacet
  facet normal 0.994522 -0.104529 4.642e-017
    outer loop
      vertex -13.6941 -45.0892 -5
      vertex -13.6941 -45.0892 10
      vertex -14 -48 10
    endloop
  endfacet
  facet normal 0.994522 -0.104529 4.642e-017
    outer loop
      vertex -14 -48 -5
      vertex -13.6941 -45.0892 -5
      vertex -14 -48 10
    endloop
  endfacet
  facet normal 0.951057 -0.309017 1.37231e-016
    outer loop
      vertex -12.7896 -42.3057 -5
      vertex -12.7896 -42.3057 10
      vertex -13.6941 -45.0892 10
    endloop
  endfacet
  facet normal 0.951057 -0.309017 1.37231e-016
    outer loop
      vertex -13.6941 -45.0892 -5
      vertex -12.7896 -42.3057 -5
      vertex -13.6941 -45.0892 10
    endloop
  endfacet
  facet normal 0.866026 -0.5 2.22045e-016
    outer loop
      vertex -11.3262 -39.771 -5
      vertex -11.3262 -39.771 10
      vertex -12.7896 -42.3057 10
    endloop
  endfacet
  facet normal 0.866026 -0.5 2.22045e-016
    outer loop
      vertex -12.7896 -42.3057 -5
      vertex -11.3262 -39.771 -5
      vertex -12.7896 -42.3057 10
    endloop
  endfacet
  facet normal 0.743145 -0.669131 2.97154e-016
    outer loop
      vertex -9.36783 -37.596 -5
      vertex -9.36783 -37.596 10
      vertex -11.3262 -39.771 10
    endloop
  endfacet
  facet normal 0.743145 -0.669131 2.97154e-016
    outer loop
      vertex -11.3262 -39.771 -5
      vertex -9.36783 -37.596 -5
      vertex -11.3262 -39.771 10
    endloop
  endfacet
  facet normal 0.587785 -0.809017 3.59276e-016
    outer loop
      vertex -7 -35.8756 -5
      vertex -7 -35.8756 10
      vertex -9.36783 -37.596 10
    endloop
  endfacet
  facet normal 0.587785 -0.809017 3.59276e-016
    outer loop
      vertex -9.36783 -37.596 -5
      vertex -7 -35.8756 -5
      vertex -9.36783 -37.596 10
    endloop
  endfacet
  facet normal 0.406736 -0.913546 4.05696e-016
    outer loop
      vertex -4.32624 -34.6852 -5
      vertex -4.32624 -34.6852 10
      vertex -7 -35.8756 10
    endloop
  endfacet
  facet normal 0.406736 -0.913546 4.05696e-016
    outer loop
      vertex -7 -35.8756 -5
      vertex -4.32624 -34.6852 -5
      vertex -7 -35.8756 10
    endloop
  endfacet
  facet normal 0.207912 -0.978148 4.34385e-016
    outer loop
      vertex -1.4634 -34.0767 -5
      vertex -1.4634 -34.0767 10
      vertex -4.32624 -34.6852 10
    endloop
  endfacet
  facet normal 0.207912 -0.978148 4.34385e-016
    outer loop
      vertex -4.32624 -34.6852 -5
      vertex -1.4634 -34.0767 -5
      vertex -4.32624 -34.6852 10
    endloop
  endfacet
  facet normal 0 -1 4.44089e-016
    outer loop
      vertex 1.4634 -34.0767 -5
      vertex 1.4634 -34.0767 10
      vertex -1.4634 -34.0767 10
    endloop
  endfacet
  facet normal 0 -1 4.44089e-016
    outer loop
      vertex -1.4634 -34.0767 -5
      vertex 1.4634 -34.0767 -5
      vertex -1.4634 -34.0767 10
    endloop
  endfacet
  facet normal -0.207912 -0.978148 4.34385e-016
    outer loop
      vertex 4.32624 -34.6852 -5
      vertex 4.32624 -34.6852 10
      vertex 1.4634 -34.0767 10
    endloop
  endfacet
  facet normal -0.207912 -0.978148 4.34385e-016
    outer loop
      vertex 1.4634 -34.0767 -5
      vertex 4.32624 -34.6852 -5
      vertex 1.4634 -34.0767 10
    endloop
  endfacet
  facet normal -0.406736 -0.913546 4.05696e-016
    outer loop
      vertex 7 -35.8756 -5
      vertex 7 -35.8756 10
      vertex 4.32624 -34.6852 10
    endloop
  endfacet
  facet normal -0.406736 -0.913546 4.05696e-016
    outer loop
      vertex 4.32624 -34.6852 -5
      vertex 7 -35.8756 -5
      vertex 4.32624 -34.6852 10
    endloop
  endfacet
  facet normal -0.587785 -0.809017 3.59276e-016
    outer loop
      vertex 9.36783 -37.596 -5
      vertex 9.36783 -37.596 10
      vertex 7 -35.8756 10
    endloop
  endfacet
  facet normal -0.587785 -0.809017 3.59276e-016
    outer loop
      vertex 7 -35.8756 -5
      vertex 9.36783 -37.596 -5
      vertex 7 -35.8756 10
    endloop
  endfacet
  facet normal -0.743145 -0.669131 2.97154e-016
    outer loop
      vertex 11.3262 -39.771 10
      vertex 9.36783 -37.596 10
      vertex 11.3262 -39.771 -5
    endloop
  endfacet
  facet normal -0.743145 -0.669131 2.97154e-016
    outer loop
      vertex 11.3262 -39.771 -5
      vertex 9.36783 -37.596 10
      vertex 9.36783 -37.596 -5
    endloop
  endfacet
  facet normal -0.866026 -0.5 2.22045e-016
    outer loop
      vertex 12.7896 -42.3057 10
      vertex 11.3262 -39.771 10
      vertex 12.7896 -42.3057 -5
    endloop
  endfacet
  facet normal -0.866026 -0.5 2.22045e-016
    outer loop
      vertex 12.7896 -42.3057 -5
      vertex 11.3262 -39.771 10
      vertex 11.3262 -39.771 -5
    endloop
  endfacet
  facet normal -0.951057 -0.309017 1.37231e-016
    outer loop
      vertex 13.6941 -45.0892 10
      vertex 12.7896 -42.3057 10
      vertex 13.6941 -45.0892 -5
    endloop
  endfacet
  facet normal -0.951057 -0.309017 1.37231e-016
    outer loop
      vertex 13.6941 -45.0892 -5
      vertex 12.7896 -42.3057 10
      vertex 12.7896 -42.3057 -5
    endloop
  endfacet
  facet normal -0.994522 -0.104529 4.642e-017
    outer loop
      vertex 14 -48 10
      vertex 13.6941 -45.0892 10
      vertex 14 -48 -5
    endloop
  endfacet
  facet normal -0.994522 -0.104529 4.642e-017
    outer loop
      vertex 14 -48 -5
      vertex 13.6941 -45.0892 10
      vertex 13.6941 -45.0892 -5
    endloop
  endfacet
  facet normal -0.994522 0.104529 -4.642e-017
    outer loop
      vertex 14 -48 10
      vertex 14 -48 -5
      vertex 13.6941 -50.9108 10
    endloop
  endfacet
  facet normal -0.994522 0.104529 -4.642e-017
    outer loop
      vertex 13.6941 -50.9108 10
      vertex 14 -48 -5
      vertex 13.6941 -50.9108 -5
    endloop
  endfacet
  facet normal -0.951057 0.309017 -1.37231e-016
    outer loop
      vertex 13.6941 -50.9108 10
      vertex 13.6941 -50.9108 -5
      vertex 12.7896 -53.6943 10
    endloop
  endfacet
  facet normal -0.951057 0.309017 -1.37231e-016
    outer loop
      vertex 12.7896 -53.6943 10
      vertex 13.6941 -50.9108 -5
      vertex 12.7896 -53.6943 -5
    endloop
  endfacet
  facet normal -0.866026 0.5 -2.22045e-016
    outer loop
      vertex 12.7896 -53.6943 10
      vertex 12.7896 -53.6943 -5
      vertex 11.3262 -56.229 10
    endloop
  endfacet
  facet normal -0.866026 0.5 -2.22045e-016
    outer loop
      vertex 11.3262 -56.229 10
      vertex 12.7896 -53.6943 -5
      vertex 11.3262 -56.229 -5
    endloop
  endfacet
  facet normal -0.743145 0.669131 -2.97154e-016
    outer loop
      vertex 11.3262 -56.229 10
      vertex 11.3262 -56.229 -5
      vertex 9.36783 -58.404 10
    endloop
  endfacet
  facet normal -0.743145 0.669131 -2.97154e-016
    outer loop
      vertex 9.36783 -58.404 10
      vertex 11.3262 -56.229 -5
      vertex 9.36783 -58.404 -5
    endloop
  endfacet
  facet normal -0.587785 0.809017 -3.59276e-016
    outer loop
      vertex 9.36783 -58.404 10
      vertex 9.36783 -58.404 -5
      vertex 7 -60.1244 10
    endloop
  endfacet
  facet normal -0.587785 0.809017 -3.59276e-016
    outer loop
      vertex 7 -60.1244 10
      vertex 9.36783 -58.404 -5
      vertex 7 -60.1244 -5
    endloop
  endfacet
  facet normal -0.406736 0.913546 -4.05696e-016
    outer loop
      vertex 7 -60.1244 10
      vertex 7 -60.1244 -5
      vertex 4.32624 -61.3148 10
    endloop
  endfacet
  facet normal -0.406736 0.913546 -4.05696e-016
    outer loop
      vertex 4.32624 -61.3148 10
      vertex 7 -60.1244 -5
      vertex 4.32624 -61.3148 -5
    endloop
  endfacet
  facet normal -0.207912 0.978148 -4.34385e-016
    outer loop
      vertex 4.32624 -61.3148 10
      vertex 4.32624 -61.3148 -5
      vertex 3.5 -61.4904 10
    endloop
  endfacet
  facet normal -0.207912 0.978148 -4.34385e-016
    outer loop
      vertex 3.5 -61.4904 10
      vertex 4.32624 -61.3148 -5
      vertex 3.5 -61.4904 -5
    endloop
  endfacet
  facet normal -1 0 0
    outer loop
      vertex 3.5 -80.5 10
      vertex 3.5 -67.5909 10
      vertex 3.5 -80.5 -5
    endloop
  endfacet
  facet normal -1 0 0
    outer loop
      vertex 3.5 -80.5 -5
      vertex 3.5 -67.5909 10
      vertex 3.5 -61.4904 10
    endloop
  endfacet
  facet normal -1 0 0
    outer loop
      vertex 3.5 -65.5 -5
      vertex 3.5 -61.4904 10
      vertex 3.5 -61.4904 -5
    endloop
  endfacet
  facet normal -1 0 0
    outer loop
      vertex 3.5 -80.5 -5
      vertex 3.5 -61.4904 10
      vertex 3.5 -65.5 -5
    endloop
  endfacet
  facet normal 1 0 0
    outer loop
      vertex 9 -65.7657 10
      vertex 9 -80.5 -5
      vertex 9 -65.7657 -5
    endloop
  endfacet
  facet normal 1 0 0
    outer loop
      vertex 9 -65.7657 -5
      vertex 9 -80.5 -5
      vertex 9 -65.5 -5
    endloop
  endfacet
  facet normal 1 0 0
    outer loop
      vertex 9 -80.5 10
      vertex 9 -80.5 -5
      vertex 9 -65.7657 10
    endloop
  endfacet
  facet normal 0.406737 -0.913545 4.05696e-016
    outer loop
      vertex 10 -65.3205 10
      vertex 6.18034 -67.0211 10
      vertex 9 -65.7657 10
    endloop
  endfacet
  facet normal 0.406737 -0.913545 4.05696e-016
    outer loop
      vertex 9 -65.7657 -5
      vertex 10 -65.3205 -5
      vertex 9 -65.7657 10
    endloop
  endfacet
  facet normal 0.406737 -0.913545 4.05696e-016
    outer loop
      vertex 10 -65.3205 -5
      vertex 10 -65.3205 10
      vertex 9 -65.7657 10
    endloop
  endfacet
  facet normal 0.587785 -0.809017 3.59276e-016
    outer loop
      vertex 10 -65.3205 10
      vertex 10 -65.3205 -5
      vertex 13.3826 -62.8629 -5
    endloop
  endfacet
  facet normal 0.587785 -0.809017 3.59276e-016
    outer loop
      vertex 13.3826 -62.8629 10
      vertex 10 -65.3205 10
      vertex 13.3826 -62.8629 -5
    endloop
  endfacet
  facet normal 0.743145 -0.669131 2.97154e-016
    outer loop
      vertex 13.3826 -62.8629 10
      vertex 13.3826 -62.8629 -5
      vertex 16.1803 -59.7557 -5
    endloop
  endfacet
  facet normal 0.743145 -0.669131 2.97154e-016
    outer loop
      vertex 16.1803 -59.7557 10
      vertex 13.3826 -62.8629 10
      vertex 16.1803 -59.7557 -5
    endloop
  endfacet
  facet normal 0.866025 -0.5 2.22045e-016
    outer loop
      vertex 16.1803 -59.7557 10
      vertex 16.1803 -59.7557 -5
      vertex 18.2709 -56.1347 -5
    endloop
  endfacet
  facet normal 0.866025 -0.5 2.22045e-016
    outer loop
      vertex 18.2709 -56.1347 10
      vertex 16.1803 -59.7557 10
      vertex 18.2709 -56.1347 -5
    endloop
  endfacet
  facet normal 0.951057 -0.309017 1.37231e-016
    outer loop
      vertex 18.2709 -56.1347 10
      vertex 18.2709 -56.1347 -5
      vertex 19.563 -52.1582 -5
    endloop
  endfacet
  facet normal 0.951057 -0.309017 1.37231e-016
    outer loop
      vertex 19.563 -52.1582 10
      vertex 18.2709 -56.1347 10
      vertex 19.563 -52.1582 -5
    endloop
  endfacet
  facet normal 0.994522 -0.104528 4.642e-017
    outer loop
      vertex 19.563 -52.1582 10
      vertex 19.563 -52.1582 -5
      vertex 20 -48 -5
    endloop
  endfacet
  facet normal 0.994522 -0.104528 4.642e-017
    outer loop
      vertex 20 -48 10
      vertex 19.563 -52.1582 10
      vertex 20 -48 -5
    endloop
  endfacet
  facet normal 0.994522 0.104528 -4.642e-017
    outer loop
      vertex 20 -48 -5
      vertex 19.563 -43.8418 -5
      vertex 19.563 -43.8418 10
    endloop
  endfacet
  facet normal 0.994522 0.104528 -4.642e-017
    outer loop
      vertex 20 -48 10
      vertex 20 -48 -5
      vertex 19.563 -43.8418 10
    endloop
  endfacet
  facet normal 0.951057 0.309017 -1.37231e-016
    outer loop
      vertex 19.563 -43.8418 -5
      vertex 18.2709 -39.8653 -5
      vertex 18.2709 -39.8653 10
    endloop
  endfacet
  facet normal 0.951057 0.309017 -1.37231e-016
    outer loop
      vertex 19.563 -43.8418 10
      vertex 19.563 -43.8418 -5
      vertex 18.2709 -39.8653 10
    endloop
  endfacet
  facet normal 0.866025 0.5 -2.22045e-016
    outer loop
      vertex 18.2709 -39.8653 -5
      vertex 16.1803 -36.2443 -5
      vertex 16.1803 -36.2443 10
    endloop
  endfacet
  facet normal 0.866025 0.5 -2.22045e-016
    outer loop
      vertex 18.2709 -39.8653 10
      vertex 18.2709 -39.8653 -5
      vertex 16.1803 -36.2443 10
    endloop
  endfacet
  facet normal 0.743145 0.669131 -2.97154e-016
    outer loop
      vertex 16.1803 -36.2443 -5
      vertex 13.3826 -33.1371 -5
      vertex 13.3826 -33.1371 10
    endloop
  endfacet
  facet normal 0.743145 0.669131 -2.97154e-016
    outer loop
      vertex 16.1803 -36.2443 10
      vertex 16.1803 -36.2443 -5
      vertex 13.3826 -33.1371 10
    endloop
  endfacet
  facet normal 0.587785 0.809017 -3.59276e-016
    outer loop
      vertex 10 -30.6795 -5
      vertex 10 -30.6795 10
      vertex 13.3826 -33.1371 -5
    endloop
  endfacet
  facet normal 0.587785 0.809017 -3.59276e-016
    outer loop
      vertex 13.3826 -33.1371 -5
      vertex 10 -30.6795 10
      vertex 13.3826 -33.1371 10
    endloop
  endfacet
  facet normal 0.406737 0.913545 -4.05696e-016
    outer loop
      vertex 10 -30.6795 -5
      vertex 6.18034 -28.9789 -5
      vertex 8 -29.789 -5
    endloop
  endfacet
  facet normal 0.406737 0.913545 -4.05696e-016
    outer loop
      vertex 10 -30.6795 -5
      vertex 8 -29.789 -5
      vertex 8 -29.789 10
    endloop
  endfacet
  facet normal 0.406737 0.913545 -4.05696e-016
    outer loop
      vertex 10 -30.6795 -5
      vertex 8 -29.789 10
      vertex 10 -30.6795 10
    endloop
  endfacet
  facet normal -0.406737 0.913545 -4.05696e-016
    outer loop
      vertex -10 -30.6795 -5
      vertex -10 -30.6795 10
      vertex -7 -29.3438 -5
    endloop
  endfacet
  facet normal -0.406737 0.913545 -4.05696e-016
    outer loop
      vertex -10 -30.6795 -5
      vertex -7 -29.3438 -5
      vertex -6.18034 -28.9789 -5
    endloop
  endfacet
  facet normal -0.406737 0.913545 -4.05696e-016
    outer loop
      vertex -7 -29.3438 -5
      vertex -10 -30.6795 10
      vertex -7 -29.3438 10
    endloop
  endfacet
  facet normal -0.587785 0.809017 -3.59276e-016
    outer loop
      vertex -13.3826 -33.1371 -5
      vertex -13.3826 -33.1371 10
      vertex -10 -30.6795 -5
    endloop
  endfacet
  facet normal -0.587785 0.809017 -3.59276e-016
    outer loop
      vertex -10 -30.6795 -5
      vertex -13.3826 -33.1371 10
      vertex -10 -30.6795 10
    endloop
  endfacet
  facet normal -0.743145 0.669131 -2.97154e-016
    outer loop
      vertex -16.1803 -36.2443 -5
      vertex -16.1803 -36.2443 10
      vertex -13.3826 -33.1371 -5
    endloop
  endfacet
  facet normal -0.743145 0.669131 -2.97154e-016
    outer loop
      vertex -13.3826 -33.1371 -5
      vertex -16.1803 -36.2443 10
      vertex -13.3826 -33.1371 10
    endloop
  endfacet
  facet normal -0.866025 0.5 -2.22045e-016
    outer loop
      vertex -18.2709 -39.8653 -5
      vertex -18.2709 -39.8653 10
      vertex -16.1803 -36.2443 -5
    endloop
  endfacet
  facet normal -0.866025 0.5 -2.22045e-016
    outer loop
      vertex -16.1803 -36.2443 -5
      vertex -18.2709 -39.8653 10
      vertex -16.1803 -36.2443 10
    endloop
  endfacet
  facet normal -0.951057 0.309017 -1.37231e-016
    outer loop
      vertex -19.563 -43.8418 -5
      vertex -19.563 -43.8418 10
      vertex -18.2709 -39.8653 -5
    endloop
  endfacet
  facet normal -0.951057 0.309017 -1.37231e-016
    outer loop
      vertex -18.2709 -39.8653 -5
      vertex -19.563 -43.8418 10
      vertex -18.2709 -39.8653 10
    endloop
  endfacet
  facet normal 0 4.44089e-016 1
    outer loop
      vertex -19.563 -43.8418 10
      vertex -20 -48 10
      vertex -19.563 -52.1582 10
    endloop
  endfacet
  facet normal 0 4.44089e-016 1
    outer loop
      vertex -16.1803 -59.7557 10
      vertex -19.563 -43.8418 10
      vertex -18.2709 -56.1347 10
    endloop
  endfacet
  facet normal 0 4.44089e-016 1
    outer loop
      vertex -18.2709 -56.1347 10
      vertex -19.563 -43.8418 10
      vertex -19.563 -52.1582 10
    endloop
  endfacet
  facet normal 0 4.44089e-016 1
    outer loop
      vertex -13.3826 -62.8629 10
      vertex -19.563 -43.8418 10
      vertex -16.1803 -59.7557 10
    endloop
  endfacet
  facet normal 0 4.44089e-016 1
    outer loop
      vertex -10 -65.3205 10
      vertex -19.563 -43.8418 10
      vertex -13.3826 -62.8629 10
    endloop
  endfacet
  facet normal 0 4.44089e-016 1
    outer loop
      vertex -6.18034 -67.0211 10
      vertex -19.563 -43.8418 10
      vertex -10 -65.3205 10
    endloop
  endfacet
  facet normal 0 4.44089e-016 1
    outer loop
      vertex -11.3262 -56.229 10
      vertex -19.563 -43.8418 10
      vertex -6.18034 -67.0211 10
    endloop
  endfacet
  facet normal 0 4.44089e-016 1
    outer loop
      vertex -3.5 -61.4904 10
      vertex -4.32624 -61.3148 10
      vertex -3.5 -67.5909 10
    endloop
  endfacet
  facet normal 0 4.44089e-016 1
    outer loop
      vertex -4.32624 -61.3148 10
      vertex -7 -60.1244 10
      vertex -3.5 -67.5909 10
    endloop
  endfacet
  facet normal 0 4.44089e-016 1
    outer loop
      vertex -7 -60.1244 10
      vertex -9.36783 -58.404 10
      vertex -3.5 -67.5909 10
    endloop
  endfacet
  facet normal 0 4.44089e-016 1
    outer loop
      vertex -3.5 -67.5909 10
      vertex -11.3262 -56.229 10
      vertex -6.18034 -67.0211 10
    endloop
  endfacet
  facet normal 0 4.44089e-016 1
    outer loop
      vertex -12.7896 -53.6943 10
      vertex -13.6941 -50.9108 10
      vertex -19.563 -43.8418 10
    endloop
  endfacet
  facet normal 0 4.44089e-016 1
    outer loop
      vertex -13.6941 -50.9108 10
      vertex -14 -48 10
      vertex -19.563 -43.8418 10
    endloop
  endfacet
  facet normal 0 4.44089e-016 1
    outer loop
      vertex -13.6941 -45.0892 10
      vertex -19.563 -43.8418 10
      vertex -14 -48 10
    endloop
  endfacet
  facet normal 0 4.44089e-016 1
    outer loop
      vertex -12.7896 -42.3057 10
      vertex -19.563 -43.8418 10
      vertex -13.6941 -45.0892 10
    endloop
  endfacet
  facet normal 0 4.44089e-016 1
    outer loop
      vertex -11.3262 -39.771 10
      vertex -19.563 -43.8418 10
      vertex -12.7896 -42.3057 10
    endloop
  endfacet
  facet normal 0 4.44089e-016 1
    outer loop
      vertex -9.36783 -37.596 10
      vertex -19.563 -43.8418 10
      vertex -11.3262 -39.771 10
    endloop
  endfacet
  facet normal 0 4.44089e-016 1
    outer loop
      vertex -7 -35.8756 10
      vertex -19.563 -43.8418 10
      vertex -9.36783 -37.596 10
    endloop
  endfacet
  facet normal 0 4.44089e-016 1
    outer loop
      vertex -7 -33 10
      vertex -19.563 -43.8418 10
      vertex -7 -35.8756 10
    endloop
  endfacet
  facet normal 0 4.44089e-016 1
    outer loop
      vertex -7 -33 10
      vertex -7 -35.8756 10
      vertex -4.32624 -34.6852 10
    endloop
  endfacet
  facet normal 0 4.44089e-016 1
    outer loop
      vertex -1.4634 -34.0767 10
      vertex -7 -33 10
      vertex -4.32624 -34.6852 10
    endloop
  endfacet
  facet normal 0 4.44089e-016 1
    outer loop
      vertex 13.3826 -33.1371 10
      vertex -1.4634 -34.0767 10
      vertex 1.4634 -34.0767 10
    endloop
  endfacet
  facet normal 0 4.44089e-016 1
    outer loop
      vertex 16.1803 -36.2443 10
      vertex 1.4634 -34.0767 10
      vertex 4.32624 -34.6852 10
    endloop
  endfacet
  facet normal 0 4.44089e-016 1
    outer loop
      vertex 18.2709 -39.8653 10
      vertex 4.32624 -34.6852 10
      vertex 7 -35.8756 10
    endloop
  endfacet
  facet normal 0 4.44089e-016 1
    outer loop
      vertex 19.563 -43.8418 10
      vertex 7 -35.8756 10
      vertex 9.36783 -37.596 10
    endloop
  endfacet
  facet normal 0 4.44089e-016 1
    outer loop
      vertex 20 -48 10
      vertex 9.36783 -37.596 10
      vertex 11.3262 -39.771 10
    endloop
  endfacet
  facet normal 0 4.44089e-016 1
    outer loop
      vertex 19.563 -52.1582 10
      vertex 11.3262 -39.771 10
      vertex 12.7896 -42.3057 10
    endloop
  endfacet
  facet normal 0 4.44089e-016 1
    outer loop
      vertex 18.2709 -56.1347 10
      vertex 12.7896 -42.3057 10
      vertex 13.6941 -45.0892 10
    endloop
  endfacet
  facet normal 0 4.44089e-016 1
    outer loop
      vertex 16.1803 -59.7557 10
      vertex 13.6941 -45.0892 10
      vertex 14 -48 10
    endloop
  endfacet
  facet normal 0 4.44089e-016 1
    outer loop
      vertex 13.3826 -62.8629 10
      vertex 14 -48 10
      vertex 13.6941 -50.9108 10
    endloop
  endfacet
  facet normal 0 4.44089e-016 1
    outer loop
      vertex 4.32624 -61.3148 10
      vertex 3.5 -67.5909 10
      vertex 7 -60.1244 10
    endloop
  endfacet
  facet normal 0 4.44089e-016 1
    outer loop
      vertex 10 -65.3205 10
      vertex 13.6941 -50.9108 10
      vertex 12.7896 -53.6943 10
    endloop
  endfacet
  facet normal 0 4.44089e-016 1
    outer loop
      vertex 8 -29.789 10
      vertex 8 -33 10
      vertex 10 -30.6795 10
    endloop
  endfacet
  facet normal 0 4.44089e-016 1
    outer loop
      vertex 6.18034 -67.0211 10
      vertex 12.7896 -53.6943 10
      vertex 11.3262 -56.229 10
    endloop
  endfacet
  facet normal 0 4.44089e-016 1
    outer loop
      vertex 3.5 -61.4904 10
      vertex 3.5 -67.5909 10
      vertex 4.32624 -61.3148 10
    endloop
  endfacet
  facet normal 0 4.44089e-016 1
    outer loop
      vertex 3.5 -67.5909 10
      vertex 11.3262 -56.229 10
      vertex 9.36783 -58.404 10
    endloop
  endfacet
  facet normal 0 4.44089e-016 1
    outer loop
      vertex 3.5 -67.5909 10
      vertex 9.36783 -58.404 10
      vertex 7 -60.1244 10
    endloop
  endfacet
  facet normal 0 4.44089e-016 1
    outer loop
      vertex 6.18034 -67.0211 10
      vertex 11.3262 -56.229 10
      vertex 3.5 -67.5909 10
    endloop
  endfacet
  facet normal 0 4.44089e-016 1
    outer loop
      vertex 10 -65.3205 10
      vertex 12.7896 -53.6943 10
      vertex 6.18034 -67.0211 10
    endloop
  endfacet
  facet normal 0 4.44089e-016 1
    outer loop
      vertex 13.3826 -62.8629 10
      vertex 13.6941 -50.9108 10
      vertex 10 -65.3205 10
    endloop
  endfacet
  facet normal 0 4.44089e-016 1
    outer loop
      vertex 16.1803 -59.7557 10
      vertex 14 -48 10
      vertex 13.3826 -62.8629 10
    endloop
  endfacet
  facet normal 0 4.44089e-016 1
    outer loop
      vertex 18.2709 -56.1347 10
      vertex 13.6941 -45.0892 10
      vertex 16.1803 -59.7557 10
    endloop
  endfacet
  facet normal 0 4.44089e-016 1
    outer loop
      vertex 19.563 -52.1582 10
      vertex 12.7896 -42.3057 10
      vertex 18.2709 -56.1347 10
    endloop
  endfacet
  facet normal 0 4.44089e-016 1
    outer loop
      vertex 20 -48 10
      vertex 11.3262 -39.771 10
      vertex 19.563 -52.1582 10
    endloop
  endfacet
  facet normal 0 4.44089e-016 1
    outer loop
      vertex 19.563 -43.8418 10
      vertex 9.36783 -37.596 10
      vertex 20 -48 10
    endloop
  endfacet
  facet normal 0 4.44089e-016 1
    outer loop
      vertex 18.2709 -39.8653 10
      vertex 7 -35.8756 10
      vertex 19.563 -43.8418 10
    endloop
  endfacet
  facet normal 0 4.44089e-016 1
    outer loop
      vertex 16.1803 -36.2443 10
      vertex 4.32624 -34.6852 10
      vertex 18.2709 -39.8653 10
    endloop
  endfacet
  facet normal 0 4.44089e-016 1
    outer loop
      vertex 13.3826 -33.1371 10
      vertex 1.4634 -34.0767 10
      vertex 16.1803 -36.2443 10
    endloop
  endfacet
  facet normal 0 4.44089e-016 1
    outer loop
      vertex 8 -33 10
      vertex -1.4634 -34.0767 10
      vertex 13.3826 -33.1371 10
    endloop
  endfacet
  facet normal 0 4.44089e-016 1
    outer loop
      vertex 8 -33 10
      vertex -7 -33 10
      vertex -1.4634 -34.0767 10
    endloop
  endfacet
  facet normal 0 4.44089e-016 1
    outer loop
      vertex 10 -30.6795 10
      vertex 8 -33 10
      vertex 13.3826 -33.1371 10
    endloop
  endfacet
  facet normal 0 4.44089e-016 1
    outer loop
      vertex -7 -29.3438 10
      vertex -19.563 -43.8418 10
      vertex -7 -33 10
    endloop
  endfacet
  facet normal 0 4.44089e-016 1
    outer loop
      vertex -10 -30.6795 10
      vertex -19.563 -43.8418 10
      vertex -7 -29.3438 10
    endloop
  endfacet
  facet normal 0 4.44089e-016 1
    outer loop
      vertex -13.3826 -33.1371 10
      vertex -19.563 -43.8418 10
      vertex -10 -30.6795 10
    endloop
  endfacet
  facet normal 0 4.44089e-016 1
    outer loop
      vertex -16.1803 -36.2443 10
      vertex -19.563 -43.8418 10
      vertex -13.3826 -33.1371 10
    endloop
  endfacet
  facet normal 0 4.44089e-016 1
    outer loop
      vertex -18.2709 -39.8653 10
      vertex -19.563 -43.8418 10
      vertex -16.1803 -36.2443 10
    endloop
  endfacet
  facet normal 0 4.44089e-016 1
    outer loop
      vertex -11.3262 -56.229 10
      vertex -12.7896 -53.6943 10
      vertex -19.563 -43.8418 10
    endloop
  endfacet
  facet normal 0 4.44089e-016 1
    outer loop
      vertex -9.36783 -58.404 10
      vertex -11.3262 -56.229 10
      vertex -3.5 -67.5909 10
    endloop
  endfacet
  facet normal 0 4.44089e-016 1
    outer loop
      vertex -6.18034 -67.0211 10
      vertex -9 -65.7657 10
      vertex -9 -80.5 10
    endloop
  endfacet
  facet normal 0 4.44089e-016 1
    outer loop
      vertex -3.5 -67.5909 10
      vertex -6.18034 -67.0211 10
      vertex -3.5 -80.5 10
    endloop
  endfacet
  facet normal 0 4.44089e-016 1
    outer loop
      vertex -3.5 -80.5 10
      vertex -6.18034 -67.0211 10
      vertex -9 -80.5 10
    endloop
  endfacet
  facet normal 0 -1 4.44089e-016
    outer loop
      vertex -9 -80.5 10
      vertex -9 -80.5 -5
      vertex -3.5 -80.5 -5
    endloop
  endfacet
  facet normal 0 -1 4.44089e-016
    outer loop
      vertex -3.5 -80.5 10
      vertex -9 -80.5 10
      vertex -3.5 -80.5 -5
    endloop
  endfacet
  facet normal 0 -4.44089e-016 -1
    outer loop
      vertex -9 -65.5 -5
      vertex -3.5 -65.5 -5
      vertex -9 -80.5 -5
    endloop
  endfacet
  facet normal 0 -4.44089e-016 -1
    outer loop
      vertex -9 -80.5 -5
      vertex -3.5 -65.5 -5
      vertex -3.5 -80.5 -5
    endloop
  endfacet
  facet normal 0 -1 4.44089e-016
    outer loop
      vertex 3.5 -80.5 10
      vertex 3.5 -80.5 -5
      vertex 9 -80.5 -5
    endloop
  endfacet
  facet normal 0 -1 4.44089e-016
    outer loop
      vertex 9 -80.5 10
      vertex 3.5 -80.5 10
      vertex 9 -80.5 -5
    endloop
  endfacet
  facet normal 0 -4.44089e-016 -1
    outer loop
      vertex 3.5 -65.5 -5
      vertex 9 -65.5 -5
      vertex 3.5 -80.5 -5
    endloop
  endfacet
  facet normal 0 -4.44089e-016 -1
    outer loop
      vertex 3.5 -80.5 -5
      vertex 9 -65.5 -5
      vertex 9 -80.5 -5
    endloop
  endfacet
  facet normal 0 4.44089e-016 1
    outer loop
      vertex 6.18034 -67.0211 10
      vertex 3.5 -67.5909 10
      vertex 3.5 -80.5 10
    endloop
  endfacet
  facet normal 0 4.44089e-016 1
    outer loop
      vertex 9 -65.7657 10
      vertex 6.18034 -67.0211 10
      vertex 9 -80.5 10
    endloop
  endfacet
  facet normal 0 4.44089e-016 1
    outer loop
      vertex 9 -80.5 10
      vertex 6.18034 -67.0211 10
      vertex 3.5 -80.5 10
    endloop
  endfacet
  facet normal 1 0 0
    outer loop
      vertex 8 -29.789 -5
      vertex 8 2 -5
      vertex 8 2 10
    endloop
  endfacet
  facet normal 1 0 0
    outer loop
      vertex 8 -29.789 10
      vertex 8 -29.789 -5
      vertex 8 2 10
    endloop
  endfacet
  facet normal 1 0 0
    outer loop
      vertex 8 -33 10
      vertex 8 -29.789 10
      vertex 8 2 10
    endloop
  endfacet
  facet normal 0 -2.22045e-016 -1
    outer loop
      vertex -7 2 -5
      vertex 8 2 -5
      vertex -7 -29.3438 -5
    endloop
  endfacet
  facet normal 0 -2.22045e-016 -1
    outer loop
      vertex 6.18034 -28.9789 -5
      vertex 8 2 -5
      vertex 8 -29.789 -5
    endloop
  endfacet
  facet normal 0 -2.22045e-016 -1
    outer loop
      vertex 2.09057 -28.1096 -5
      vertex 8 2 -5
      vertex 6.18034 -28.9789 -5
    endloop
  endfacet
  facet normal 0 -2.22045e-016 -1
    outer loop
      vertex -2.09057 -28.1096 -5
      vertex 8 2 -5
      vertex 2.09057 -28.1096 -5
    endloop
  endfacet
  facet normal 0 -2.22045e-016 -1
    outer loop
      vertex -6.18034 -28.9789 -5
      vertex 8 2 -5
      vertex -2.09057 -28.1096 -5
    endloop
  endfacet
  facet normal 0 -2.22045e-016 -1
    outer loop
      vertex -7 -29.3438 -5
      vertex 8 2 -5
      vertex -6.18034 -28.9789 -5
    endloop
  endfacet
  facet normal -1 0 0
    outer loop
      vertex -7 2 -5
      vertex -7 -29.3438 -5
      vertex -7 2 10
    endloop
  endfacet
  facet normal -1 0 0
    outer loop
      vertex -7 2 10
      vertex -7 -29.3438 -5
      vertex -7 -29.3438 10
    endloop
  endfacet
  facet normal -1 0 0
    outer loop
      vertex -7 2 10
      vertex -7 -29.3438 10
      vertex -7 -33 10
    endloop
  endfacet
  facet normal 0 2.22045e-016 1
    outer loop
      vertex 8 2 10
      vertex -7 2 10
      vertex -7 -33 10
    endloop
  endfacet
  facet normal 0 2.22045e-016 1
    outer loop
      vertex 8 -33 10
      vertex 8 2 10
      vertex -7 -33 10
    endloop
  endfacet
  facet normal 0 1 -2.22045e-016
    outer loop
      vertex -7 2 -5
      vertex -7 2 10
      vertex 8 2 -5
    endloop
  endfacet
  facet normal 0 1 -2.22045e-016
    outer loop
      vertex 8 2 -5
      vertex -7 2 10
      vertex 8 2 10
    endloop
  endfacet
endsolid OpenSCAD_Model
