solid OpenSCAD_Model
  facet normal 0 -1 2.22045e-016
    outer loop
      vertex -17.6067 -9 51.7424
      vertex -18 -9 48
      vertex -17.6067 -9 44.2576
    endloop
  endfacet
  facet normal 0 -1 2.22045e-016
    outer loop
      vertex -14.5623 -9 37.4199
      vertex -17.6067 -9 51.7424
      vertex -16.4438 -9 40.6787
    endloop
  endfacet
  facet normal 0 -1 2.22045e-016
    outer loop
      vertex -16.4438 -9 40.6787
      vertex -17.6067 -9 51.7424
      vertex -17.6067 -9 44.2576
    endloop
  endfacet
  facet normal 0 -1 2.22045e-016
    outer loop
      vertex -12.0444 -9 34.6234
      vertex -17.6067 -9 51.7424
      vertex -14.5623 -9 37.4199
    endloop
  endfacet
  facet normal 0 -1 2.22045e-016
    outer loop
      vertex -9 -9 32.4115
      vertex -17.6067 -9 51.7424
      vertex -12.0444 -9 34.6234
    endloop
  endfacet
  facet normal 0 -1 2.22045e-016
    outer loop
      vertex -12.3329 -9 42.5091
      vertex -17.6067 -9 51.7424
      vertex -9 -9 32.4115
    endloop
  endfacet
  facet normal 0 -1 2.22045e-016
    outer loop
      vertex -9.03326 -9 37.9675
      vertex -10.9217 -9 40.0649
      vertex -5.56231 -9 30.881
    endloop
  endfacet
  facet normal 0 -1 2.22045e-016
    outer loop
      vertex -4.17173 -9 35.1607
      vertex -6.75 -9 36.3087
      vertex -1.88151 -9 30.0986
    endloop
  endfacet
  facet normal 0 -1 2.22045e-016
    outer loop
      vertex -1.41113 -9 34.574
      vertex -4.17173 -9 35.1607
      vertex 1.88151 -9 30.0986
    endloop
  endfacet
  facet normal 0 -1 2.22045e-016
    outer loop
      vertex 4.17173 -9 35.1607
      vertex 1.41113 -9 34.574
      vertex 5.56231 -9 30.881
    endloop
  endfacet
  facet normal 0 -1 2.22045e-016
    outer loop
      vertex 6.75 -9 36.3087
      vertex 4.17173 -9 35.1607
      vertex 9 -9 32.4115
    endloop
  endfacet
  facet normal 0 -1 2.22045e-016
    outer loop
      vertex 9.03326 -9 37.9675
      vertex 6.75 -9 36.3087
      vertex 12.0444 -9 34.6234
    endloop
  endfacet
  facet normal 0 -1 2.22045e-016
    outer loop
      vertex 10.9217 -9 40.0649
      vertex 9.03326 -9 37.9675
      vertex 14.5623 -9 37.4199
    endloop
  endfacet
  facet normal 0 -1 2.22045e-016
    outer loop
      vertex 12.3329 -9 42.5091
      vertex 10.9217 -9 40.0649
      vertex 16.4438 -9 40.6787
    endloop
  endfacet
  facet normal 0 -1 2.22045e-016
    outer loop
      vertex 13.205 -9 50.8068
      vertex 13.5 -9 48
      vertex 18 -9 48
    endloop
  endfacet
  facet normal 0 -1 2.22045e-016
    outer loop
      vertex 12.3329 -9 53.4909
      vertex 13.205 -9 50.8068
      vertex 17.6067 -9 51.7424
    endloop
  endfacet
  facet normal 0 -1 2.22045e-016
    outer loop
      vertex 10.9217 -9 55.9351
      vertex 12.3329 -9 53.4909
      vertex 16.4438 -9 55.3213
    endloop
  endfacet
  facet normal 0 -1 2.22045e-016
    outer loop
      vertex 9.03326 -9 58.0325
      vertex 10.9217 -9 55.9351
      vertex 14.5623 -9 58.5801
    endloop
  endfacet
  facet normal 0 -1 2.22045e-016
    outer loop
      vertex 4.17173 -9 60.8393
      vertex 6.75 -9 59.6913
      vertex 10 -9 62.5
    endloop
  endfacet
  facet normal 0 -1 2.22045e-016
    outer loop
      vertex 10 -9 62.8619
      vertex 10 -9 62.5
      vertex 12.0444 -9 61.3766
    endloop
  endfacet
  facet normal 0 -1 2.22045e-016
    outer loop
      vertex -13.205 -9 45.1932
      vertex -13.5 -9 48
      vertex -17.6067 -9 51.7424
    endloop
  endfacet
  facet normal 0 -1 2.22045e-016
    outer loop
      vertex -3.5 -9 60.982
      vertex -3.5 -9 62.5
      vertex -4.17173 -9 60.8393
    endloop
  endfacet
  facet normal 0 -1 2.22045e-016
    outer loop
      vertex 10 -9 62.5
      vertex 6.75 -9 59.6913
      vertex 12.0444 -9 61.3766
    endloop
  endfacet
  facet normal 0 -1 2.22045e-016
    outer loop
      vertex 12.0444 -9 61.3766
      vertex 9.03326 -9 58.0325
      vertex 14.5623 -9 58.5801
    endloop
  endfacet
  facet normal 0 -1 2.22045e-016
    outer loop
      vertex 14.5623 -9 58.5801
      vertex 10.9217 -9 55.9351
      vertex 16.4438 -9 55.3213
    endloop
  endfacet
  facet normal 0 -1 2.22045e-016
    outer loop
      vertex -12.3329 -9 53.4909
      vertex -10.9217 -9 55.9351
      vertex -17.6067 -9 51.7424
    endloop
  endfacet
  facet normal 0 -1 2.22045e-016
    outer loop
      vertex 16.4438 -9 55.3213
      vertex 12.3329 -9 53.4909
      vertex 17.6067 -9 51.7424
    endloop
  endfacet
  facet normal 0 -1 2.22045e-016
    outer loop
      vertex 17.6067 -9 51.7424
      vertex 13.205 -9 50.8068
      vertex 18 -9 48
    endloop
  endfacet
  facet normal 0 -1 2.22045e-016
    outer loop
      vertex 18 -9 48
      vertex 13.5 -9 48
      vertex 17.6067 -9 44.2576
    endloop
  endfacet
  facet normal 0 -1 2.22045e-016
    outer loop
      vertex 17.6067 -9 44.2576
      vertex 13.205 -9 45.1932
      vertex 16.4438 -9 40.6787
    endloop
  endfacet
  facet normal 0 -1 2.22045e-016
    outer loop
      vertex 13.205 -9 45.1932
      vertex 12.3329 -9 42.5091
      vertex 16.4438 -9 40.6787
    endloop
  endfacet
  facet normal 0 -1 2.22045e-016
    outer loop
      vertex 16.4438 -9 40.6787
      vertex 10.9217 -9 40.0649
      vertex 14.5623 -9 37.4199
    endloop
  endfacet
  facet normal 0 -1 2.22045e-016
    outer loop
      vertex 14.5623 -9 37.4199
      vertex 9.03326 -9 37.9675
      vertex 12.0444 -9 34.6234
    endloop
  endfacet
  facet normal 0 -1 2.22045e-016
    outer loop
      vertex 12.0444 -9 34.6234
      vertex 6.75 -9 36.3087
      vertex 9 -9 32.4115
    endloop
  endfacet
  facet normal 0 -1 2.22045e-016
    outer loop
      vertex 9 -9 32.4115
      vertex 4.17173 -9 35.1607
      vertex 5.56231 -9 30.881
    endloop
  endfacet
  facet normal 0 -1 2.22045e-016
    outer loop
      vertex -13.205 -9 50.8068
      vertex -12.3329 -9 53.4909
      vertex -17.6067 -9 51.7424
    endloop
  endfacet
  facet normal 0 -1 2.22045e-016
    outer loop
      vertex 5.56231 -9 30.881
      vertex 1.41113 -9 34.574
      vertex 1.88151 -9 30.0986
    endloop
  endfacet
  facet normal 0 -1 2.22045e-016
    outer loop
      vertex 1.41113 -9 34.574
      vertex -1.41113 -9 34.574
      vertex 1.88151 -9 30.0986
    endloop
  endfacet
  facet normal 0 -1 2.22045e-016
    outer loop
      vertex 1.88151 -9 30.0986
      vertex -4.17173 -9 35.1607
      vertex -1.88151 -9 30.0986
    endloop
  endfacet
  facet normal 0 -1 2.22045e-016
    outer loop
      vertex -1.88151 -9 30.0986
      vertex -6.75 -9 36.3087
      vertex -5.56231 -9 30.881
    endloop
  endfacet
  facet normal 0 -1 2.22045e-016
    outer loop
      vertex -6.75 -9 36.3087
      vertex -9.03326 -9 37.9675
      vertex -5.56231 -9 30.881
    endloop
  endfacet
  facet normal 0 -1 2.22045e-016
    outer loop
      vertex -5.56231 -9 30.881
      vertex -10.9217 -9 40.0649
      vertex -9 -9 32.4115
    endloop
  endfacet
  facet normal 0 -1 2.22045e-016
    outer loop
      vertex -10.9217 -9 40.0649
      vertex -12.3329 -9 42.5091
      vertex -9 -9 32.4115
    endloop
  endfacet
  facet normal 0 -1 2.22045e-016
    outer loop
      vertex -12.3329 -9 42.5091
      vertex -13.205 -9 45.1932
      vertex -17.6067 -9 51.7424
    endloop
  endfacet
  facet normal 0 -1 2.22045e-016
    outer loop
      vertex 6.75 -9 59.6913
      vertex 9.03326 -9 58.0325
      vertex 12.0444 -9 61.3766
    endloop
  endfacet
  facet normal 0 -1 2.22045e-016
    outer loop
      vertex -9.03326 -9 58.0325
      vertex -17.6067 -9 51.7424
      vertex -10.9217 -9 55.9351
    endloop
  endfacet
  facet normal 0 -1 2.22045e-016
    outer loop
      vertex -3.5 -9 62.5
      vertex -17.6067 -9 51.7424
      vertex -9.03326 -9 58.0325
    endloop
  endfacet
  facet normal 0 -1 2.22045e-016
    outer loop
      vertex -3.5 -9 62.5
      vertex -9.03326 -9 58.0325
      vertex -6.75 -9 59.6913
    endloop
  endfacet
  facet normal 0 -1 2.22045e-016
    outer loop
      vertex -3.5 -9 62.5
      vertex -6.75 -9 59.6913
      vertex -4.17173 -9 60.8393
    endloop
  endfacet
  facet normal 0 -1 2.22045e-016
    outer loop
      vertex -10 -9 62.5
      vertex -17.6067 -9 51.7424
      vertex -3.5 -9 62.5
    endloop
  endfacet
  facet normal 0 -1 2.22045e-016
    outer loop
      vertex -10 -9 62.8619
      vertex -17.6067 -9 51.7424
      vertex -10 -9 62.5
    endloop
  endfacet
  facet normal 0 -1 2.22045e-016
    outer loop
      vertex -12.0444 -9 61.3766
      vertex -17.6067 -9 51.7424
      vertex -10 -9 62.8619
    endloop
  endfacet
  facet normal 0 -1 2.22045e-016
    outer loop
      vertex -14.5623 -9 58.5801
      vertex -17.6067 -9 51.7424
      vertex -12.0444 -9 61.3766
    endloop
  endfacet
  facet normal 0 -1 2.22045e-016
    outer loop
      vertex -16.4438 -9 55.3213
      vertex -17.6067 -9 51.7424
      vertex -14.5623 -9 58.5801
    endloop
  endfacet
  facet normal 0 -1 2.22045e-016
    outer loop
      vertex 13.5 -9 48
      vertex 13.205 -9 45.1932
      vertex 17.6067 -9 44.2576
    endloop
  endfacet
  facet normal 0 -1 2.22045e-016
    outer loop
      vertex 10 -9 62.5
      vertex 3.5 -9 60.982
      vertex 4.17173 -9 60.8393
    endloop
  endfacet
  facet normal 0 -1 2.22045e-016
    outer loop
      vertex 10 -9 62.5
      vertex 3.5 -9 62.5
      vertex 3.5 -9 60.982
    endloop
  endfacet
  facet normal 0 -1 2.22045e-016
    outer loop
      vertex -13.5 -9 48
      vertex -13.205 -9 50.8068
      vertex -17.6067 -9 51.7424
    endloop
  endfacet
  facet normal -0.994522 -2.321e-017 -0.104528
    outer loop
      vertex -18 -9 48
      vertex -18 9 48
      vertex -17.6067 -9 44.2576
    endloop
  endfacet
  facet normal -0.994522 -2.321e-017 -0.104528
    outer loop
      vertex -17.6067 -9 44.2576
      vertex -18 9 48
      vertex -17.6067 9 44.2576
    endloop
  endfacet
  facet normal -0.994522 2.321e-017 0.104528
    outer loop
      vertex -18 -9 48
      vertex -17.6067 -9 51.7424
      vertex -18 9 48
    endloop
  endfacet
  facet normal -0.994522 2.321e-017 0.104528
    outer loop
      vertex -18 9 48
      vertex -17.6067 -9 51.7424
      vertex -17.6067 9 51.7424
    endloop
  endfacet
  facet normal -0.951057 6.86156e-017 0.309017
    outer loop
      vertex -17.6067 -9 51.7424
      vertex -16.4438 -9 55.3213
      vertex -17.6067 9 51.7424
    endloop
  endfacet
  facet normal -0.951057 6.86156e-017 0.309017
    outer loop
      vertex -17.6067 9 51.7424
      vertex -16.4438 -9 55.3213
      vertex -16.4438 9 55.3213
    endloop
  endfacet
  facet normal -0.866025 1.11022e-016 0.5
    outer loop
      vertex -16.4438 -9 55.3213
      vertex -14.5623 -9 58.5801
      vertex -16.4438 9 55.3213
    endloop
  endfacet
  facet normal -0.866025 1.11022e-016 0.5
    outer loop
      vertex -16.4438 9 55.3213
      vertex -14.5623 -9 58.5801
      vertex -14.5623 9 58.5801
    endloop
  endfacet
  facet normal -0.743145 1.48577e-016 0.669131
    outer loop
      vertex -14.5623 -9 58.5801
      vertex -12.0444 -9 61.3766
      vertex -14.5623 9 58.5801
    endloop
  endfacet
  facet normal -0.743145 1.48577e-016 0.669131
    outer loop
      vertex -14.5623 9 58.5801
      vertex -12.0444 -9 61.3766
      vertex -12.0444 9 61.3766
    endloop
  endfacet
  facet normal -0.587785 1.79638e-016 0.809017
    outer loop
      vertex -12.0444 9 61.3766
      vertex -12.0444 -9 61.3766
      vertex -10 -9 62.8619
    endloop
  endfacet
  facet normal -0.587785 1.79638e-016 0.809017
    outer loop
      vertex -9 9 63.5885
      vertex -12.0444 9 61.3766
      vertex -10 9 62.8619
    endloop
  endfacet
  facet normal -0.587785 1.79638e-016 0.809017
    outer loop
      vertex -10 9 62.8619
      vertex -12.0444 9 61.3766
      vertex -10 -9 62.8619
    endloop
  endfacet
  facet normal -1 0 0
    outer loop
      vertex -10 -9 62.8619
      vertex -10 -9 77.5
      vertex -10 9 77.5
    endloop
  endfacet
  facet normal -1 0 0
    outer loop
      vertex -10 -9 62.5
      vertex -10 -9 77.5
      vertex -10 -9 62.8619
    endloop
  endfacet
  facet normal -1 0 0
    outer loop
      vertex -10 -9 62.8619
      vertex -10 9 77.5
      vertex -10 9 62.8619
    endloop
  endfacet
  facet normal 1 0 0
    outer loop
      vertex -3.5 -9 62.5
      vertex -3.5 -9 60.982
      vertex -3.5 9 60.982
    endloop
  endfacet
  facet normal 1 0 0
    outer loop
      vertex -3.5 9 65.5574
      vertex -3.5 -9 62.5
      vertex -3.5 9 60.982
    endloop
  endfacet
  facet normal 1 0 0
    outer loop
      vertex -3.5 9 77.5
      vertex -3.5 -9 62.5
      vertex -3.5 9 65.5574
    endloop
  endfacet
  facet normal 1 0 0
    outer loop
      vertex -3.5 -9 77.5
      vertex -3.5 -9 62.5
      vertex -3.5 9 77.5
    endloop
  endfacet
  facet normal 0.207912 -2.17192e-016 -0.978148
    outer loop
      vertex -3.5 9 60.982
      vertex -3.5 -9 60.982
      vertex -4.17173 9 60.8393
    endloop
  endfacet
  facet normal 0.207912 -2.17192e-016 -0.978148
    outer loop
      vertex -4.17173 9 60.8393
      vertex -3.5 -9 60.982
      vertex -4.17173 -9 60.8393
    endloop
  endfacet
  facet normal 0.406737 -2.02848e-016 -0.913545
    outer loop
      vertex -4.17173 9 60.8393
      vertex -4.17173 -9 60.8393
      vertex -6.75 9 59.6913
    endloop
  endfacet
  facet normal 0.406737 -2.02848e-016 -0.913545
    outer loop
      vertex -6.75 9 59.6913
      vertex -4.17173 -9 60.8393
      vertex -6.75 -9 59.6913
    endloop
  endfacet
  facet normal 0.587785 -1.79638e-016 -0.809017
    outer loop
      vertex -6.75 9 59.6913
      vertex -6.75 -9 59.6913
      vertex -9.03326 9 58.0325
    endloop
  endfacet
  facet normal 0.587785 -1.79638e-016 -0.809017
    outer loop
      vertex -9.03326 9 58.0325
      vertex -6.75 -9 59.6913
      vertex -9.03326 -9 58.0325
    endloop
  endfacet
  facet normal 0.743145 -1.48577e-016 -0.669131
    outer loop
      vertex -10.9217 9 55.9351
      vertex -9.03326 9 58.0325
      vertex -9.03326 -9 58.0325
    endloop
  endfacet
  facet normal 0.743145 -1.48577e-016 -0.669131
    outer loop
      vertex -10.9217 -9 55.9351
      vertex -10.9217 9 55.9351
      vertex -9.03326 -9 58.0325
    endloop
  endfacet
  facet normal 0.866025 -1.11022e-016 -0.5
    outer loop
      vertex -12.3329 9 53.4909
      vertex -10.9217 9 55.9351
      vertex -10.9217 -9 55.9351
    endloop
  endfacet
  facet normal 0.866025 -1.11022e-016 -0.5
    outer loop
      vertex -12.3329 -9 53.4909
      vertex -12.3329 9 53.4909
      vertex -10.9217 -9 55.9351
    endloop
  endfacet
  facet normal 0.951057 -6.86156e-017 -0.309017
    outer loop
      vertex -13.205 9 50.8068
      vertex -12.3329 9 53.4909
      vertex -12.3329 -9 53.4909
    endloop
  endfacet
  facet normal 0.951057 -6.86156e-017 -0.309017
    outer loop
      vertex -13.205 -9 50.8068
      vertex -13.205 9 50.8068
      vertex -12.3329 -9 53.4909
    endloop
  endfacet
  facet normal 0.994522 -2.32099e-017 -0.104528
    outer loop
      vertex -13.5 9 48
      vertex -13.205 9 50.8068
      vertex -13.205 -9 50.8068
    endloop
  endfacet
  facet normal 0.994522 -2.32099e-017 -0.104528
    outer loop
      vertex -13.5 -9 48
      vertex -13.5 9 48
      vertex -13.205 -9 50.8068
    endloop
  endfacet
  facet normal 0.994522 2.32099e-017 0.104528
    outer loop
      vertex -13.205 -9 45.1932
      vertex -13.205 9 45.1932
      vertex -13.5 9 48
    endloop
  endfacet
  facet normal 0.994522 2.32099e-017 0.104528
    outer loop
      vertex -13.5 -9 48
      vertex -13.205 -9 45.1932
      vertex -13.5 9 48
    endloop
  endfacet
  facet normal 0.951057 6.86156e-017 0.309017
    outer loop
      vertex -12.3329 -9 42.5091
      vertex -12.3329 9 42.5091
      vertex -13.205 9 45.1932
    endloop
  endfacet
  facet normal 0.951057 6.86156e-017 0.309017
    outer loop
      vertex -13.205 -9 45.1932
      vertex -12.3329 -9 42.5091
      vertex -13.205 9 45.1932
    endloop
  endfacet
  facet normal 0.866025 1.11022e-016 0.5
    outer loop
      vertex -10.9217 -9 40.0649
      vertex -10.9217 9 40.0649
      vertex -12.3329 9 42.5091
    endloop
  endfacet
  facet normal 0.866025 1.11022e-016 0.5
    outer loop
      vertex -12.3329 -9 42.5091
      vertex -10.9217 -9 40.0649
      vertex -12.3329 9 42.5091
    endloop
  endfacet
  facet normal 0.743145 1.48577e-016 0.669131
    outer loop
      vertex -9.03326 -9 37.9675
      vertex -9.03326 9 37.9675
      vertex -10.9217 9 40.0649
    endloop
  endfacet
  facet normal 0.743145 1.48577e-016 0.669131
    outer loop
      vertex -10.9217 -9 40.0649
      vertex -9.03326 -9 37.9675
      vertex -10.9217 9 40.0649
    endloop
  endfacet
  facet normal 0.587785 1.79638e-016 0.809017
    outer loop
      vertex -6.75 -9 36.3087
      vertex -6.75 9 36.3087
      vertex -9.03326 9 37.9675
    endloop
  endfacet
  facet normal 0.587785 1.79638e-016 0.809017
    outer loop
      vertex -9.03326 -9 37.9675
      vertex -6.75 -9 36.3087
      vertex -9.03326 9 37.9675
    endloop
  endfacet
  facet normal 0.406737 2.02848e-016 0.913545
    outer loop
      vertex -4.17173 -9 35.1607
      vertex -4.17173 9 35.1607
      vertex -6.75 9 36.3087
    endloop
  endfacet
  facet normal 0.406737 2.02848e-016 0.913545
    outer loop
      vertex -6.75 -9 36.3087
      vertex -4.17173 -9 35.1607
      vertex -6.75 9 36.3087
    endloop
  endfacet
  facet normal 0.207912 2.17192e-016 0.978148
    outer loop
      vertex -1.41113 -9 34.574
      vertex -1.41113 9 34.574
      vertex -4.17173 9 35.1607
    endloop
  endfacet
  facet normal 0.207912 2.17192e-016 0.978148
    outer loop
      vertex -4.17173 -9 35.1607
      vertex -1.41113 -9 34.574
      vertex -4.17173 9 35.1607
    endloop
  endfacet
  facet normal 0 2.22045e-016 1
    outer loop
      vertex 1.41113 -9 34.574
      vertex 1.41113 9 34.574
      vertex -1.41113 9 34.574
    endloop
  endfacet
  facet normal 0 2.22045e-016 1
    outer loop
      vertex -1.41113 -9 34.574
      vertex 1.41113 -9 34.574
      vertex -1.41113 9 34.574
    endloop
  endfacet
  facet normal -0.207912 2.17192e-016 0.978148
    outer loop
      vertex 4.17173 -9 35.1607
      vertex 4.17173 9 35.1607
      vertex 1.41113 9 34.574
    endloop
  endfacet
  facet normal -0.207912 2.17192e-016 0.978148
    outer loop
      vertex 1.41113 -9 34.574
      vertex 4.17173 -9 35.1607
      vertex 1.41113 9 34.574
    endloop
  endfacet
  facet normal -0.406737 2.02848e-016 0.913545
    outer loop
      vertex 6.75 -9 36.3087
      vertex 6.75 9 36.3087
      vertex 4.17173 9 35.1607
    endloop
  endfacet
  facet normal -0.406737 2.02848e-016 0.913545
    outer loop
      vertex 4.17173 -9 35.1607
      vertex 6.75 -9 36.3087
      vertex 4.17173 9 35.1607
    endloop
  endfacet
  facet normal -0.587785 1.79638e-016 0.809017
    outer loop
      vertex 9.03326 -9 37.9675
      vertex 9.03326 9 37.9675
      vertex 6.75 9 36.3087
    endloop
  endfacet
  facet normal -0.587785 1.79638e-016 0.809017
    outer loop
      vertex 6.75 -9 36.3087
      vertex 9.03326 -9 37.9675
      vertex 6.75 9 36.3087
    endloop
  endfacet
  facet normal -0.743145 1.48577e-016 0.669131
    outer loop
      vertex 10.9217 9 40.0649
      vertex 9.03326 9 37.9675
      vertex 10.9217 -9 40.0649
    endloop
  endfacet
  facet normal -0.743145 1.48577e-016 0.669131
    outer loop
      vertex 10.9217 -9 40.0649
      vertex 9.03326 9 37.9675
      vertex 9.03326 -9 37.9675
    endloop
  endfacet
  facet normal -0.866025 1.11022e-016 0.5
    outer loop
      vertex 12.3329 9 42.5091
      vertex 10.9217 9 40.0649
      vertex 12.3329 -9 42.5091
    endloop
  endfacet
  facet normal -0.866025 1.11022e-016 0.5
    outer loop
      vertex 12.3329 -9 42.5091
      vertex 10.9217 9 40.0649
      vertex 10.9217 -9 40.0649
    endloop
  endfacet
  facet normal -0.951057 6.86156e-017 0.309017
    outer loop
      vertex 13.205 9 45.1932
      vertex 12.3329 9 42.5091
      vertex 13.205 -9 45.1932
    endloop
  endfacet
  facet normal -0.951057 6.86156e-017 0.309017
    outer loop
      vertex 13.205 -9 45.1932
      vertex 12.3329 9 42.5091
      vertex 12.3329 -9 42.5091
    endloop
  endfacet
  facet normal -0.994522 2.32099e-017 0.104528
    outer loop
      vertex 13.5 9 48
      vertex 13.205 9 45.1932
      vertex 13.5 -9 48
    endloop
  endfacet
  facet normal -0.994522 2.32099e-017 0.104528
    outer loop
      vertex 13.5 -9 48
      vertex 13.205 9 45.1932
      vertex 13.205 -9 45.1932
    endloop
  endfacet
  facet normal -0.994522 -2.32099e-017 -0.104528
    outer loop
      vertex 13.5 9 48
      vertex 13.5 -9 48
      vertex 13.205 9 50.8068
    endloop
  endfacet
  facet normal -0.994522 -2.32099e-017 -0.104528
    outer loop
      vertex 13.205 9 50.8068
      vertex 13.5 -9 48
      vertex 13.205 -9 50.8068
    endloop
  endfacet
  facet normal -0.951057 -6.86156e-017 -0.309017
    outer loop
      vertex 13.205 9 50.8068
      vertex 13.205 -9 50.8068
      vertex 12.3329 9 53.4909
    endloop
  endfacet
  facet normal -0.951057 -6.86156e-017 -0.309017
    outer loop
      vertex 12.3329 9 53.4909
      vertex 13.205 -9 50.8068
      vertex 12.3329 -9 53.4909
    endloop
  endfacet
  facet normal -0.866025 -1.11022e-016 -0.5
    outer loop
      vertex 12.3329 9 53.4909
      vertex 12.3329 -9 53.4909
      vertex 10.9217 9 55.9351
    endloop
  endfacet
  facet normal -0.866025 -1.11022e-016 -0.5
    outer loop
      vertex 10.9217 9 55.9351
      vertex 12.3329 -9 53.4909
      vertex 10.9217 -9 55.9351
    endloop
  endfacet
  facet normal -0.743145 -1.48577e-016 -0.669131
    outer loop
      vertex 10.9217 9 55.9351
      vertex 10.9217 -9 55.9351
      vertex 9.03326 9 58.0325
    endloop
  endfacet
  facet normal -0.743145 -1.48577e-016 -0.669131
    outer loop
      vertex 9.03326 9 58.0325
      vertex 10.9217 -9 55.9351
      vertex 9.03326 -9 58.0325
    endloop
  endfacet
  facet normal -0.587785 -1.79638e-016 -0.809017
    outer loop
      vertex 9.03326 9 58.0325
      vertex 9.03326 -9 58.0325
      vertex 6.75 9 59.6913
    endloop
  endfacet
  facet normal -0.587785 -1.79638e-016 -0.809017
    outer loop
      vertex 6.75 9 59.6913
      vertex 9.03326 -9 58.0325
      vertex 6.75 -9 59.6913
    endloop
  endfacet
  facet normal -0.406737 -2.02848e-016 -0.913545
    outer loop
      vertex 6.75 9 59.6913
      vertex 6.75 -9 59.6913
      vertex 4.17173 9 60.8393
    endloop
  endfacet
  facet normal -0.406737 -2.02848e-016 -0.913545
    outer loop
      vertex 4.17173 9 60.8393
      vertex 6.75 -9 59.6913
      vertex 4.17173 -9 60.8393
    endloop
  endfacet
  facet normal -0.207912 -2.17192e-016 -0.978148
    outer loop
      vertex 4.17173 9 60.8393
      vertex 4.17173 -9 60.8393
      vertex 3.5 9 60.982
    endloop
  endfacet
  facet normal -0.207912 -2.17192e-016 -0.978148
    outer loop
      vertex 3.5 9 60.982
      vertex 4.17173 -9 60.8393
      vertex 3.5 -9 60.982
    endloop
  endfacet
  facet normal -1 0 0
    outer loop
      vertex 3.5 9 77.5
      vertex 3.5 9 65.5574
      vertex 3.5 -9 77.5
    endloop
  endfacet
  facet normal -1 0 0
    outer loop
      vertex 3.5 -9 77.5
      vertex 3.5 9 65.5574
      vertex 3.5 9 60.982
    endloop
  endfacet
  facet normal -1 0 0
    outer loop
      vertex 3.5 -9 62.5
      vertex 3.5 9 60.982
      vertex 3.5 -9 60.982
    endloop
  endfacet
  facet normal -1 0 0
    outer loop
      vertex 3.5 -9 77.5
      vertex 3.5 9 60.982
      vertex 3.5 -9 62.5
    endloop
  endfacet
  facet normal 1 0 0
    outer loop
      vertex 10 9 62.8619
      vertex 10 -9 77.5
      vertex 10 -9 62.8619
    endloop
  endfacet
  facet normal 1 0 0
    outer loop
      vertex 10 -9 62.8619
      vertex 10 -9 77.5
      vertex 10 -9 62.5
    endloop
  endfacet
  facet normal 1 0 0
    outer loop
      vertex 10 9 77.5
      vertex 10 -9 77.5
      vertex 10 9 62.8619
    endloop
  endfacet
  facet normal 0.587785 1.79638e-016 0.809017
    outer loop
      vertex 12.0444 9 61.3766
      vertex 9 9 63.5885
      vertex 10 9 62.8619
    endloop
  endfacet
  facet normal 0.587785 1.79638e-016 0.809017
    outer loop
      vertex 10 -9 62.8619
      vertex 12.0444 -9 61.3766
      vertex 10 9 62.8619
    endloop
  endfacet
  facet normal 0.587785 1.79638e-016 0.809017
    outer loop
      vertex 12.0444 -9 61.3766
      vertex 12.0444 9 61.3766
      vertex 10 9 62.8619
    endloop
  endfacet
  facet normal 0.743145 1.48577e-016 0.669131
    outer loop
      vertex 12.0444 9 61.3766
      vertex 12.0444 -9 61.3766
      vertex 14.5623 -9 58.5801
    endloop
  endfacet
  facet normal 0.743145 1.48577e-016 0.669131
    outer loop
      vertex 14.5623 9 58.5801
      vertex 12.0444 9 61.3766
      vertex 14.5623 -9 58.5801
    endloop
  endfacet
  facet normal 0.866025 1.11022e-016 0.5
    outer loop
      vertex 14.5623 9 58.5801
      vertex 14.5623 -9 58.5801
      vertex 16.4438 -9 55.3213
    endloop
  endfacet
  facet normal 0.866025 1.11022e-016 0.5
    outer loop
      vertex 16.4438 9 55.3213
      vertex 14.5623 9 58.5801
      vertex 16.4438 -9 55.3213
    endloop
  endfacet
  facet normal 0.951057 6.86156e-017 0.309017
    outer loop
      vertex 16.4438 9 55.3213
      vertex 16.4438 -9 55.3213
      vertex 17.6067 -9 51.7424
    endloop
  endfacet
  facet normal 0.951057 6.86156e-017 0.309017
    outer loop
      vertex 17.6067 9 51.7424
      vertex 16.4438 9 55.3213
      vertex 17.6067 -9 51.7424
    endloop
  endfacet
  facet normal 0.994522 2.321e-017 0.104528
    outer loop
      vertex 17.6067 9 51.7424
      vertex 17.6067 -9 51.7424
      vertex 18 -9 48
    endloop
  endfacet
  facet normal 0.994522 2.321e-017 0.104528
    outer loop
      vertex 18 9 48
      vertex 17.6067 9 51.7424
      vertex 18 -9 48
    endloop
  endfacet
  facet normal 0.994522 -2.321e-017 -0.104528
    outer loop
      vertex 18 -9 48
      vertex 17.6067 -9 44.2576
      vertex 17.6067 9 44.2576
    endloop
  endfacet
  facet normal 0.994522 -2.321e-017 -0.104528
    outer loop
      vertex 18 9 48
      vertex 18 -9 48
      vertex 17.6067 9 44.2576
    endloop
  endfacet
  facet normal 0.951057 -6.86156e-017 -0.309017
    outer loop
      vertex 17.6067 -9 44.2576
      vertex 16.4438 -9 40.6787
      vertex 16.4438 9 40.6787
    endloop
  endfacet
  facet normal 0.951057 -6.86156e-017 -0.309017
    outer loop
      vertex 17.6067 9 44.2576
      vertex 17.6067 -9 44.2576
      vertex 16.4438 9 40.6787
    endloop
  endfacet
  facet normal 0.866025 -1.11022e-016 -0.5
    outer loop
      vertex 16.4438 -9 40.6787
      vertex 14.5623 -9 37.4199
      vertex 14.5623 9 37.4199
    endloop
  endfacet
  facet normal 0.866025 -1.11022e-016 -0.5
    outer loop
      vertex 16.4438 9 40.6787
      vertex 16.4438 -9 40.6787
      vertex 14.5623 9 37.4199
    endloop
  endfacet
  facet normal 0.743145 -1.48577e-016 -0.669131
    outer loop
      vertex 14.5623 -9 37.4199
      vertex 12.0444 -9 34.6234
      vertex 12.0444 9 34.6234
    endloop
  endfacet
  facet normal 0.743145 -1.48577e-016 -0.669131
    outer loop
      vertex 14.5623 9 37.4199
      vertex 14.5623 -9 37.4199
      vertex 12.0444 9 34.6234
    endloop
  endfacet
  facet normal 0.587785 -1.79638e-016 -0.809017
    outer loop
      vertex 9 -9 32.4115
      vertex 9 -1.73205 32.4115
      vertex 12.0444 -9 34.6234
    endloop
  endfacet
  facet normal 0.587785 -1.79638e-016 -0.809017
    outer loop
      vertex 12.0444 -9 34.6234
      vertex 9 -1.73205 32.4115
      vertex 10 0 33.1381
    endloop
  endfacet
  facet normal 0.587785 -1.79638e-016 -0.809017
    outer loop
      vertex 10 0 33.1381
      vertex 9 1.73205 32.4115
      vertex 9 9 32.4115
    endloop
  endfacet
  facet normal 0.587785 -1.79638e-016 -0.809017
    outer loop
      vertex 10 0 33.1381
      vertex 9 9 32.4115
      vertex 12.0444 -9 34.6234
    endloop
  endfacet
  facet normal 0.587785 -1.79638e-016 -0.809017
    outer loop
      vertex 12.0444 -9 34.6234
      vertex 9 9 32.4115
      vertex 12.0444 9 34.6234
    endloop
  endfacet
  facet normal 0.406737 -2.02848e-016 -0.913545
    outer loop
      vertex 5.56231 -9 30.881
      vertex 5.56231 -7.68631 30.881
      vertex 9 -9 32.4115
    endloop
  endfacet
  facet normal 0.406737 -2.02848e-016 -0.913545
    outer loop
      vertex 9 -9 32.4115
      vertex 5.56231 -7.68631 30.881
      vertex 9 -1.73205 32.4115
    endloop
  endfacet
  facet normal 0.207912 -2.17192e-016 -0.978148
    outer loop
      vertex 1.88151 -9 30.0986
      vertex 1.88151 -8.66025 30.0986
      vertex 5.56231 -9 30.881
    endloop
  endfacet
  facet normal 0.207912 -2.17192e-016 -0.978148
    outer loop
      vertex 5.56231 -9 30.881
      vertex 1.88151 -8.66025 30.0986
      vertex 5 -8.66025 30.7615
    endloop
  endfacet
  facet normal 0.207912 -2.17192e-016 -0.978148
    outer loop
      vertex 5.56231 -9 30.881
      vertex 5 -8.66025 30.7615
      vertex 5.56231 -7.68631 30.881
    endloop
  endfacet
  facet normal 0 -2.22045e-016 -1
    outer loop
      vertex -1.88151 -9 30.0986
      vertex -1.88151 -8.66025 30.0986
      vertex 1.88151 -9 30.0986
    endloop
  endfacet
  facet normal 0 -2.22045e-016 -1
    outer loop
      vertex 1.88151 -9 30.0986
      vertex -1.88151 -8.66025 30.0986
      vertex 1.88151 -8.66025 30.0986
    endloop
  endfacet
  facet normal -0.207912 -2.17192e-016 -0.978148
    outer loop
      vertex -5.56231 -9 30.881
      vertex -5 -8.66025 30.7615
      vertex -1.88151 -9 30.0986
    endloop
  endfacet
  facet normal -0.207912 -2.17192e-016 -0.978148
    outer loop
      vertex -5.56231 -9 30.881
      vertex -5.56231 -7.68631 30.881
      vertex -5 -8.66025 30.7615
    endloop
  endfacet
  facet normal -0.207912 -2.17192e-016 -0.978148
    outer loop
      vertex -1.88151 -8.66025 30.0986
      vertex -1.88151 -9 30.0986
      vertex -5 -8.66025 30.7615
    endloop
  endfacet
  facet normal -0.406737 -2.02848e-016 -0.913545
    outer loop
      vertex -9 -9 32.4115
      vertex -9 -1.73205 32.4115
      vertex -5.56231 -9 30.881
    endloop
  endfacet
  facet normal -0.406737 -2.02848e-016 -0.913545
    outer loop
      vertex -5.56231 -9 30.881
      vertex -9 -1.73205 32.4115
      vertex -5.56231 -7.68631 30.881
    endloop
  endfacet
  facet normal -0.587785 -1.79638e-016 -0.809017
    outer loop
      vertex -12.0444 -9 34.6234
      vertex -12.0444 9 34.6234
      vertex -9 -9 32.4115
    endloop
  endfacet
  facet normal -0.587785 -1.79638e-016 -0.809017
    outer loop
      vertex -9 1.73205 32.4115
      vertex -12.0444 9 34.6234
      vertex -9 9 32.4115
    endloop
  endfacet
  facet normal -0.587785 -1.79638e-016 -0.809017
    outer loop
      vertex -10 0 33.1381
      vertex -12.0444 9 34.6234
      vertex -9 1.73205 32.4115
    endloop
  endfacet
  facet normal -0.587785 -1.79638e-016 -0.809017
    outer loop
      vertex -9 -9 32.4115
      vertex -12.0444 9 34.6234
      vertex -10 0 33.1381
    endloop
  endfacet
  facet normal -0.587785 -1.79638e-016 -0.809017
    outer loop
      vertex -9 -9 32.4115
      vertex -10 0 33.1381
      vertex -9 -1.73205 32.4115
    endloop
  endfacet
  facet normal -0.743145 -1.48577e-016 -0.669131
    outer loop
      vertex -14.5623 -9 37.4199
      vertex -14.5623 9 37.4199
      vertex -12.0444 -9 34.6234
    endloop
  endfacet
  facet normal -0.743145 -1.48577e-016 -0.669131
    outer loop
      vertex -12.0444 -9 34.6234
      vertex -14.5623 9 37.4199
      vertex -12.0444 9 34.6234
    endloop
  endfacet
  facet normal -0.866025 -1.11022e-016 -0.5
    outer loop
      vertex -16.4438 -9 40.6787
      vertex -16.4438 9 40.6787
      vertex -14.5623 -9 37.4199
    endloop
  endfacet
  facet normal -0.866025 -1.11022e-016 -0.5
    outer loop
      vertex -14.5623 -9 37.4199
      vertex -16.4438 9 40.6787
      vertex -14.5623 9 37.4199
    endloop
  endfacet
  facet normal -0.951057 -6.86156e-017 -0.309017
    outer loop
      vertex -17.6067 -9 44.2576
      vertex -17.6067 9 44.2576
      vertex -16.4438 -9 40.6787
    endloop
  endfacet
  facet normal -0.951057 -6.86156e-017 -0.309017
    outer loop
      vertex -16.4438 -9 40.6787
      vertex -17.6067 9 44.2576
      vertex -16.4438 9 40.6787
    endloop
  endfacet
  facet normal 0 1 -2.22045e-016
    outer loop
      vertex -18 9 48
      vertex -17.6067 9 51.7424
      vertex -17.6067 9 44.2576
    endloop
  endfacet
  facet normal 0 1 -2.22045e-016
    outer loop
      vertex -17.6067 9 44.2576
      vertex -17.6067 9 51.7424
      vertex -16.4438 9 55.3213
    endloop
  endfacet
  facet normal 0 1 -2.22045e-016
    outer loop
      vertex -17.6067 9 44.2576
      vertex -16.4438 9 55.3213
      vertex -14.5623 9 58.5801
    endloop
  endfacet
  facet normal 0 1 -2.22045e-016
    outer loop
      vertex -17.6067 9 44.2576
      vertex -14.5623 9 58.5801
      vertex -12.0444 9 61.3766
    endloop
  endfacet
  facet normal 0 1 -2.22045e-016
    outer loop
      vertex -17.6067 9 44.2576
      vertex -12.0444 9 61.3766
      vertex -9 9 63.5885
    endloop
  endfacet
  facet normal 0 1 -2.22045e-016
    outer loop
      vertex -10.9217 9 55.9351
      vertex -9 9 63.5885
      vertex -5.56231 9 65.119
    endloop
  endfacet
  facet normal 0 1 -2.22045e-016
    outer loop
      vertex -9.03326 9 58.0325
      vertex -5.56231 9 65.119
      vertex -3.5 9 65.5574
    endloop
  endfacet
  facet normal 0 1 -2.22045e-016
    outer loop
      vertex -4.17173 9 60.8393
      vertex -3.5 9 65.5574
      vertex -3.5 9 60.982
    endloop
  endfacet
  facet normal 0 1 -2.22045e-016
    outer loop
      vertex -6.75 9 59.6913
      vertex -3.5 9 65.5574
      vertex -4.17173 9 60.8393
    endloop
  endfacet
  facet normal 0 1 -2.22045e-016
    outer loop
      vertex -10.9217 9 55.9351
      vertex -5.56231 9 65.119
      vertex -9.03326 9 58.0325
    endloop
  endfacet
  facet normal 0 1 -2.22045e-016
    outer loop
      vertex -12.3329 9 53.4909
      vertex -9 9 63.5885
      vertex -10.9217 9 55.9351
    endloop
  endfacet
  facet normal 0 1 -2.22045e-016
    outer loop
      vertex -13.205 9 50.8068
      vertex -17.6067 9 44.2576
      vertex -12.3329 9 53.4909
    endloop
  endfacet
  facet normal 0 1 -2.22045e-016
    outer loop
      vertex -17.6067 9 44.2576
      vertex -9 9 63.5885
      vertex -12.3329 9 53.4909
    endloop
  endfacet
  facet normal 0 1 -2.22045e-016
    outer loop
      vertex -17.6067 9 44.2576
      vertex -13.5 9 48
      vertex -13.205 9 45.1932
    endloop
  endfacet
  facet normal 0 1 -2.22045e-016
    outer loop
      vertex -13.205 9 45.1932
      vertex -12.3329 9 42.5091
      vertex -17.6067 9 44.2576
    endloop
  endfacet
  facet normal 0 1 -2.22045e-016
    outer loop
      vertex -12.3329 9 42.5091
      vertex -10.9217 9 40.0649
      vertex -17.6067 9 44.2576
    endloop
  endfacet
  facet normal 0 1 -2.22045e-016
    outer loop
      vertex -10.9217 9 40.0649
      vertex -9.03326 9 37.9675
      vertex -17.6067 9 44.2576
    endloop
  endfacet
  facet normal 0 1 -2.22045e-016
    outer loop
      vertex -9.03326 9 37.9675
      vertex -1.88151 9 30.0986
      vertex -17.6067 9 44.2576
    endloop
  endfacet
  facet normal 0 1 -2.22045e-016
    outer loop
      vertex 3.5 9 65.5574
      vertex 6.75 9 59.6913
      vertex 4.17173 9 60.8393
    endloop
  endfacet
  facet normal 0 1 -2.22045e-016
    outer loop
      vertex 3.5 9 65.5574
      vertex 4.17173 9 60.8393
      vertex 3.5 9 60.982
    endloop
  endfacet
  facet normal 0 1 -2.22045e-016
    outer loop
      vertex 9.03326 9 58.0325
      vertex 6.75 9 59.6913
      vertex 3.5 9 65.5574
    endloop
  endfacet
  facet normal 0 1 -2.22045e-016
    outer loop
      vertex 9.03326 9 58.0325
      vertex 3.5 9 65.5574
      vertex 10.9217 9 55.9351
    endloop
  endfacet
  facet normal 0 1 -2.22045e-016
    outer loop
      vertex 10.9217 9 55.9351
      vertex 3.5 9 65.5574
      vertex 5.56231 9 65.119
    endloop
  endfacet
  facet normal 0 1 -2.22045e-016
    outer loop
      vertex 10.9217 9 55.9351
      vertex 5.56231 9 65.119
      vertex 9 9 63.5885
    endloop
  endfacet
  facet normal 0 1 -2.22045e-016
    outer loop
      vertex 10.9217 9 55.9351
      vertex 9 9 63.5885
      vertex 12.3329 9 53.4909
    endloop
  endfacet
  facet normal 0 1 -2.22045e-016
    outer loop
      vertex 12.3329 9 53.4909
      vertex 9 9 63.5885
      vertex 12.0444 9 61.3766
    endloop
  endfacet
  facet normal 0 1 -2.22045e-016
    outer loop
      vertex 12.3329 9 53.4909
      vertex 12.0444 9 61.3766
      vertex 13.205 9 50.8068
    endloop
  endfacet
  facet normal 0 1 -2.22045e-016
    outer loop
      vertex 13.205 9 50.8068
      vertex 12.0444 9 61.3766
      vertex 14.5623 9 58.5801
    endloop
  endfacet
  facet normal 0 1 -2.22045e-016
    outer loop
      vertex 13.205 9 50.8068
      vertex 14.5623 9 58.5801
      vertex 13.5 9 48
    endloop
  endfacet
  facet normal 0 1 -2.22045e-016
    outer loop
      vertex 13.5 9 48
      vertex 14.5623 9 58.5801
      vertex 16.4438 9 55.3213
    endloop
  endfacet
  facet normal 0 1 -2.22045e-016
    outer loop
      vertex 13.5 9 48
      vertex 16.4438 9 55.3213
      vertex 13.205 9 45.1932
    endloop
  endfacet
  facet normal 0 1 -2.22045e-016
    outer loop
      vertex 13.205 9 45.1932
      vertex 16.4438 9 55.3213
      vertex 17.6067 9 51.7424
    endloop
  endfacet
  facet normal 0 1 -2.22045e-016
    outer loop
      vertex 13.205 9 45.1932
      vertex 17.6067 9 51.7424
      vertex 12.3329 9 42.5091
    endloop
  endfacet
  facet normal 0 1 -2.22045e-016
    outer loop
      vertex 12.3329 9 42.5091
      vertex 17.6067 9 51.7424
      vertex 18 9 48
    endloop
  endfacet
  facet normal 0 1 -2.22045e-016
    outer loop
      vertex 12.3329 9 42.5091
      vertex 18 9 48
      vertex 10.9217 9 40.0649
    endloop
  endfacet
  facet normal 0 1 -2.22045e-016
    outer loop
      vertex 10.9217 9 40.0649
      vertex 18 9 48
      vertex 17.6067 9 44.2576
    endloop
  endfacet
  facet normal 0 1 -2.22045e-016
    outer loop
      vertex 10.9217 9 40.0649
      vertex 17.6067 9 44.2576
      vertex 9.03326 9 37.9675
    endloop
  endfacet
  facet normal 0 1 -2.22045e-016
    outer loop
      vertex 9.03326 9 37.9675
      vertex 17.6067 9 44.2576
      vertex 16.4438 9 40.6787
    endloop
  endfacet
  facet normal 0 1 -2.22045e-016
    outer loop
      vertex 9.03326 9 37.9675
      vertex 16.4438 9 40.6787
      vertex 6.75 9 36.3087
    endloop
  endfacet
  facet normal 0 1 -2.22045e-016
    outer loop
      vertex 6.75 9 36.3087
      vertex 16.4438 9 40.6787
      vertex 14.5623 9 37.4199
    endloop
  endfacet
  facet normal 0 1 -2.22045e-016
    outer loop
      vertex 6.75 9 36.3087
      vertex 14.5623 9 37.4199
      vertex 4.17173 9 35.1607
    endloop
  endfacet
  facet normal 0 1 -2.22045e-016
    outer loop
      vertex 4.17173 9 35.1607
      vertex 14.5623 9 37.4199
      vertex 12.0444 9 34.6234
    endloop
  endfacet
  facet normal 0 1 -2.22045e-016
    outer loop
      vertex 4.17173 9 35.1607
      vertex 12.0444 9 34.6234
      vertex 1.41113 9 34.574
    endloop
  endfacet
  facet normal 0 1 -2.22045e-016
    outer loop
      vertex 1.41113 9 34.574
      vertex 12.0444 9 34.6234
      vertex 9 9 32.4115
    endloop
  endfacet
  facet normal 0 1 -2.22045e-016
    outer loop
      vertex 1.41113 9 34.574
      vertex 9 9 32.4115
      vertex -1.41113 9 34.574
    endloop
  endfacet
  facet normal 0 1 -2.22045e-016
    outer loop
      vertex -1.41113 9 34.574
      vertex 9 9 32.4115
      vertex 5.56231 9 30.881
    endloop
  endfacet
  facet normal 0 1 -2.22045e-016
    outer loop
      vertex -1.41113 9 34.574
      vertex 5.56231 9 30.881
      vertex -4.17173 9 35.1607
    endloop
  endfacet
  facet normal 0 1 -2.22045e-016
    outer loop
      vertex -4.17173 9 35.1607
      vertex 5.56231 9 30.881
      vertex 1.88151 9 30.0986
    endloop
  endfacet
  facet normal 0 1 -2.22045e-016
    outer loop
      vertex -4.17173 9 35.1607
      vertex 1.88151 9 30.0986
      vertex -6.75 9 36.3087
    endloop
  endfacet
  facet normal 0 1 -2.22045e-016
    outer loop
      vertex -6.75 9 36.3087
      vertex 1.88151 9 30.0986
      vertex -1.88151 9 30.0986
    endloop
  endfacet
  facet normal 0 1 -2.22045e-016
    outer loop
      vertex -6.75 9 36.3087
      vertex -1.88151 9 30.0986
      vertex -9.03326 9 37.9675
    endloop
  endfacet
  facet normal 0 1 -2.22045e-016
    outer loop
      vertex -17.6067 9 44.2576
      vertex -1.88151 9 30.0986
      vertex -5.56231 9 30.881
    endloop
  endfacet
  facet normal 0 1 -2.22045e-016
    outer loop
      vertex -17.6067 9 44.2576
      vertex -5.56231 9 30.881
      vertex -9 9 32.4115
    endloop
  endfacet
  facet normal 0 1 -2.22045e-016
    outer loop
      vertex -17.6067 9 44.2576
      vertex -9 9 32.4115
      vertex -12.0444 9 34.6234
    endloop
  endfacet
  facet normal 0 1 -2.22045e-016
    outer loop
      vertex -17.6067 9 44.2576
      vertex -12.0444 9 34.6234
      vertex -14.5623 9 37.4199
    endloop
  endfacet
  facet normal 0 1 -2.22045e-016
    outer loop
      vertex -17.6067 9 44.2576
      vertex -14.5623 9 37.4199
      vertex -16.4438 9 40.6787
    endloop
  endfacet
  facet normal 0 1 -2.22045e-016
    outer loop
      vertex -9.03326 9 58.0325
      vertex -3.5 9 65.5574
      vertex -6.75 9 59.6913
    endloop
  endfacet
  facet normal 0 1 -2.22045e-016
    outer loop
      vertex -13.5 9 48
      vertex -17.6067 9 44.2576
      vertex -13.205 9 50.8068
    endloop
  endfacet
  facet normal 0 1 -2.22045e-016
    outer loop
      vertex -10 9 62.8619
      vertex -10 9 77.5
      vertex -9 9 63.5885
    endloop
  endfacet
  facet normal 0 1 -2.22045e-016
    outer loop
      vertex -9 9 63.5885
      vertex -10 9 77.5
      vertex -3.5 9 77.5
    endloop
  endfacet
  facet normal 0 1 -2.22045e-016
    outer loop
      vertex -5.56231 9 65.119
      vertex -3.5 9 77.5
      vertex -3.5 9 65.5574
    endloop
  endfacet
  facet normal 0 1 -2.22045e-016
    outer loop
      vertex -9 9 63.5885
      vertex -3.5 9 77.5
      vertex -5.56231 9 65.119
    endloop
  endfacet
  facet normal 0 2.22045e-016 1
    outer loop
      vertex -10 9 77.5
      vertex -10 -9 77.5
      vertex -3.5 -9 77.5
    endloop
  endfacet
  facet normal 0 2.22045e-016 1
    outer loop
      vertex -3.5 9 77.5
      vertex -10 9 77.5
      vertex -3.5 -9 77.5
    endloop
  endfacet
  facet normal 0 -1 2.22045e-016
    outer loop
      vertex -10 -9 77.5
      vertex -10 -9 62.5
      vertex -3.5 -9 62.5
    endloop
  endfacet
  facet normal 0 -1 2.22045e-016
    outer loop
      vertex -3.5 -9 77.5
      vertex -10 -9 77.5
      vertex -3.5 -9 62.5
    endloop
  endfacet
  facet normal 0 2.22045e-016 1
    outer loop
      vertex 3.5 9 77.5
      vertex 3.5 -9 77.5
      vertex 10 -9 77.5
    endloop
  endfacet
  facet normal 0 2.22045e-016 1
    outer loop
      vertex 10 9 77.5
      vertex 3.5 9 77.5
      vertex 10 -9 77.5
    endloop
  endfacet
  facet normal 0 -1 2.22045e-016
    outer loop
      vertex 3.5 -9 77.5
      vertex 3.5 -9 62.5
      vertex 10 -9 62.5
    endloop
  endfacet
  facet normal 0 -1 2.22045e-016
    outer loop
      vertex 10 -9 77.5
      vertex 3.5 -9 77.5
      vertex 10 -9 62.5
    endloop
  endfacet
  facet normal 0 1 -2.22045e-016
    outer loop
      vertex 3.5 9 65.5574
      vertex 3.5 9 77.5
      vertex 5.56231 9 65.119
    endloop
  endfacet
  facet normal 0 1 -2.22045e-016
    outer loop
      vertex 5.56231 9 65.119
      vertex 3.5 9 77.5
      vertex 10 9 77.5
    endloop
  endfacet
  facet normal 0 1 -2.22045e-016
    outer loop
      vertex 9 9 63.5885
      vertex 10 9 77.5
      vertex 10 9 62.8619
    endloop
  endfacet
  facet normal 0 1 -2.22045e-016
    outer loop
      vertex 5.56231 9 65.119
      vertex 10 9 77.5
      vertex 9 9 63.5885
    endloop
  endfacet
  facet normal 0.406737 -2.02848e-016 -0.913545
    outer loop
      vertex 5.56231 7.68631 30.881
      vertex 5.56231 9 30.881
      vertex 9 1.73205 32.4115
    endloop
  endfacet
  facet normal 0.406737 -2.02848e-016 -0.913545
    outer loop
      vertex 9 1.73205 32.4115
      vertex 5.56231 9 30.881
      vertex 9 9 32.4115
    endloop
  endfacet
  facet normal 0.866025 0.5 0
    outer loop
      vertex 10 0 0
      vertex 5 8.66025 0
      vertex 5 8.66025 30.7615
    endloop
  endfacet
  facet normal 0.866025 0.5 0
    outer loop
      vertex 9 1.73205 32.4115
      vertex 10 0 0
      vertex 5.56231 7.68631 30.881
    endloop
  endfacet
  facet normal 0.866025 0.5 0
    outer loop
      vertex 5.56231 7.68631 30.881
      vertex 10 0 0
      vertex 5 8.66025 30.7615
    endloop
  endfacet
  facet normal 0.866025 0.5 0
    outer loop
      vertex 10 0 33.1381
      vertex 10 0 0
      vertex 9 1.73205 32.4115
    endloop
  endfacet
  facet normal 0.866025 -0.5 0
    outer loop
      vertex 5 -8.66025 30.7615
      vertex 5 -8.66025 0
      vertex 10 0 0
    endloop
  endfacet
  facet normal 0.866025 -0.5 0
    outer loop
      vertex 5.56231 -7.68631 30.881
      vertex 5 -8.66025 30.7615
      vertex 10 0 0
    endloop
  endfacet
  facet normal 0.866025 -0.5 0
    outer loop
      vertex 10 0 33.1381
      vertex 9 -1.73205 32.4115
      vertex 10 0 0
    endloop
  endfacet
  facet normal 0.866025 -0.5 0
    outer loop
      vertex 9 -1.73205 32.4115
      vertex 5.56231 -7.68631 30.881
      vertex 10 0 0
    endloop
  endfacet
  facet normal 0 -1 0
    outer loop
      vertex -5 -8.66025 30.7615
      vertex -5 -8.66025 0
      vertex 5 -8.66025 0
    endloop
  endfacet
  facet normal 0 -1 0
    outer loop
      vertex -1.88151 -8.66025 30.0986
      vertex -5 -8.66025 30.7615
      vertex 5 -8.66025 0
    endloop
  endfacet
  facet normal 0 -1 0
    outer loop
      vertex 5 -8.66025 30.7615
      vertex 1.88151 -8.66025 30.0986
      vertex 5 -8.66025 0
    endloop
  endfacet
  facet normal 0 -1 0
    outer loop
      vertex 1.88151 -8.66025 30.0986
      vertex -1.88151 -8.66025 30.0986
      vertex 5 -8.66025 0
    endloop
  endfacet
  facet normal -0.866025 -0.5 0
    outer loop
      vertex -10 0 0
      vertex -5 -8.66025 0
      vertex -10 0 33.1381
    endloop
  endfacet
  facet normal -0.866025 -0.5 0
    outer loop
      vertex -5.56231 -7.68631 30.881
      vertex -5 -8.66025 0
      vertex -5 -8.66025 30.7615
    endloop
  endfacet
  facet normal -0.866025 -0.5 0
    outer loop
      vertex -9 -1.73205 32.4115
      vertex -5 -8.66025 0
      vertex -5.56231 -7.68631 30.881
    endloop
  endfacet
  facet normal -0.866025 -0.5 0
    outer loop
      vertex -10 0 33.1381
      vertex -5 -8.66025 0
      vertex -9 -1.73205 32.4115
    endloop
  endfacet
  facet normal -0.866025 0.5 0
    outer loop
      vertex -10 0 0
      vertex -10 0 33.1381
      vertex -5 8.66025 0
    endloop
  endfacet
  facet normal -0.866025 0.5 0
    outer loop
      vertex -5 8.66025 0
      vertex -10 0 33.1381
      vertex -9 1.73205 32.4115
    endloop
  endfacet
  facet normal -0.866025 0.5 0
    outer loop
      vertex -5 8.66025 0
      vertex -9 1.73205 32.4115
      vertex -5.56231 7.68631 30.881
    endloop
  endfacet
  facet normal -0.866025 0.5 0
    outer loop
      vertex -5.56231 7.68631 30.881
      vertex -5 8.66025 30.7615
      vertex -5 8.66025 0
    endloop
  endfacet
  facet normal -0.406737 -2.02848e-016 -0.913545
    outer loop
      vertex -9 1.73205 32.4115
      vertex -9 9 32.4115
      vertex -5.56231 7.68631 30.881
    endloop
  endfacet
  facet normal -0.406737 -2.02848e-016 -0.913545
    outer loop
      vertex -5.56231 7.68631 30.881
      vertex -9 9 32.4115
      vertex -5.56231 9 30.881
    endloop
  endfacet
  facet normal -0.207912 -2.17192e-016 -0.978148
    outer loop
      vertex -5.56231 7.68631 30.881
      vertex -5.56231 9 30.881
      vertex -5 8.66025 30.7615
    endloop
  endfacet
  facet normal -0.207912 -2.17192e-016 -0.978148
    outer loop
      vertex -5 8.66025 30.7615
      vertex -5.56231 9 30.881
      vertex -1.88151 9 30.0986
    endloop
  endfacet
  facet normal -0.207912 -2.17192e-016 -0.978148
    outer loop
      vertex -5 8.66025 30.7615
      vertex -1.88151 9 30.0986
      vertex -1.88151 8.66025 30.0986
    endloop
  endfacet
  facet normal 0 -2.22045e-016 -1
    outer loop
      vertex -1.88151 8.66025 30.0986
      vertex -1.88151 9 30.0986
      vertex 1.88151 8.66025 30.0986
    endloop
  endfacet
  facet normal 0 -2.22045e-016 -1
    outer loop
      vertex 1.88151 8.66025 30.0986
      vertex -1.88151 9 30.0986
      vertex 1.88151 9 30.0986
    endloop
  endfacet
  facet normal 0.207912 -2.17192e-016 -0.978148
    outer loop
      vertex 1.88151 8.66025 30.0986
      vertex 1.88151 9 30.0986
      vertex 5 8.66025 30.7615
    endloop
  endfacet
  facet normal 0.207912 -2.17192e-016 -0.978148
    outer loop
      vertex 5 8.66025 30.7615
      vertex 1.88151 9 30.0986
      vertex 5.56231 9 30.881
    endloop
  endfacet
  facet normal 0.207912 -2.17192e-016 -0.978148
    outer loop
      vertex 5 8.66025 30.7615
      vertex 5.56231 9 30.881
      vertex 5.56231 7.68631 30.881
    endloop
  endfacet
  facet normal 0 0 -1
    outer loop
      vertex -10 0 0
      vertex -5 8.66025 0
      vertex -5 -8.66025 0
    endloop
  endfacet
  facet normal 0 0 -1
    outer loop
      vertex -5 -8.66025 0
      vertex -5 8.66025 0
      vertex 5 8.66025 0
    endloop
  endfacet
  facet normal 0 0 -1
    outer loop
      vertex -5 -8.66025 0
      vertex 5 8.66025 0
      vertex 10 0 0
    endloop
  endfacet
  facet normal 0 0 -1
    outer loop
      vertex -5 -8.66025 0
      vertex 10 0 0
      vertex 5 -8.66025 0
    endloop
  endfacet
  facet normal 0 1 0
    outer loop
      vertex -5 8.66025 0
      vertex -5 8.66025 30.7615
      vertex 5 8.66025 0
    endloop
  endfacet
  facet normal 0 1 0
    outer loop
      vertex 5 8.66025 0
      vertex -5 8.66025 30.7615
      vertex -1.88151 8.66025 30.0986
    endloop
  endfacet
  facet normal 0 1 0
    outer loop
      vertex 5 8.66025 0
      vertex -1.88151 8.66025 30.0986
      vertex 1.88151 8.66025 30.0986
    endloop
  endfacet
  facet normal 0 1 0
    outer loop
      vertex 1.88151 8.66025 30.0986
      vertex 5 8.66025 30.7615
      vertex 5 8.66025 0
    endloop
  endfacet
endsolid OpenSCAD_Model
