solid OpenSCAD_Model
  facet normal 0 -1 2.22045e-016
    outer loop
      vertex -19.563 -5 52.1582
      vertex -20 -5 48
      vertex -19.563 -5 43.8418
    endloop
  endfacet
  facet normal 0 -1 2.22045e-016
    outer loop
      vertex -16.1803 -5 36.2443
      vertex -19.563 -5 52.1582
      vertex -18.2709 -5 39.8653
    endloop
  endfacet
  facet normal 0 -1 2.22045e-016
    outer loop
      vertex -18.2709 -5 39.8653
      vertex -19.563 -5 52.1582
      vertex -19.563 -5 43.8418
    endloop
  endfacet
  facet normal 0 -1 2.22045e-016
    outer loop
      vertex -13.3826 -5 33.1371
      vertex -19.563 -5 52.1582
      vertex -16.1803 -5 36.2443
    endloop
  endfacet
  facet normal 0 -1 2.22045e-016
    outer loop
      vertex -10 -5 30.6795
      vertex -19.563 -5 52.1582
      vertex -13.3826 -5 33.1371
    endloop
  endfacet
  facet normal 0 -1 2.22045e-016
    outer loop
      vertex -6.18034 -5 28.9789
      vertex -19.563 -5 52.1582
      vertex -10 -5 30.6795
    endloop
  endfacet
  facet normal 0 -1 2.22045e-016
    outer loop
      vertex -11.3262 -5 39.771
      vertex -19.563 -5 52.1582
      vertex -6.18034 -5 28.9789
    endloop
  endfacet
  facet normal 0 -1 2.22045e-016
    outer loop
      vertex -7 -5 35.8756
      vertex -9.36783 -5 37.596
      vertex -2.09057 -5 28.1096
    endloop
  endfacet
  facet normal 0 -1 2.22045e-016
    outer loop
      vertex -1.4634 -5 34.0767
      vertex -4.32624 -5 34.6852
      vertex 2.09057 -5 28.1096
    endloop
  endfacet
  facet normal 0 -1 2.22045e-016
    outer loop
      vertex 1.4634 -5 34.0767
      vertex -1.4634 -5 34.0767
      vertex 6.18034 -5 28.9789
    endloop
  endfacet
  facet normal 0 -1 2.22045e-016
    outer loop
      vertex 7 -5 35.8756
      vertex 4.32624 -5 34.6852
      vertex 10 -5 30.6795
    endloop
  endfacet
  facet normal 0 -1 2.22045e-016
    outer loop
      vertex 9.36783 -5 37.596
      vertex 7 -5 35.8756
      vertex 13.3826 -5 33.1371
    endloop
  endfacet
  facet normal 0 -1 2.22045e-016
    outer loop
      vertex 11.3262 -5 39.771
      vertex 9.36783 -5 37.596
      vertex 16.1803 -5 36.2443
    endloop
  endfacet
  facet normal 0 -1 2.22045e-016
    outer loop
      vertex 12.7896 -5 42.3057
      vertex 11.3262 -5 39.771
      vertex 18.2709 -5 39.8653
    endloop
  endfacet
  facet normal 0 -1 2.22045e-016
    outer loop
      vertex 13.6941 -5 50.9108
      vertex 14 -5 48
      vertex 20 -5 48
    endloop
  endfacet
  facet normal 0 -1 2.22045e-016
    outer loop
      vertex 12.7896 -5 53.6943
      vertex 13.6941 -5 50.9108
      vertex 19.563 -5 52.1582
    endloop
  endfacet
  facet normal 0 -1 2.22045e-016
    outer loop
      vertex 11.3262 -5 56.229
      vertex 12.7896 -5 53.6943
      vertex 18.2709 -5 56.1347
    endloop
  endfacet
  facet normal 0 -1 2.22045e-016
    outer loop
      vertex 9.36783 -5 58.404
      vertex 11.3262 -5 56.229
      vertex 16.1803 -5 59.7557
    endloop
  endfacet
  facet normal 0 -1 2.22045e-016
    outer loop
      vertex 4.32624 -5 61.3148
      vertex 7 -5 60.1244
      vertex 13.3826 -5 62.8629
    endloop
  endfacet
  facet normal 0 -1 2.22045e-016
    outer loop
      vertex 9 -5 65.7657
      vertex 9 -5 65.5
      vertex 10 -5 65.3205
    endloop
  endfacet
  facet normal 0 -1 2.22045e-016
    outer loop
      vertex 3.5 -5 65.5
      vertex 10 -5 65.3205
      vertex 9 -5 65.5
    endloop
  endfacet
  facet normal 0 -1 2.22045e-016
    outer loop
      vertex 10 -5 65.3205
      vertex 3.5 -5 61.4904
      vertex 13.3826 -5 62.8629
    endloop
  endfacet
  facet normal 0 -1 2.22045e-016
    outer loop
      vertex -11.3262 -5 56.229
      vertex -9.36783 -5 58.404
      vertex -19.563 -5 52.1582
    endloop
  endfacet
  facet normal 0 -1 2.22045e-016
    outer loop
      vertex 3.5 -5 61.4904
      vertex 4.32624 -5 61.3148
      vertex 13.3826 -5 62.8629
    endloop
  endfacet
  facet normal 0 -1 2.22045e-016
    outer loop
      vertex 13.3826 -5 62.8629
      vertex 7 -5 60.1244
      vertex 16.1803 -5 59.7557
    endloop
  endfacet
  facet normal 0 -1 2.22045e-016
    outer loop
      vertex 7 -5 60.1244
      vertex 9.36783 -5 58.404
      vertex 16.1803 -5 59.7557
    endloop
  endfacet
  facet normal 0 -1 2.22045e-016
    outer loop
      vertex 16.1803 -5 59.7557
      vertex 11.3262 -5 56.229
      vertex 18.2709 -5 56.1347
    endloop
  endfacet
  facet normal 0 -1 2.22045e-016
    outer loop
      vertex 18.2709 -5 56.1347
      vertex 12.7896 -5 53.6943
      vertex 19.563 -5 52.1582
    endloop
  endfacet
  facet normal 0 -1 2.22045e-016
    outer loop
      vertex -12.7896 -5 53.6943
      vertex -11.3262 -5 56.229
      vertex -19.563 -5 52.1582
    endloop
  endfacet
  facet normal 0 -1 2.22045e-016
    outer loop
      vertex 19.563 -5 52.1582
      vertex 13.6941 -5 50.9108
      vertex 20 -5 48
    endloop
  endfacet
  facet normal 0 -1 2.22045e-016
    outer loop
      vertex 20 -5 48
      vertex 14 -5 48
      vertex 19.563 -5 43.8418
    endloop
  endfacet
  facet normal 0 -1 2.22045e-016
    outer loop
      vertex 19.563 -5 43.8418
      vertex 13.6941 -5 45.0892
      vertex 18.2709 -5 39.8653
    endloop
  endfacet
  facet normal 0 -1 2.22045e-016
    outer loop
      vertex 13.6941 -5 45.0892
      vertex 12.7896 -5 42.3057
      vertex 18.2709 -5 39.8653
    endloop
  endfacet
  facet normal 0 -1 2.22045e-016
    outer loop
      vertex 18.2709 -5 39.8653
      vertex 11.3262 -5 39.771
      vertex 16.1803 -5 36.2443
    endloop
  endfacet
  facet normal 0 -1 2.22045e-016
    outer loop
      vertex 16.1803 -5 36.2443
      vertex 9.36783 -5 37.596
      vertex 13.3826 -5 33.1371
    endloop
  endfacet
  facet normal 0 -1 2.22045e-016
    outer loop
      vertex 13.3826 -5 33.1371
      vertex 7 -5 35.8756
      vertex 10 -5 30.6795
    endloop
  endfacet
  facet normal 0 -1 2.22045e-016
    outer loop
      vertex -13.6941 -5 50.9108
      vertex -12.7896 -5 53.6943
      vertex -19.563 -5 52.1582
    endloop
  endfacet
  facet normal 0 -1 2.22045e-016
    outer loop
      vertex 10 -5 30.6795
      vertex 4.32624 -5 34.6852
      vertex 6.18034 -5 28.9789
    endloop
  endfacet
  facet normal 0 -1 2.22045e-016
    outer loop
      vertex 4.32624 -5 34.6852
      vertex 1.4634 -5 34.0767
      vertex 6.18034 -5 28.9789
    endloop
  endfacet
  facet normal 0 -1 2.22045e-016
    outer loop
      vertex 6.18034 -5 28.9789
      vertex -1.4634 -5 34.0767
      vertex 2.09057 -5 28.1096
    endloop
  endfacet
  facet normal 0 -1 2.22045e-016
    outer loop
      vertex 2.09057 -5 28.1096
      vertex -4.32624 -5 34.6852
      vertex -2.09057 -5 28.1096
    endloop
  endfacet
  facet normal 0 -1 2.22045e-016
    outer loop
      vertex -4.32624 -5 34.6852
      vertex -7 -5 35.8756
      vertex -2.09057 -5 28.1096
    endloop
  endfacet
  facet normal 0 -1 2.22045e-016
    outer loop
      vertex -2.09057 -5 28.1096
      vertex -9.36783 -5 37.596
      vertex -6.18034 -5 28.9789
    endloop
  endfacet
  facet normal 0 -1 2.22045e-016
    outer loop
      vertex -9.36783 -5 37.596
      vertex -11.3262 -5 39.771
      vertex -6.18034 -5 28.9789
    endloop
  endfacet
  facet normal 0 -1 2.22045e-016
    outer loop
      vertex -12.7896 -5 42.3057
      vertex -19.563 -5 52.1582
      vertex -11.3262 -5 39.771
    endloop
  endfacet
  facet normal 0 -1 2.22045e-016
    outer loop
      vertex -12.7896 -5 42.3057
      vertex -13.6941 -5 45.0892
      vertex -19.563 -5 52.1582
    endloop
  endfacet
  facet normal 0 -1 2.22045e-016
    outer loop
      vertex -3.5 -5 61.4904
      vertex -3.5 -5 65.5
      vertex -4.32624 -5 61.3148
    endloop
  endfacet
  facet normal 0 -1 2.22045e-016
    outer loop
      vertex -7 -5 60.1244
      vertex -19.563 -5 52.1582
      vertex -9.36783 -5 58.404
    endloop
  endfacet
  facet normal 0 -1 2.22045e-016
    outer loop
      vertex -3.5 -5 65.5
      vertex -19.563 -5 52.1582
      vertex -7 -5 60.1244
    endloop
  endfacet
  facet normal 0 -1 2.22045e-016
    outer loop
      vertex -4.32624 -5 61.3148
      vertex -3.5 -5 65.5
      vertex -7 -5 60.1244
    endloop
  endfacet
  facet normal 0 -1 2.22045e-016
    outer loop
      vertex -9 -5 65.5
      vertex -19.563 -5 52.1582
      vertex -3.5 -5 65.5
    endloop
  endfacet
  facet normal 0 -1 2.22045e-016
    outer loop
      vertex -9 -5 65.7657
      vertex -19.563 -5 52.1582
      vertex -9 -5 65.5
    endloop
  endfacet
  facet normal 0 -1 2.22045e-016
    outer loop
      vertex -10 -5 65.3205
      vertex -19.563 -5 52.1582
      vertex -9 -5 65.7657
    endloop
  endfacet
  facet normal 0 -1 2.22045e-016
    outer loop
      vertex -13.3826 -5 62.8629
      vertex -19.563 -5 52.1582
      vertex -10 -5 65.3205
    endloop
  endfacet
  facet normal 0 -1 2.22045e-016
    outer loop
      vertex -16.1803 -5 59.7557
      vertex -19.563 -5 52.1582
      vertex -13.3826 -5 62.8629
    endloop
  endfacet
  facet normal 0 -1 2.22045e-016
    outer loop
      vertex -18.2709 -5 56.1347
      vertex -19.563 -5 52.1582
      vertex -16.1803 -5 59.7557
    endloop
  endfacet
  facet normal 0 -1 2.22045e-016
    outer loop
      vertex 14 -5 48
      vertex 13.6941 -5 45.0892
      vertex 19.563 -5 43.8418
    endloop
  endfacet
  facet normal 0 -1 2.22045e-016
    outer loop
      vertex -13.6941 -5 45.0892
      vertex -14 -5 48
      vertex -19.563 -5 52.1582
    endloop
  endfacet
  facet normal 0 -1 2.22045e-016
    outer loop
      vertex 3.5 -5 65.5
      vertex 3.5 -5 61.4904
      vertex 10 -5 65.3205
    endloop
  endfacet
  facet normal 0 -1 2.22045e-016
    outer loop
      vertex -14 -5 48
      vertex -13.6941 -5 50.9108
      vertex -19.563 -5 52.1582
    endloop
  endfacet
  facet normal -0.994522 -2.321e-017 -0.104528
    outer loop
      vertex -20 -5 48
      vertex -20 10 48
      vertex -19.563 -5 43.8418
    endloop
  endfacet
  facet normal -0.994522 -2.321e-017 -0.104528
    outer loop
      vertex -19.563 -5 43.8418
      vertex -20 10 48
      vertex -19.563 10 43.8418
    endloop
  endfacet
  facet normal -0.994522 2.321e-017 0.104528
    outer loop
      vertex -20 -5 48
      vertex -19.563 -5 52.1582
      vertex -20 10 48
    endloop
  endfacet
  facet normal -0.994522 2.321e-017 0.104528
    outer loop
      vertex -20 10 48
      vertex -19.563 -5 52.1582
      vertex -19.563 10 52.1582
    endloop
  endfacet
  facet normal -0.951057 6.86156e-017 0.309017
    outer loop
      vertex -19.563 -5 52.1582
      vertex -18.2709 -5 56.1347
      vertex -19.563 10 52.1582
    endloop
  endfacet
  facet normal -0.951057 6.86156e-017 0.309017
    outer loop
      vertex -19.563 10 52.1582
      vertex -18.2709 -5 56.1347
      vertex -18.2709 10 56.1347
    endloop
  endfacet
  facet normal -0.866025 1.11022e-016 0.5
    outer loop
      vertex -18.2709 -5 56.1347
      vertex -16.1803 -5 59.7557
      vertex -18.2709 10 56.1347
    endloop
  endfacet
  facet normal -0.866025 1.11022e-016 0.5
    outer loop
      vertex -18.2709 10 56.1347
      vertex -16.1803 -5 59.7557
      vertex -16.1803 10 59.7557
    endloop
  endfacet
  facet normal -0.743145 1.48577e-016 0.669131
    outer loop
      vertex -16.1803 -5 59.7557
      vertex -13.3826 -5 62.8629
      vertex -16.1803 10 59.7557
    endloop
  endfacet
  facet normal -0.743145 1.48577e-016 0.669131
    outer loop
      vertex -16.1803 10 59.7557
      vertex -13.3826 -5 62.8629
      vertex -13.3826 10 62.8629
    endloop
  endfacet
  facet normal -0.587785 1.79638e-016 0.809017
    outer loop
      vertex -13.3826 10 62.8629
      vertex -13.3826 -5 62.8629
      vertex -10 -5 65.3205
    endloop
  endfacet
  facet normal -0.587785 1.79638e-016 0.809017
    outer loop
      vertex -10 10 65.3205
      vertex -13.3826 10 62.8629
      vertex -10 -5 65.3205
    endloop
  endfacet
  facet normal -0.406737 2.02848e-016 0.913545
    outer loop
      vertex -10 10 65.3205
      vertex -10 -5 65.3205
      vertex -9 -5 65.7657
    endloop
  endfacet
  facet normal -0.406737 2.02848e-016 0.913545
    outer loop
      vertex -6.18034 10 67.0211
      vertex -10 10 65.3205
      vertex -9 10 65.7657
    endloop
  endfacet
  facet normal -0.406737 2.02848e-016 0.913545
    outer loop
      vertex -9 10 65.7657
      vertex -10 10 65.3205
      vertex -9 -5 65.7657
    endloop
  endfacet
  facet normal -1 0 0
    outer loop
      vertex -9 -5 65.7657
      vertex -9 -5 80.5
      vertex -9 10 80.5
    endloop
  endfacet
  facet normal -1 0 0
    outer loop
      vertex -9 -5 65.5
      vertex -9 -5 80.5
      vertex -9 -5 65.7657
    endloop
  endfacet
  facet normal -1 0 0
    outer loop
      vertex -9 -5 65.7657
      vertex -9 10 80.5
      vertex -9 10 65.7657
    endloop
  endfacet
  facet normal 1 0 0
    outer loop
      vertex -3.5 -5 65.5
      vertex -3.5 -5 61.4904
      vertex -3.5 10 61.4904
    endloop
  endfacet
  facet normal 1 0 0
    outer loop
      vertex -3.5 10 67.5909
      vertex -3.5 -5 65.5
      vertex -3.5 10 61.4904
    endloop
  endfacet
  facet normal 1 0 0
    outer loop
      vertex -3.5 10 80.5
      vertex -3.5 -5 65.5
      vertex -3.5 10 67.5909
    endloop
  endfacet
  facet normal 1 0 0
    outer loop
      vertex -3.5 -5 80.5
      vertex -3.5 -5 65.5
      vertex -3.5 10 80.5
    endloop
  endfacet
  facet normal 0.207912 -2.17192e-016 -0.978148
    outer loop
      vertex -3.5 10 61.4904
      vertex -3.5 -5 61.4904
      vertex -4.32624 10 61.3148
    endloop
  endfacet
  facet normal 0.207912 -2.17192e-016 -0.978148
    outer loop
      vertex -4.32624 10 61.3148
      vertex -3.5 -5 61.4904
      vertex -4.32624 -5 61.3148
    endloop
  endfacet
  facet normal 0.406736 -2.02848e-016 -0.913546
    outer loop
      vertex -4.32624 10 61.3148
      vertex -4.32624 -5 61.3148
      vertex -7 10 60.1244
    endloop
  endfacet
  facet normal 0.406736 -2.02848e-016 -0.913546
    outer loop
      vertex -7 10 60.1244
      vertex -4.32624 -5 61.3148
      vertex -7 -5 60.1244
    endloop
  endfacet
  facet normal 0.587785 -1.79638e-016 -0.809017
    outer loop
      vertex -7 10 60.1244
      vertex -7 -5 60.1244
      vertex -9.36783 10 58.404
    endloop
  endfacet
  facet normal 0.587785 -1.79638e-016 -0.809017
    outer loop
      vertex -9.36783 10 58.404
      vertex -7 -5 60.1244
      vertex -9.36783 -5 58.404
    endloop
  endfacet
  facet normal 0.743145 -1.48577e-016 -0.669131
    outer loop
      vertex -11.3262 10 56.229
      vertex -9.36783 10 58.404
      vertex -9.36783 -5 58.404
    endloop
  endfacet
  facet normal 0.743145 -1.48577e-016 -0.669131
    outer loop
      vertex -11.3262 -5 56.229
      vertex -11.3262 10 56.229
      vertex -9.36783 -5 58.404
    endloop
  endfacet
  facet normal 0.866026 -1.11022e-016 -0.5
    outer loop
      vertex -12.7896 10 53.6943
      vertex -11.3262 10 56.229
      vertex -11.3262 -5 56.229
    endloop
  endfacet
  facet normal 0.866026 -1.11022e-016 -0.5
    outer loop
      vertex -12.7896 -5 53.6943
      vertex -12.7896 10 53.6943
      vertex -11.3262 -5 56.229
    endloop
  endfacet
  facet normal 0.951057 -6.86156e-017 -0.309017
    outer loop
      vertex -13.6941 10 50.9108
      vertex -12.7896 10 53.6943
      vertex -12.7896 -5 53.6943
    endloop
  endfacet
  facet normal 0.951057 -6.86156e-017 -0.309017
    outer loop
      vertex -13.6941 -5 50.9108
      vertex -13.6941 10 50.9108
      vertex -12.7896 -5 53.6943
    endloop
  endfacet
  facet normal 0.994522 -2.321e-017 -0.104529
    outer loop
      vertex -14 10 48
      vertex -13.6941 10 50.9108
      vertex -13.6941 -5 50.9108
    endloop
  endfacet
  facet normal 0.994522 -2.321e-017 -0.104529
    outer loop
      vertex -14 -5 48
      vertex -14 10 48
      vertex -13.6941 -5 50.9108
    endloop
  endfacet
  facet normal 0.994522 2.321e-017 0.104529
    outer loop
      vertex -13.6941 -5 45.0892
      vertex -13.6941 10 45.0892
      vertex -14 10 48
    endloop
  endfacet
  facet normal 0.994522 2.321e-017 0.104529
    outer loop
      vertex -14 -5 48
      vertex -13.6941 -5 45.0892
      vertex -14 10 48
    endloop
  endfacet
  facet normal 0.951057 6.86156e-017 0.309017
    outer loop
      vertex -12.7896 -5 42.3057
      vertex -12.7896 10 42.3057
      vertex -13.6941 10 45.0892
    endloop
  endfacet
  facet normal 0.951057 6.86156e-017 0.309017
    outer loop
      vertex -13.6941 -5 45.0892
      vertex -12.7896 -5 42.3057
      vertex -13.6941 10 45.0892
    endloop
  endfacet
  facet normal 0.866026 1.11022e-016 0.5
    outer loop
      vertex -11.3262 -5 39.771
      vertex -11.3262 10 39.771
      vertex -12.7896 10 42.3057
    endloop
  endfacet
  facet normal 0.866026 1.11022e-016 0.5
    outer loop
      vertex -12.7896 -5 42.3057
      vertex -11.3262 -5 39.771
      vertex -12.7896 10 42.3057
    endloop
  endfacet
  facet normal 0.743145 1.48577e-016 0.669131
    outer loop
      vertex -9.36783 -5 37.596
      vertex -9.36783 10 37.596
      vertex -11.3262 10 39.771
    endloop
  endfacet
  facet normal 0.743145 1.48577e-016 0.669131
    outer loop
      vertex -11.3262 -5 39.771
      vertex -9.36783 -5 37.596
      vertex -11.3262 10 39.771
    endloop
  endfacet
  facet normal 0.587785 1.79638e-016 0.809017
    outer loop
      vertex -7 -5 35.8756
      vertex -7 10 35.8756
      vertex -9.36783 10 37.596
    endloop
  endfacet
  facet normal 0.587785 1.79638e-016 0.809017
    outer loop
      vertex -9.36783 -5 37.596
      vertex -7 -5 35.8756
      vertex -9.36783 10 37.596
    endloop
  endfacet
  facet normal 0.406736 2.02848e-016 0.913546
    outer loop
      vertex -4.32624 -5 34.6852
      vertex -4.32624 10 34.6852
      vertex -7 10 35.8756
    endloop
  endfacet
  facet normal 0.406736 2.02848e-016 0.913546
    outer loop
      vertex -7 -5 35.8756
      vertex -4.32624 -5 34.6852
      vertex -7 10 35.8756
    endloop
  endfacet
  facet normal 0.207912 2.17192e-016 0.978148
    outer loop
      vertex -1.4634 -5 34.0767
      vertex -1.4634 10 34.0767
      vertex -4.32624 10 34.6852
    endloop
  endfacet
  facet normal 0.207912 2.17192e-016 0.978148
    outer loop
      vertex -4.32624 -5 34.6852
      vertex -1.4634 -5 34.0767
      vertex -4.32624 10 34.6852
    endloop
  endfacet
  facet normal 0 2.22045e-016 1
    outer loop
      vertex 1.4634 -5 34.0767
      vertex 1.4634 10 34.0767
      vertex -1.4634 10 34.0767
    endloop
  endfacet
  facet normal 0 2.22045e-016 1
    outer loop
      vertex -1.4634 -5 34.0767
      vertex 1.4634 -5 34.0767
      vertex -1.4634 10 34.0767
    endloop
  endfacet
  facet normal -0.207912 2.17192e-016 0.978148
    outer loop
      vertex 4.32624 -5 34.6852
      vertex 4.32624 10 34.6852
      vertex 1.4634 10 34.0767
    endloop
  endfacet
  facet normal -0.207912 2.17192e-016 0.978148
    outer loop
      vertex 1.4634 -5 34.0767
      vertex 4.32624 -5 34.6852
      vertex 1.4634 10 34.0767
    endloop
  endfacet
  facet normal -0.406736 2.02848e-016 0.913546
    outer loop
      vertex 7 -5 35.8756
      vertex 7 10 35.8756
      vertex 4.32624 10 34.6852
    endloop
  endfacet
  facet normal -0.406736 2.02848e-016 0.913546
    outer loop
      vertex 4.32624 -5 34.6852
      vertex 7 -5 35.8756
      vertex 4.32624 10 34.6852
    endloop
  endfacet
  facet normal -0.587785 1.79638e-016 0.809017
    outer loop
      vertex 9.36783 -5 37.596
      vertex 9.36783 10 37.596
      vertex 7 10 35.8756
    endloop
  endfacet
  facet normal -0.587785 1.79638e-016 0.809017
    outer loop
      vertex 7 -5 35.8756
      vertex 9.36783 -5 37.596
      vertex 7 10 35.8756
    endloop
  endfacet
  facet normal -0.743145 1.48577e-016 0.669131
    outer loop
      vertex 11.3262 10 39.771
      vertex 9.36783 10 37.596
      vertex 11.3262 -5 39.771
    endloop
  endfacet
  facet normal -0.743145 1.48577e-016 0.669131
    outer loop
      vertex 11.3262 -5 39.771
      vertex 9.36783 10 37.596
      vertex 9.36783 -5 37.596
    endloop
  endfacet
  facet normal -0.866026 1.11022e-016 0.5
    outer loop
      vertex 12.7896 10 42.3057
      vertex 11.3262 10 39.771
      vertex 12.7896 -5 42.3057
    endloop
  endfacet
  facet normal -0.866026 1.11022e-016 0.5
    outer loop
      vertex 12.7896 -5 42.3057
      vertex 11.3262 10 39.771
      vertex 11.3262 -5 39.771
    endloop
  endfacet
  facet normal -0.951057 6.86156e-017 0.309017
    outer loop
      vertex 13.6941 10 45.0892
      vertex 12.7896 10 42.3057
      vertex 13.6941 -5 45.0892
    endloop
  endfacet
  facet normal -0.951057 6.86156e-017 0.309017
    outer loop
      vertex 13.6941 -5 45.0892
      vertex 12.7896 10 42.3057
      vertex 12.7896 -5 42.3057
    endloop
  endfacet
  facet normal -0.994522 2.321e-017 0.104529
    outer loop
      vertex 14 10 48
      vertex 13.6941 10 45.0892
      vertex 14 -5 48
    endloop
  endfacet
  facet normal -0.994522 2.321e-017 0.104529
    outer loop
      vertex 14 -5 48
      vertex 13.6941 10 45.0892
      vertex 13.6941 -5 45.0892
    endloop
  endfacet
  facet normal -0.994522 -2.321e-017 -0.104529
    outer loop
      vertex 14 10 48
      vertex 14 -5 48
      vertex 13.6941 10 50.9108
    endloop
  endfacet
  facet normal -0.994522 -2.321e-017 -0.104529
    outer loop
      vertex 13.6941 10 50.9108
      vertex 14 -5 48
      vertex 13.6941 -5 50.9108
    endloop
  endfacet
  facet normal -0.951057 -6.86156e-017 -0.309017
    outer loop
      vertex 13.6941 10 50.9108
      vertex 13.6941 -5 50.9108
      vertex 12.7896 10 53.6943
    endloop
  endfacet
  facet normal -0.951057 -6.86156e-017 -0.309017
    outer loop
      vertex 12.7896 10 53.6943
      vertex 13.6941 -5 50.9108
      vertex 12.7896 -5 53.6943
    endloop
  endfacet
  facet normal -0.866026 -1.11022e-016 -0.5
    outer loop
      vertex 12.7896 10 53.6943
      vertex 12.7896 -5 53.6943
      vertex 11.3262 10 56.229
    endloop
  endfacet
  facet normal -0.866026 -1.11022e-016 -0.5
    outer loop
      vertex 11.3262 10 56.229
      vertex 12.7896 -5 53.6943
      vertex 11.3262 -5 56.229
    endloop
  endfacet
  facet normal -0.743145 -1.48577e-016 -0.669131
    outer loop
      vertex 11.3262 10 56.229
      vertex 11.3262 -5 56.229
      vertex 9.36783 10 58.404
    endloop
  endfacet
  facet normal -0.743145 -1.48577e-016 -0.669131
    outer loop
      vertex 9.36783 10 58.404
      vertex 11.3262 -5 56.229
      vertex 9.36783 -5 58.404
    endloop
  endfacet
  facet normal -0.587785 -1.79638e-016 -0.809017
    outer loop
      vertex 9.36783 10 58.404
      vertex 9.36783 -5 58.404
      vertex 7 10 60.1244
    endloop
  endfacet
  facet normal -0.587785 -1.79638e-016 -0.809017
    outer loop
      vertex 7 10 60.1244
      vertex 9.36783 -5 58.404
      vertex 7 -5 60.1244
    endloop
  endfacet
  facet normal -0.406736 -2.02848e-016 -0.913546
    outer loop
      vertex 7 10 60.1244
      vertex 7 -5 60.1244
      vertex 4.32624 10 61.3148
    endloop
  endfacet
  facet normal -0.406736 -2.02848e-016 -0.913546
    outer loop
      vertex 4.32624 10 61.3148
      vertex 7 -5 60.1244
      vertex 4.32624 -5 61.3148
    endloop
  endfacet
  facet normal -0.207912 -2.17192e-016 -0.978148
    outer loop
      vertex 4.32624 10 61.3148
      vertex 4.32624 -5 61.3148
      vertex 3.5 10 61.4904
    endloop
  endfacet
  facet normal -0.207912 -2.17192e-016 -0.978148
    outer loop
      vertex 3.5 10 61.4904
      vertex 4.32624 -5 61.3148
      vertex 3.5 -5 61.4904
    endloop
  endfacet
  facet normal -1 0 0
    outer loop
      vertex 3.5 10 80.5
      vertex 3.5 10 67.5909
      vertex 3.5 -5 80.5
    endloop
  endfacet
  facet normal -1 0 0
    outer loop
      vertex 3.5 -5 80.5
      vertex 3.5 10 67.5909
      vertex 3.5 10 61.4904
    endloop
  endfacet
  facet normal -1 0 0
    outer loop
      vertex 3.5 -5 65.5
      vertex 3.5 10 61.4904
      vertex 3.5 -5 61.4904
    endloop
  endfacet
  facet normal -1 0 0
    outer loop
      vertex 3.5 -5 80.5
      vertex 3.5 10 61.4904
      vertex 3.5 -5 65.5
    endloop
  endfacet
  facet normal 1 0 0
    outer loop
      vertex 9 10 65.7657
      vertex 9 -5 80.5
      vertex 9 -5 65.7657
    endloop
  endfacet
  facet normal 1 0 0
    outer loop
      vertex 9 -5 65.7657
      vertex 9 -5 80.5
      vertex 9 -5 65.5
    endloop
  endfacet
  facet normal 1 0 0
    outer loop
      vertex 9 10 80.5
      vertex 9 -5 80.5
      vertex 9 10 65.7657
    endloop
  endfacet
  facet normal 0.406737 2.02848e-016 0.913545
    outer loop
      vertex 10 10 65.3205
      vertex 6.18034 10 67.0211
      vertex 9 10 65.7657
    endloop
  endfacet
  facet normal 0.406737 2.02848e-016 0.913545
    outer loop
      vertex 9 -5 65.7657
      vertex 10 -5 65.3205
      vertex 9 10 65.7657
    endloop
  endfacet
  facet normal 0.406737 2.02848e-016 0.913545
    outer loop
      vertex 10 -5 65.3205
      vertex 10 10 65.3205
      vertex 9 10 65.7657
    endloop
  endfacet
  facet normal 0.587785 1.79638e-016 0.809017
    outer loop
      vertex 10 10 65.3205
      vertex 10 -5 65.3205
      vertex 13.3826 -5 62.8629
    endloop
  endfacet
  facet normal 0.587785 1.79638e-016 0.809017
    outer loop
      vertex 13.3826 10 62.8629
      vertex 10 10 65.3205
      vertex 13.3826 -5 62.8629
    endloop
  endfacet
  facet normal 0.743145 1.48577e-016 0.669131
    outer loop
      vertex 13.3826 10 62.8629
      vertex 13.3826 -5 62.8629
      vertex 16.1803 -5 59.7557
    endloop
  endfacet
  facet normal 0.743145 1.48577e-016 0.669131
    outer loop
      vertex 16.1803 10 59.7557
      vertex 13.3826 10 62.8629
      vertex 16.1803 -5 59.7557
    endloop
  endfacet
  facet normal 0.866025 1.11022e-016 0.5
    outer loop
      vertex 16.1803 10 59.7557
      vertex 16.1803 -5 59.7557
      vertex 18.2709 -5 56.1347
    endloop
  endfacet
  facet normal 0.866025 1.11022e-016 0.5
    outer loop
      vertex 18.2709 10 56.1347
      vertex 16.1803 10 59.7557
      vertex 18.2709 -5 56.1347
    endloop
  endfacet
  facet normal 0.951057 6.86156e-017 0.309017
    outer loop
      vertex 18.2709 10 56.1347
      vertex 18.2709 -5 56.1347
      vertex 19.563 -5 52.1582
    endloop
  endfacet
  facet normal 0.951057 6.86156e-017 0.309017
    outer loop
      vertex 19.563 10 52.1582
      vertex 18.2709 10 56.1347
      vertex 19.563 -5 52.1582
    endloop
  endfacet
  facet normal 0.994522 2.321e-017 0.104528
    outer loop
      vertex 19.563 10 52.1582
      vertex 19.563 -5 52.1582
      vertex 20 -5 48
    endloop
  endfacet
  facet normal 0.994522 2.321e-017 0.104528
    outer loop
      vertex 20 10 48
      vertex 19.563 10 52.1582
      vertex 20 -5 48
    endloop
  endfacet
  facet normal 0.994522 -2.321e-017 -0.104528
    outer loop
      vertex 20 -5 48
      vertex 19.563 -5 43.8418
      vertex 19.563 10 43.8418
    endloop
  endfacet
  facet normal 0.994522 -2.321e-017 -0.104528
    outer loop
      vertex 20 10 48
      vertex 20 -5 48
      vertex 19.563 10 43.8418
    endloop
  endfacet
  facet normal 0.951057 -6.86156e-017 -0.309017
    outer loop
      vertex 19.563 -5 43.8418
      vertex 18.2709 -5 39.8653
      vertex 18.2709 10 39.8653
    endloop
  endfacet
  facet normal 0.951057 -6.86156e-017 -0.309017
    outer loop
      vertex 19.563 10 43.8418
      vertex 19.563 -5 43.8418
      vertex 18.2709 10 39.8653
    endloop
  endfacet
  facet normal 0.866025 -1.11022e-016 -0.5
    outer loop
      vertex 18.2709 -5 39.8653
      vertex 16.1803 -5 36.2443
      vertex 16.1803 10 36.2443
    endloop
  endfacet
  facet normal 0.866025 -1.11022e-016 -0.5
    outer loop
      vertex 18.2709 10 39.8653
      vertex 18.2709 -5 39.8653
      vertex 16.1803 10 36.2443
    endloop
  endfacet
  facet normal 0.743145 -1.48577e-016 -0.669131
    outer loop
      vertex 16.1803 -5 36.2443
      vertex 13.3826 -5 33.1371
      vertex 13.3826 10 33.1371
    endloop
  endfacet
  facet normal 0.743145 -1.48577e-016 -0.669131
    outer loop
      vertex 16.1803 10 36.2443
      vertex 16.1803 -5 36.2443
      vertex 13.3826 10 33.1371
    endloop
  endfacet
  facet normal 0.587785 -1.79638e-016 -0.809017
    outer loop
      vertex 10 -5 30.6795
      vertex 10 10 30.6795
      vertex 13.3826 -5 33.1371
    endloop
  endfacet
  facet normal 0.587785 -1.79638e-016 -0.809017
    outer loop
      vertex 13.3826 -5 33.1371
      vertex 10 10 30.6795
      vertex 13.3826 10 33.1371
    endloop
  endfacet
  facet normal 0.406737 -2.02848e-016 -0.913545
    outer loop
      vertex 10 -5 30.6795
      vertex 6.18034 -5 28.9789
      vertex 8 -5 29.789
    endloop
  endfacet
  facet normal 0.406737 -2.02848e-016 -0.913545
    outer loop
      vertex 10 -5 30.6795
      vertex 8 -5 29.789
      vertex 8 10 29.789
    endloop
  endfacet
  facet normal 0.406737 -2.02848e-016 -0.913545
    outer loop
      vertex 10 -5 30.6795
      vertex 8 10 29.789
      vertex 10 10 30.6795
    endloop
  endfacet
  facet normal -0.406737 -2.02848e-016 -0.913545
    outer loop
      vertex -10 -5 30.6795
      vertex -10 10 30.6795
      vertex -7 -5 29.3438
    endloop
  endfacet
  facet normal -0.406737 -2.02848e-016 -0.913545
    outer loop
      vertex -10 -5 30.6795
      vertex -7 -5 29.3438
      vertex -6.18034 -5 28.9789
    endloop
  endfacet
  facet normal -0.406737 -2.02848e-016 -0.913545
    outer loop
      vertex -7 -5 29.3438
      vertex -10 10 30.6795
      vertex -7 10 29.3438
    endloop
  endfacet
  facet normal -0.587785 -1.79638e-016 -0.809017
    outer loop
      vertex -13.3826 -5 33.1371
      vertex -13.3826 10 33.1371
      vertex -10 -5 30.6795
    endloop
  endfacet
  facet normal -0.587785 -1.79638e-016 -0.809017
    outer loop
      vertex -10 -5 30.6795
      vertex -13.3826 10 33.1371
      vertex -10 10 30.6795
    endloop
  endfacet
  facet normal -0.743145 -1.48577e-016 -0.669131
    outer loop
      vertex -16.1803 -5 36.2443
      vertex -16.1803 10 36.2443
      vertex -13.3826 -5 33.1371
    endloop
  endfacet
  facet normal -0.743145 -1.48577e-016 -0.669131
    outer loop
      vertex -13.3826 -5 33.1371
      vertex -16.1803 10 36.2443
      vertex -13.3826 10 33.1371
    endloop
  endfacet
  facet normal -0.866025 -1.11022e-016 -0.5
    outer loop
      vertex -18.2709 -5 39.8653
      vertex -18.2709 10 39.8653
      vertex -16.1803 -5 36.2443
    endloop
  endfacet
  facet normal -0.866025 -1.11022e-016 -0.5
    outer loop
      vertex -16.1803 -5 36.2443
      vertex -18.2709 10 39.8653
      vertex -16.1803 10 36.2443
    endloop
  endfacet
  facet normal -0.951057 -6.86156e-017 -0.309017
    outer loop
      vertex -19.563 -5 43.8418
      vertex -19.563 10 43.8418
      vertex -18.2709 -5 39.8653
    endloop
  endfacet
  facet normal -0.951057 -6.86156e-017 -0.309017
    outer loop
      vertex -18.2709 -5 39.8653
      vertex -19.563 10 43.8418
      vertex -18.2709 10 39.8653
    endloop
  endfacet
  facet normal 0 1 -2.22045e-016
    outer loop
      vertex -20 10 48
      vertex -19.563 10 52.1582
      vertex -19.563 10 43.8418
    endloop
  endfacet
  facet normal 0 1 -2.22045e-016
    outer loop
      vertex -19.563 10 43.8418
      vertex -19.563 10 52.1582
      vertex -18.2709 10 56.1347
    endloop
  endfacet
  facet normal 0 1 -2.22045e-016
    outer loop
      vertex -19.563 10 43.8418
      vertex -18.2709 10 56.1347
      vertex -16.1803 10 59.7557
    endloop
  endfacet
  facet normal 0 1 -2.22045e-016
    outer loop
      vertex -19.563 10 43.8418
      vertex -16.1803 10 59.7557
      vertex -13.3826 10 62.8629
    endloop
  endfacet
  facet normal 0 1 -2.22045e-016
    outer loop
      vertex -19.563 10 43.8418
      vertex -13.3826 10 62.8629
      vertex -10 10 65.3205
    endloop
  endfacet
  facet normal 0 1 -2.22045e-016
    outer loop
      vertex -19.563 10 43.8418
      vertex -10 10 65.3205
      vertex -6.18034 10 67.0211
    endloop
  endfacet
  facet normal 0 1 -2.22045e-016
    outer loop
      vertex -11.3262 10 56.229
      vertex -6.18034 10 67.0211
      vertex -3.5 10 67.5909
    endloop
  endfacet
  facet normal 0 1 -2.22045e-016
    outer loop
      vertex -4.32624 10 61.3148
      vertex -3.5 10 67.5909
      vertex -3.5 10 61.4904
    endloop
  endfacet
  facet normal 0 1 -2.22045e-016
    outer loop
      vertex -7 10 60.1244
      vertex -3.5 10 67.5909
      vertex -4.32624 10 61.3148
    endloop
  endfacet
  facet normal 0 1 -2.22045e-016
    outer loop
      vertex -9.36783 10 58.404
      vertex -3.5 10 67.5909
      vertex -7 10 60.1244
    endloop
  endfacet
  facet normal 0 1 -2.22045e-016
    outer loop
      vertex -19.563 10 43.8418
      vertex -6.18034 10 67.0211
      vertex -11.3262 10 56.229
    endloop
  endfacet
  facet normal 0 1 -2.22045e-016
    outer loop
      vertex -13.6941 10 50.9108
      vertex -19.563 10 43.8418
      vertex -12.7896 10 53.6943
    endloop
  endfacet
  facet normal 0 1 -2.22045e-016
    outer loop
      vertex -14 10 48
      vertex -19.563 10 43.8418
      vertex -13.6941 10 50.9108
    endloop
  endfacet
  facet normal 0 1 -2.22045e-016
    outer loop
      vertex 8 10 33
      vertex 10 10 30.6795
      vertex 8 10 29.789
    endloop
  endfacet
  facet normal 0 1 -2.22045e-016
    outer loop
      vertex -19.563 10 43.8418
      vertex -14 10 48
      vertex -13.6941 10 45.0892
    endloop
  endfacet
  facet normal 0 1 -2.22045e-016
    outer loop
      vertex -13.6941 10 45.0892
      vertex -12.7896 10 42.3057
      vertex -19.563 10 43.8418
    endloop
  endfacet
  facet normal 0 1 -2.22045e-016
    outer loop
      vertex -12.7896 10 42.3057
      vertex -11.3262 10 39.771
      vertex -19.563 10 43.8418
    endloop
  endfacet
  facet normal 0 1 -2.22045e-016
    outer loop
      vertex -11.3262 10 39.771
      vertex -9.36783 10 37.596
      vertex -19.563 10 43.8418
    endloop
  endfacet
  facet normal 0 1 -2.22045e-016
    outer loop
      vertex -9.36783 10 37.596
      vertex -7 10 35.8756
      vertex -19.563 10 43.8418
    endloop
  endfacet
  facet normal 0 1 -2.22045e-016
    outer loop
      vertex -7 10 35.8756
      vertex -7 10 33
      vertex -19.563 10 43.8418
    endloop
  endfacet
  facet normal 0 1 -2.22045e-016
    outer loop
      vertex 3.5 10 67.5909
      vertex 7 10 60.1244
      vertex 4.32624 10 61.3148
    endloop
  endfacet
  facet normal 0 1 -2.22045e-016
    outer loop
      vertex 3.5 10 67.5909
      vertex 4.32624 10 61.3148
      vertex 3.5 10 61.4904
    endloop
  endfacet
  facet normal 0 1 -2.22045e-016
    outer loop
      vertex 9.36783 10 58.404
      vertex 7 10 60.1244
      vertex 3.5 10 67.5909
    endloop
  endfacet
  facet normal 0 1 -2.22045e-016
    outer loop
      vertex 9.36783 10 58.404
      vertex 3.5 10 67.5909
      vertex 11.3262 10 56.229
    endloop
  endfacet
  facet normal 0 1 -2.22045e-016
    outer loop
      vertex 11.3262 10 56.229
      vertex 3.5 10 67.5909
      vertex 6.18034 10 67.0211
    endloop
  endfacet
  facet normal 0 1 -2.22045e-016
    outer loop
      vertex 11.3262 10 56.229
      vertex 6.18034 10 67.0211
      vertex 12.7896 10 53.6943
    endloop
  endfacet
  facet normal 0 1 -2.22045e-016
    outer loop
      vertex 12.7896 10 53.6943
      vertex 6.18034 10 67.0211
      vertex 10 10 65.3205
    endloop
  endfacet
  facet normal 0 1 -2.22045e-016
    outer loop
      vertex 12.7896 10 53.6943
      vertex 10 10 65.3205
      vertex 13.6941 10 50.9108
    endloop
  endfacet
  facet normal 0 1 -2.22045e-016
    outer loop
      vertex 13.6941 10 50.9108
      vertex 10 10 65.3205
      vertex 13.3826 10 62.8629
    endloop
  endfacet
  facet normal 0 1 -2.22045e-016
    outer loop
      vertex 13.6941 10 50.9108
      vertex 13.3826 10 62.8629
      vertex 14 10 48
    endloop
  endfacet
  facet normal 0 1 -2.22045e-016
    outer loop
      vertex 14 10 48
      vertex 13.3826 10 62.8629
      vertex 16.1803 10 59.7557
    endloop
  endfacet
  facet normal 0 1 -2.22045e-016
    outer loop
      vertex 14 10 48
      vertex 16.1803 10 59.7557
      vertex 13.6941 10 45.0892
    endloop
  endfacet
  facet normal 0 1 -2.22045e-016
    outer loop
      vertex 13.6941 10 45.0892
      vertex 16.1803 10 59.7557
      vertex 18.2709 10 56.1347
    endloop
  endfacet
  facet normal 0 1 -2.22045e-016
    outer loop
      vertex 13.6941 10 45.0892
      vertex 18.2709 10 56.1347
      vertex 12.7896 10 42.3057
    endloop
  endfacet
  facet normal 0 1 -2.22045e-016
    outer loop
      vertex 12.7896 10 42.3057
      vertex 18.2709 10 56.1347
      vertex 19.563 10 52.1582
    endloop
  endfacet
  facet normal 0 1 -2.22045e-016
    outer loop
      vertex 12.7896 10 42.3057
      vertex 19.563 10 52.1582
      vertex 11.3262 10 39.771
    endloop
  endfacet
  facet normal 0 1 -2.22045e-016
    outer loop
      vertex 11.3262 10 39.771
      vertex 19.563 10 52.1582
      vertex 20 10 48
    endloop
  endfacet
  facet normal 0 1 -2.22045e-016
    outer loop
      vertex 11.3262 10 39.771
      vertex 20 10 48
      vertex 9.36783 10 37.596
    endloop
  endfacet
  facet normal 0 1 -2.22045e-016
    outer loop
      vertex 9.36783 10 37.596
      vertex 20 10 48
      vertex 19.563 10 43.8418
    endloop
  endfacet
  facet normal 0 1 -2.22045e-016
    outer loop
      vertex 9.36783 10 37.596
      vertex 19.563 10 43.8418
      vertex 7 10 35.8756
    endloop
  endfacet
  facet normal 0 1 -2.22045e-016
    outer loop
      vertex 7 10 35.8756
      vertex 19.563 10 43.8418
      vertex 18.2709 10 39.8653
    endloop
  endfacet
  facet normal 0 1 -2.22045e-016
    outer loop
      vertex 7 10 35.8756
      vertex 18.2709 10 39.8653
      vertex 4.32624 10 34.6852
    endloop
  endfacet
  facet normal 0 1 -2.22045e-016
    outer loop
      vertex 4.32624 10 34.6852
      vertex 18.2709 10 39.8653
      vertex 16.1803 10 36.2443
    endloop
  endfacet
  facet normal 0 1 -2.22045e-016
    outer loop
      vertex 4.32624 10 34.6852
      vertex 16.1803 10 36.2443
      vertex 1.4634 10 34.0767
    endloop
  endfacet
  facet normal 0 1 -2.22045e-016
    outer loop
      vertex 1.4634 10 34.0767
      vertex 16.1803 10 36.2443
      vertex 13.3826 10 33.1371
    endloop
  endfacet
  facet normal 0 1 -2.22045e-016
    outer loop
      vertex 1.4634 10 34.0767
      vertex 13.3826 10 33.1371
      vertex -1.4634 10 34.0767
    endloop
  endfacet
  facet normal 0 1 -2.22045e-016
    outer loop
      vertex 8 10 33
      vertex 13.3826 10 33.1371
      vertex 10 10 30.6795
    endloop
  endfacet
  facet normal 0 1 -2.22045e-016
    outer loop
      vertex -7 10 33
      vertex -1.4634 10 34.0767
      vertex 8 10 33
    endloop
  endfacet
  facet normal 0 1 -2.22045e-016
    outer loop
      vertex -1.4634 10 34.0767
      vertex 13.3826 10 33.1371
      vertex 8 10 33
    endloop
  endfacet
  facet normal 0 1 -2.22045e-016
    outer loop
      vertex -7 10 33
      vertex -4.32624 10 34.6852
      vertex -1.4634 10 34.0767
    endloop
  endfacet
  facet normal 0 1 -2.22045e-016
    outer loop
      vertex -4.32624 10 34.6852
      vertex -7 10 33
      vertex -7 10 35.8756
    endloop
  endfacet
  facet normal 0 1 -2.22045e-016
    outer loop
      vertex -7 10 33
      vertex -7 10 29.3438
      vertex -19.563 10 43.8418
    endloop
  endfacet
  facet normal 0 1 -2.22045e-016
    outer loop
      vertex -19.563 10 43.8418
      vertex -7 10 29.3438
      vertex -10 10 30.6795
    endloop
  endfacet
  facet normal 0 1 -2.22045e-016
    outer loop
      vertex -19.563 10 43.8418
      vertex -10 10 30.6795
      vertex -13.3826 10 33.1371
    endloop
  endfacet
  facet normal 0 1 -2.22045e-016
    outer loop
      vertex -19.563 10 43.8418
      vertex -13.3826 10 33.1371
      vertex -16.1803 10 36.2443
    endloop
  endfacet
  facet normal 0 1 -2.22045e-016
    outer loop
      vertex -19.563 10 43.8418
      vertex -16.1803 10 36.2443
      vertex -18.2709 10 39.8653
    endloop
  endfacet
  facet normal 0 1 -2.22045e-016
    outer loop
      vertex -11.3262 10 56.229
      vertex -3.5 10 67.5909
      vertex -9.36783 10 58.404
    endloop
  endfacet
  facet normal 0 1 -2.22045e-016
    outer loop
      vertex -12.7896 10 53.6943
      vertex -19.563 10 43.8418
      vertex -11.3262 10 56.229
    endloop
  endfacet
  facet normal 0 1 -2.22045e-016
    outer loop
      vertex -9 10 65.7657
      vertex -9 10 80.5
      vertex -6.18034 10 67.0211
    endloop
  endfacet
  facet normal 0 1 -2.22045e-016
    outer loop
      vertex -6.18034 10 67.0211
      vertex -9 10 80.5
      vertex -3.5 10 80.5
    endloop
  endfacet
  facet normal 0 1 -2.22045e-016
    outer loop
      vertex -6.18034 10 67.0211
      vertex -3.5 10 80.5
      vertex -3.5 10 67.5909
    endloop
  endfacet
  facet normal 0 2.22045e-016 1
    outer loop
      vertex -9 10 80.5
      vertex -9 -5 80.5
      vertex -3.5 -5 80.5
    endloop
  endfacet
  facet normal 0 2.22045e-016 1
    outer loop
      vertex -3.5 10 80.5
      vertex -9 10 80.5
      vertex -3.5 -5 80.5
    endloop
  endfacet
  facet normal 0 -1 2.22045e-016
    outer loop
      vertex -9 -5 80.5
      vertex -9 -5 65.5
      vertex -3.5 -5 65.5
    endloop
  endfacet
  facet normal 0 -1 2.22045e-016
    outer loop
      vertex -3.5 -5 80.5
      vertex -9 -5 80.5
      vertex -3.5 -5 65.5
    endloop
  endfacet
  facet normal 0 2.22045e-016 1
    outer loop
      vertex 3.5 10 80.5
      vertex 3.5 -5 80.5
      vertex 9 -5 80.5
    endloop
  endfacet
  facet normal 0 2.22045e-016 1
    outer loop
      vertex 9 10 80.5
      vertex 3.5 10 80.5
      vertex 9 -5 80.5
    endloop
  endfacet
  facet normal 0 -1 2.22045e-016
    outer loop
      vertex 3.5 -5 80.5
      vertex 3.5 -5 65.5
      vertex 9 -5 65.5
    endloop
  endfacet
  facet normal 0 -1 2.22045e-016
    outer loop
      vertex 9 -5 80.5
      vertex 3.5 -5 80.5
      vertex 9 -5 65.5
    endloop
  endfacet
  facet normal 0 1 -2.22045e-016
    outer loop
      vertex 3.5 10 67.5909
      vertex 3.5 10 80.5
      vertex 6.18034 10 67.0211
    endloop
  endfacet
  facet normal 0 1 -2.22045e-016
    outer loop
      vertex 6.18034 10 67.0211
      vertex 3.5 10 80.5
      vertex 9 10 80.5
    endloop
  endfacet
  facet normal 0 1 -2.22045e-016
    outer loop
      vertex 6.18034 10 67.0211
      vertex 9 10 80.5
      vertex 9 10 65.7657
    endloop
  endfacet
  facet normal 1 0 0
    outer loop
      vertex 8 -5 29.789
      vertex 8 -5 -2
      vertex 8 10 -2
    endloop
  endfacet
  facet normal 1 0 0
    outer loop
      vertex 8 10 29.789
      vertex 8 -5 29.789
      vertex 8 10 -2
    endloop
  endfacet
  facet normal 1 0 0
    outer loop
      vertex 8 10 33
      vertex 8 10 29.789
      vertex 8 10 -2
    endloop
  endfacet
  facet normal 0 -1 0
    outer loop
      vertex -7 -5 29.3438
      vertex -7 -5 -2
      vertex 8 -5 -2
    endloop
  endfacet
  facet normal 0 -1 0
    outer loop
      vertex -6.18034 -5 28.9789
      vertex -7 -5 29.3438
      vertex 8 -5 -2
    endloop
  endfacet
  facet normal 0 -1 0
    outer loop
      vertex 8 -5 29.789
      vertex 6.18034 -5 28.9789
      vertex 8 -5 -2
    endloop
  endfacet
  facet normal 0 -1 0
    outer loop
      vertex 6.18034 -5 28.9789
      vertex 2.09057 -5 28.1096
      vertex 8 -5 -2
    endloop
  endfacet
  facet normal 0 -1 0
    outer loop
      vertex 2.09057 -5 28.1096
      vertex -2.09057 -5 28.1096
      vertex 8 -5 -2
    endloop
  endfacet
  facet normal 0 -1 0
    outer loop
      vertex -2.09057 -5 28.1096
      vertex -6.18034 -5 28.9789
      vertex 8 -5 -2
    endloop
  endfacet
  facet normal -1 0 0
    outer loop
      vertex -7 -5 -2
      vertex -7 -5 29.3438
      vertex -7 10 -2
    endloop
  endfacet
  facet normal -1 0 0
    outer loop
      vertex -7 10 -2
      vertex -7 -5 29.3438
      vertex -7 10 29.3438
    endloop
  endfacet
  facet normal -1 0 0
    outer loop
      vertex -7 10 -2
      vertex -7 10 29.3438
      vertex -7 10 33
    endloop
  endfacet
  facet normal 0 1 0
    outer loop
      vertex -7 10 -2
      vertex -7 10 33
      vertex 8 10 -2
    endloop
  endfacet
  facet normal 0 1 0
    outer loop
      vertex 8 10 -2
      vertex -7 10 33
      vertex 8 10 33
    endloop
  endfacet
  facet normal 0 0 -1
    outer loop
      vertex -7 -5 -2
      vertex -7 10 -2
      vertex 8 -5 -2
    endloop
  endfacet
  facet normal 0 0 -1
    outer loop
      vertex 8 -5 -2
      vertex -7 10 -2
      vertex 8 10 -2
    endloop
  endfacet
endsolid OpenSCAD_Model
