solid OpenSCAD_Model
  facet normal 0.000000 -1.000000 0.000000
    outer loop
      vertex -34.235166 -10.000000 55.276909
      vertex -35.000000 -10.000000 48.000000
      vertex -34.235166 -10.000000 40.723091
    endloop
  endfacet
  facet normal 0.000000 -1.000000 0.000000
    outer loop
      vertex -28.315595 -10.000000 27.427516
      vertex -34.235166 -10.000000 55.276909
      vertex -31.974091 -10.000000 33.764217
    endloop
  endfacet
  facet normal 0.000000 -1.000000 0.000000
    outer loop
      vertex -31.974091 -10.000000 33.764217
      vertex -34.235166 -10.000000 55.276909
      vertex -34.235166 -10.000000 40.723091
    endloop
  endfacet
  facet normal 0.000000 -1.000000 0.000000
    outer loop
      vertex -23.419571 -10.000000 21.989931
      vertex -34.235166 -10.000000 55.276909
      vertex -28.315595 -10.000000 27.427516
    endloop
  endfacet
  facet normal -0.000000 -1.000000 -0.000000
    outer loop
      vertex -17.500000 -10.000000 17.689111
      vertex -34.235166 -10.000000 55.276909
      vertex -23.419571 -10.000000 21.989931
    endloop
  endfacet
  facet normal -0.000000 -1.000000 0.000000
    outer loop
      vertex -25.579273 -10.000000 36.611374
      vertex -34.235166 -10.000000 55.276909
      vertex -17.500000 -10.000000 17.689111
    endloop
  endfacet
  facet normal -0.000000 -1.000000 -0.000000
    outer loop
      vertex -25.579273 -10.000000 36.611374
      vertex -27.388133 -10.000000 42.178473
      vertex -34.235166 -10.000000 55.276909
    endloop
  endfacet
  facet normal 0.000000 -1.000000 0.000000
    outer loop
      vertex -14.000000 -10.000000 23.751289
      vertex -18.735657 -10.000000 27.191945
      vertex -10.815595 -10.000000 14.713022
    endloop
  endfacet
  facet normal 0.000000 -1.000000 0.000000
    outer loop
      vertex -8.652476 -10.000000 21.370418
      vertex -14.000000 -10.000000 23.751289
      vertex -3.658496 -10.000000 13.191734
    endloop
  endfacet
  facet normal 0.000000 -1.000000 0.000000
    outer loop
      vertex 2.926797 -10.000000 20.153387
      vertex -2.926797 -10.000000 20.153387
      vertex 3.658496 -10.000000 13.191734
    endloop
  endfacet
  facet normal -0.000000 -1.000000 0.000000
    outer loop
      vertex 8.652476 -10.000000 21.370418
      vertex 2.926797 -10.000000 20.153387
      vertex 10.815595 -10.000000 14.713022
    endloop
  endfacet
  facet normal -0.000000 -1.000000 0.000000
    outer loop
      vertex 14.000000 -10.000000 23.751289
      vertex 8.652476 -10.000000 21.370418
      vertex 17.500000 -10.000000 17.689111
    endloop
  endfacet
  facet normal 0.000000 -1.000000 0.000000
    outer loop
      vertex 18.735657 -10.000000 27.191945
      vertex 14.000000 -10.000000 23.751289
      vertex 23.419571 -10.000000 21.989931
    endloop
  endfacet
  facet normal 0.000000 -1.000000 0.000000
    outer loop
      vertex 22.652476 -10.000000 31.542013
      vertex 18.735657 -10.000000 27.191945
      vertex 28.315595 -10.000000 27.427516
    endloop
  endfacet
  facet normal 0.000000 -1.000000 0.000000
    outer loop
      vertex 27.388133 -10.000000 53.821527
      vertex 28.000000 -10.000000 48.000000
      vertex 35.000000 -10.000000 48.000000
    endloop
  endfacet
  facet normal 0.000000 -1.000000 0.000000
    outer loop
      vertex 25.579273 -10.000000 59.388626
      vertex 27.388133 -10.000000 53.821527
      vertex 34.235166 -10.000000 55.276909
    endloop
  endfacet
  facet normal 0.000000 -1.000000 0.000000
    outer loop
      vertex 22.652476 -10.000000 64.457987
      vertex 25.579273 -10.000000 59.388626
      vertex 31.974091 -10.000000 62.235783
    endloop
  endfacet
  facet normal 0.000000 -1.000000 0.000000
    outer loop
      vertex 18.735657 -10.000000 68.808055
      vertex 22.652476 -10.000000 64.457987
      vertex 28.315595 -10.000000 68.572484
    endloop
  endfacet
  facet normal -0.000000 -1.000000 0.000000
    outer loop
      vertex 14.000000 -10.000000 72.248711
      vertex 18.735657 -10.000000 68.808055
      vertex 23.419571 -10.000000 74.010069
    endloop
  endfacet
  facet normal 0.000000 -1.000000 0.000000
    outer loop
      vertex 8.652476 -10.000000 74.629582
      vertex 14.000000 -10.000000 72.248711
      vertex 17.500000 -10.000000 78.310889
    endloop
  endfacet
  facet normal 0.000000 -1.000000 0.000000
    outer loop
      vertex 10.815595 -10.000000 81.286978
      vertex 10.000000 -10.000000 80.000000
      vertex 17.500000 -10.000000 78.310889
    endloop
  endfacet
  facet normal 0.000000 -1.000000 0.000000
    outer loop
      vertex 10.000000 -10.000000 80.000000
      vertex 3.500000 -10.000000 75.724775
      vertex 17.500000 -10.000000 78.310889
    endloop
  endfacet
  facet normal 0.000000 -1.000000 0.000000
    outer loop
      vertex 3.500000 -10.000000 75.724775
      vertex 8.652476 -10.000000 74.629582
      vertex 17.500000 -10.000000 78.310889
    endloop
  endfacet
  facet normal -0.000000 -1.000000 0.000000
    outer loop
      vertex 17.500000 -10.000000 78.310889
      vertex 14.000000 -10.000000 72.248711
      vertex 23.419571 -10.000000 74.010069
    endloop
  endfacet
  facet normal 0.000000 -1.000000 0.000000
    outer loop
      vertex 23.419571 -10.000000 74.010069
      vertex 18.735657 -10.000000 68.808055
      vertex 28.315595 -10.000000 68.572484
    endloop
  endfacet
  facet normal 0.000000 -1.000000 -0.000000
    outer loop
      vertex -25.579273 -10.000000 59.388626
      vertex -22.652476 -10.000000 64.457987
      vertex -34.235166 -10.000000 55.276909
    endloop
  endfacet
  facet normal 0.000000 -1.000000 0.000000
    outer loop
      vertex 28.315595 -10.000000 68.572484
      vertex 22.652476 -10.000000 64.457987
      vertex 31.974091 -10.000000 62.235783
    endloop
  endfacet
  facet normal 0.000000 -1.000000 0.000000
    outer loop
      vertex 31.974091 -10.000000 62.235783
      vertex 25.579273 -10.000000 59.388626
      vertex 34.235166 -10.000000 55.276909
    endloop
  endfacet
  facet normal -0.000000 -1.000000 0.000000
    outer loop
      vertex 34.235166 -10.000000 55.276909
      vertex 27.388133 -10.000000 53.821527
      vertex 35.000000 -10.000000 48.000000
    endloop
  endfacet
  facet normal 0.000000 -1.000000 0.000000
    outer loop
      vertex 35.000000 -10.000000 48.000000
      vertex 28.000000 -10.000000 48.000000
      vertex 34.235166 -10.000000 40.723091
    endloop
  endfacet
  facet normal 0.000000 -1.000000 0.000000
    outer loop
      vertex 28.000000 -10.000000 48.000000
      vertex 27.388133 -10.000000 42.178473
      vertex 34.235166 -10.000000 40.723091
    endloop
  endfacet
  facet normal 0.000000 -1.000000 0.000000
    outer loop
      vertex 34.235166 -10.000000 40.723091
      vertex 25.579273 -10.000000 36.611374
      vertex 31.974091 -10.000000 33.764217
    endloop
  endfacet
  facet normal 0.000000 -1.000000 0.000000
    outer loop
      vertex 31.974091 -10.000000 33.764217
      vertex 22.652476 -10.000000 31.542013
      vertex 28.315595 -10.000000 27.427516
    endloop
  endfacet
  facet normal 0.000000 -1.000000 0.000000
    outer loop
      vertex 28.315595 -10.000000 27.427516
      vertex 18.735657 -10.000000 27.191945
      vertex 23.419571 -10.000000 21.989931
    endloop
  endfacet
  facet normal 0.000000 -1.000000 0.000000
    outer loop
      vertex 23.419571 -10.000000 21.989931
      vertex 14.000000 -10.000000 23.751289
      vertex 17.500000 -10.000000 17.689111
    endloop
  endfacet
  facet normal -0.000000 -1.000000 0.000000
    outer loop
      vertex 17.500000 -10.000000 17.689111
      vertex 8.652476 -10.000000 21.370418
      vertex 10.815595 -10.000000 14.713022
    endloop
  endfacet
  facet normal -0.000000 -1.000000 0.000000
    outer loop
      vertex 10.815595 -10.000000 14.713022
      vertex 2.926797 -10.000000 20.153387
      vertex 3.658496 -10.000000 13.191734
    endloop
  endfacet
  facet normal 0.000000 -1.000000 0.000000
    outer loop
      vertex 3.658496 -10.000000 13.191734
      vertex -2.926797 -10.000000 20.153387
      vertex -3.658496 -10.000000 13.191734
    endloop
  endfacet
  facet normal 0.000000 -1.000000 0.000000
    outer loop
      vertex -2.926797 -10.000000 20.153387
      vertex -8.652476 -10.000000 21.370418
      vertex -3.658496 -10.000000 13.191734
    endloop
  endfacet
  facet normal 0.000000 -1.000000 0.000000
    outer loop
      vertex -3.658496 -10.000000 13.191734
      vertex -14.000000 -10.000000 23.751289
      vertex -10.815595 -10.000000 14.713022
    endloop
  endfacet
  facet normal 0.000000 -1.000000 0.000000
    outer loop
      vertex -10.815595 -10.000000 14.713022
      vertex -18.735657 -10.000000 27.191945
      vertex -17.500000 -10.000000 17.689111
    endloop
  endfacet
  facet normal 0.000000 -1.000000 0.000000
    outer loop
      vertex -18.735657 -10.000000 27.191945
      vertex -22.652476 -10.000000 31.542013
      vertex -17.500000 -10.000000 17.689111
    endloop
  endfacet
  facet normal 0.000000 -1.000000 0.000000
    outer loop
      vertex -22.652476 -10.000000 31.542013
      vertex -25.579273 -10.000000 36.611374
      vertex -17.500000 -10.000000 17.689111
    endloop
  endfacet
  facet normal 0.000000 -1.000000 0.000000
    outer loop
      vertex 25.579273 -10.000000 36.611374
      vertex 22.652476 -10.000000 31.542013
      vertex 31.974091 -10.000000 33.764217
    endloop
  endfacet
  facet normal 0.000000 -1.000000 0.000000
    outer loop
      vertex -18.735657 -10.000000 68.808055
      vertex -34.235166 -10.000000 55.276909
      vertex -22.652476 -10.000000 64.457987
    endloop
  endfacet
  facet normal -0.000000 -1.000000 0.000000
    outer loop
      vertex -3.500000 -10.000000 75.724775
      vertex -3.500000 -10.000000 80.000000
      vertex -8.652476 -10.000000 74.629582
    endloop
  endfacet
  facet normal -0.000000 -1.000000 0.000000
    outer loop
      vertex -10.000000 -10.000000 80.000000
      vertex -34.235166 -10.000000 55.276909
      vertex -18.735657 -10.000000 68.808055
    endloop
  endfacet
  facet normal -0.000000 -1.000000 0.000000
    outer loop
      vertex -3.500000 -10.000000 80.000000
      vertex -18.735657 -10.000000 68.808055
      vertex -14.000000 -10.000000 72.248711
    endloop
  endfacet
  facet normal -0.000000 -1.000000 0.000000
    outer loop
      vertex -3.500000 -10.000000 80.000000
      vertex -14.000000 -10.000000 72.248711
      vertex -8.652476 -10.000000 74.629582
    endloop
  endfacet
  facet normal 0.000000 -1.000000 0.000000
    outer loop
      vertex -10.000000 -10.000000 80.000000
      vertex -18.735657 -10.000000 68.808055
      vertex -3.500000 -10.000000 80.000000
    endloop
  endfacet
  facet normal 0.000000 -1.000000 0.000000
    outer loop
      vertex -10.000000 -10.000000 81.460338
      vertex -34.235166 -10.000000 55.276909
      vertex -10.000000 -10.000000 80.000000
    endloop
  endfacet
  facet normal -0.000000 -1.000000 0.000000
    outer loop
      vertex -10.815595 -10.000000 81.286978
      vertex -34.235166 -10.000000 55.276909
      vertex -10.000000 -10.000000 81.460338
    endloop
  endfacet
  facet normal -0.000000 -1.000000 0.000000
    outer loop
      vertex -17.500000 -10.000000 78.310889
      vertex -34.235166 -10.000000 55.276909
      vertex -10.815595 -10.000000 81.286978
    endloop
  endfacet
  facet normal 0.000000 -1.000000 -0.000000
    outer loop
      vertex -23.419571 -10.000000 74.010069
      vertex -34.235166 -10.000000 55.276909
      vertex -17.500000 -10.000000 78.310889
    endloop
  endfacet
  facet normal -0.000000 -1.000000 0.000000
    outer loop
      vertex -28.315595 -10.000000 68.572484
      vertex -34.235166 -10.000000 55.276909
      vertex -23.419571 -10.000000 74.010069
    endloop
  endfacet
  facet normal -0.000000 -1.000000 0.000000
    outer loop
      vertex -31.974091 -10.000000 62.235783
      vertex -34.235166 -10.000000 55.276909
      vertex -28.315595 -10.000000 68.572484
    endloop
  endfacet
  facet normal 0.000000 -1.000000 0.000000
    outer loop
      vertex 3.500000 -10.000000 80.000000
      vertex 3.500000 -10.000000 75.724775
      vertex 10.000000 -10.000000 80.000000
    endloop
  endfacet
  facet normal 0.000000 -1.000000 0.000000
    outer loop
      vertex 10.000000 -10.000000 81.460338
      vertex 10.000000 -10.000000 80.000000
      vertex 10.815595 -10.000000 81.286978
    endloop
  endfacet
  facet normal 0.000000 -1.000000 0.000000
    outer loop
      vertex 27.388133 -10.000000 42.178473
      vertex 25.579273 -10.000000 36.611374
      vertex 34.235166 -10.000000 40.723091
    endloop
  endfacet
  facet normal -0.000000 -1.000000 -0.000000
    outer loop
      vertex -27.388133 -10.000000 42.178473
      vertex -28.000000 -10.000000 48.000000
      vertex -34.235166 -10.000000 55.276909
    endloop
  endfacet
  facet normal 0.000000 -1.000000 0.000000
    outer loop
      vertex -28.000000 -10.000000 48.000000
      vertex -27.388133 -10.000000 53.821527
      vertex -34.235166 -10.000000 55.276909
    endloop
  endfacet
  facet normal 0.000000 -1.000000 -0.000000
    outer loop
      vertex -27.388133 -10.000000 53.821527
      vertex -25.579273 -10.000000 59.388626
      vertex -34.235166 -10.000000 55.276909
    endloop
  endfacet
  facet normal -0.994522 -0.000000 -0.104528
    outer loop
      vertex -35.000000 -10.000000 48.000000
      vertex -35.000000 10.000000 48.000000
      vertex -34.235166 -10.000000 40.723091
    endloop
  endfacet
  facet normal -0.994522 -0.000000 -0.104528
    outer loop
      vertex -34.235166 -10.000000 40.723091
      vertex -35.000000 10.000000 48.000000
      vertex -34.235166 10.000000 40.723091
    endloop
  endfacet
  facet normal -0.994522 0.000000 0.104528
    outer loop
      vertex -35.000000 -10.000000 48.000000
      vertex -34.235166 -10.000000 55.276909
      vertex -35.000000 10.000000 48.000000
    endloop
  endfacet
  facet normal -0.994522 0.000000 0.104528
    outer loop
      vertex -35.000000 10.000000 48.000000
      vertex -34.235166 -10.000000 55.276909
      vertex -34.235166 10.000000 55.276909
    endloop
  endfacet
  facet normal -0.951057 0.000000 0.309017
    outer loop
      vertex -34.235166 -10.000000 55.276909
      vertex -31.974091 -10.000000 62.235783
      vertex -34.235166 10.000000 55.276909
    endloop
  endfacet
  facet normal -0.951057 0.000000 0.309017
    outer loop
      vertex -34.235166 10.000000 55.276909
      vertex -31.974091 -10.000000 62.235783
      vertex -31.974091 10.000000 62.235783
    endloop
  endfacet
  facet normal -0.866025 0.000000 0.500000
    outer loop
      vertex -31.974091 -10.000000 62.235783
      vertex -28.315595 -10.000000 68.572484
      vertex -31.974091 10.000000 62.235783
    endloop
  endfacet
  facet normal -0.866025 0.000000 0.500000
    outer loop
      vertex -31.974091 10.000000 62.235783
      vertex -28.315595 -10.000000 68.572484
      vertex -28.315595 10.000000 68.572484
    endloop
  endfacet
  facet normal -0.743145 0.000000 0.669131
    outer loop
      vertex -28.315595 -10.000000 68.572484
      vertex -23.419571 -10.000000 74.010069
      vertex -28.315595 10.000000 68.572484
    endloop
  endfacet
  facet normal -0.743145 0.000000 0.669131
    outer loop
      vertex -28.315595 10.000000 68.572484
      vertex -23.419571 -10.000000 74.010069
      vertex -23.419571 10.000000 74.010069
    endloop
  endfacet
  facet normal -0.587785 0.000000 0.809017
    outer loop
      vertex -23.419571 10.000000 74.010069
      vertex -23.419571 -10.000000 74.010069
      vertex -17.500000 -10.000000 78.310889
    endloop
  endfacet
  facet normal -0.587785 0.000000 0.809017
    outer loop
      vertex -17.500000 10.000000 78.310889
      vertex -23.419571 10.000000 74.010069
      vertex -17.500000 -10.000000 78.310889
    endloop
  endfacet
  facet normal -0.406737 0.000000 0.913545
    outer loop
      vertex -17.500000 10.000000 78.310889
      vertex -17.500000 -10.000000 78.310889
      vertex -10.815595 -10.000000 81.286978
    endloop
  endfacet
  facet normal -0.406737 0.000000 0.913545
    outer loop
      vertex -10.815595 10.000000 81.286978
      vertex -17.500000 10.000000 78.310889
      vertex -10.815595 -10.000000 81.286978
    endloop
  endfacet
  facet normal -0.207912 0.000000 0.978148
    outer loop
      vertex -10.815595 10.000000 81.286978
      vertex -10.815595 -10.000000 81.286978
      vertex -10.000000 -10.000000 81.460338
    endloop
  endfacet
  facet normal -0.000000 -0.000000 0.000000
    outer loop
      vertex -3.658496 10.000000 82.808266
      vertex -10.815595 10.000000 81.286978
      vertex -10.000000 10.000000 81.460338
    endloop
  endfacet
  facet normal -0.207912 0.000000 0.978148
    outer loop
      vertex -10.000000 10.000000 81.460338
      vertex -10.815595 10.000000 81.286978
      vertex -10.000000 -10.000000 81.460338
    endloop
  endfacet
  facet normal -1.000000 0.000000 -0.000000
    outer loop
      vertex -10.000000 -10.000000 81.460338
      vertex -10.000000 -10.000000 100.000000
      vertex -10.000000 10.000000 100.000000
    endloop
  endfacet
  facet normal -0.000000 0.000000 0.000000
    outer loop
      vertex -10.000000 -10.000000 80.000000
      vertex -10.000000 -10.000000 100.000000
      vertex -10.000000 -10.000000 81.460338
    endloop
  endfacet
  facet normal -1.000000 -0.000000 0.000000
    outer loop
      vertex -10.000000 -10.000000 81.460338
      vertex -10.000000 10.000000 100.000000
      vertex -10.000000 10.000000 81.460338
    endloop
  endfacet
  facet normal 1.000000 0.000000 -0.000000
    outer loop
      vertex -3.500000 -10.000000 80.000000
      vertex -3.500000 -10.000000 75.724775
      vertex -3.500000 10.000000 75.724775
    endloop
  endfacet
  facet normal 1.000000 0.000000 0.000000
    outer loop
      vertex -3.500000 10.000000 82.808266
      vertex -3.500000 -10.000000 80.000000
      vertex -3.500000 10.000000 75.724775
    endloop
  endfacet
  facet normal 1.000000 0.000000 0.000000
    outer loop
      vertex -3.500000 10.000000 100.000000
      vertex -3.500000 -10.000000 80.000000
      vertex -3.500000 10.000000 82.808266
    endloop
  endfacet
  facet normal 1.000000 0.000000 0.000000
    outer loop
      vertex -3.500000 -10.000000 100.000000
      vertex -3.500000 -10.000000 80.000000
      vertex -3.500000 10.000000 100.000000
    endloop
  endfacet
  facet normal 0.207912 0.000000 -0.978148
    outer loop
      vertex -3.500000 10.000000 75.724775
      vertex -3.500000 -10.000000 75.724775
      vertex -8.652476 10.000000 74.629582
    endloop
  endfacet
  facet normal 0.207912 0.000000 -0.978148
    outer loop
      vertex -8.652476 10.000000 74.629582
      vertex -3.500000 -10.000000 75.724775
      vertex -8.652476 -10.000000 74.629582
    endloop
  endfacet
  facet normal 0.406737 0.000000 -0.913545
    outer loop
      vertex -8.652476 10.000000 74.629582
      vertex -8.652476 -10.000000 74.629582
      vertex -14.000000 10.000000 72.248711
    endloop
  endfacet
  facet normal 0.406737 0.000000 -0.913545
    outer loop
      vertex -14.000000 10.000000 72.248711
      vertex -8.652476 -10.000000 74.629582
      vertex -14.000000 -10.000000 72.248711
    endloop
  endfacet
  facet normal 0.587785 0.000000 -0.809017
    outer loop
      vertex -14.000000 10.000000 72.248711
      vertex -14.000000 -10.000000 72.248711
      vertex -18.735657 10.000000 68.808055
    endloop
  endfacet
  facet normal 0.587785 0.000000 -0.809017
    outer loop
      vertex -18.735657 10.000000 68.808055
      vertex -14.000000 -10.000000 72.248711
      vertex -18.735657 -10.000000 68.808055
    endloop
  endfacet
  facet normal 0.743145 0.000000 -0.669131
    outer loop
      vertex -22.652476 10.000000 64.457987
      vertex -18.735657 10.000000 68.808055
      vertex -18.735657 -10.000000 68.808055
    endloop
  endfacet
  facet normal 0.743145 0.000000 -0.669131
    outer loop
      vertex -22.652476 -10.000000 64.457987
      vertex -22.652476 10.000000 64.457987
      vertex -18.735657 -10.000000 68.808055
    endloop
  endfacet
  facet normal 0.866025 0.000000 -0.500000
    outer loop
      vertex -25.579273 10.000000 59.388626
      vertex -22.652476 10.000000 64.457987
      vertex -22.652476 -10.000000 64.457987
    endloop
  endfacet
  facet normal 0.866025 0.000000 -0.500000
    outer loop
      vertex -25.579273 -10.000000 59.388626
      vertex -25.579273 10.000000 59.388626
      vertex -22.652476 -10.000000 64.457987
    endloop
  endfacet
  facet normal 0.951057 0.000000 -0.309017
    outer loop
      vertex -27.388133 10.000000 53.821527
      vertex -25.579273 10.000000 59.388626
      vertex -25.579273 -10.000000 59.388626
    endloop
  endfacet
  facet normal 0.951057 0.000000 -0.309017
    outer loop
      vertex -27.388133 -10.000000 53.821527
      vertex -27.388133 10.000000 53.821527
      vertex -25.579273 -10.000000 59.388626
    endloop
  endfacet
  facet normal 0.994522 0.000000 -0.104528
    outer loop
      vertex -28.000000 10.000000 48.000000
      vertex -27.388133 10.000000 53.821527
      vertex -27.388133 -10.000000 53.821527
    endloop
  endfacet
  facet normal 0.994522 0.000000 -0.104528
    outer loop
      vertex -28.000000 -10.000000 48.000000
      vertex -28.000000 10.000000 48.000000
      vertex -27.388133 -10.000000 53.821527
    endloop
  endfacet
  facet normal 0.994522 0.000000 0.104528
    outer loop
      vertex -27.388133 -10.000000 42.178473
      vertex -27.388133 10.000000 42.178473
      vertex -28.000000 10.000000 48.000000
    endloop
  endfacet
  facet normal 0.994522 0.000000 0.104528
    outer loop
      vertex -28.000000 -10.000000 48.000000
      vertex -27.388133 -10.000000 42.178473
      vertex -28.000000 10.000000 48.000000
    endloop
  endfacet
  facet normal 0.951057 0.000000 0.309017
    outer loop
      vertex -25.579273 -10.000000 36.611374
      vertex -25.579273 10.000000 36.611374
      vertex -27.388133 10.000000 42.178473
    endloop
  endfacet
  facet normal 0.951057 0.000000 0.309017
    outer loop
      vertex -27.388133 -10.000000 42.178473
      vertex -25.579273 -10.000000 36.611374
      vertex -27.388133 10.000000 42.178473
    endloop
  endfacet
  facet normal 0.866025 0.000000 0.500000
    outer loop
      vertex -22.652476 -10.000000 31.542013
      vertex -22.652476 10.000000 31.542013
      vertex -25.579273 10.000000 36.611374
    endloop
  endfacet
  facet normal 0.866025 0.000000 0.500000
    outer loop
      vertex -25.579273 -10.000000 36.611374
      vertex -22.652476 -10.000000 31.542013
      vertex -25.579273 10.000000 36.611374
    endloop
  endfacet
  facet normal 0.743145 0.000000 0.669131
    outer loop
      vertex -18.735657 -10.000000 27.191945
      vertex -18.735657 10.000000 27.191945
      vertex -22.652476 10.000000 31.542013
    endloop
  endfacet
  facet normal 0.743145 0.000000 0.669131
    outer loop
      vertex -22.652476 -10.000000 31.542013
      vertex -18.735657 -10.000000 27.191945
      vertex -22.652476 10.000000 31.542013
    endloop
  endfacet
  facet normal 0.587785 0.000000 0.809017
    outer loop
      vertex -14.000000 -10.000000 23.751289
      vertex -14.000000 10.000000 23.751289
      vertex -18.735657 10.000000 27.191945
    endloop
  endfacet
  facet normal 0.587785 0.000000 0.809017
    outer loop
      vertex -18.735657 -10.000000 27.191945
      vertex -14.000000 -10.000000 23.751289
      vertex -18.735657 10.000000 27.191945
    endloop
  endfacet
  facet normal 0.406737 0.000000 0.913545
    outer loop
      vertex -8.652476 -10.000000 21.370418
      vertex -8.652476 10.000000 21.370418
      vertex -14.000000 10.000000 23.751289
    endloop
  endfacet
  facet normal 0.406737 0.000000 0.913545
    outer loop
      vertex -14.000000 -10.000000 23.751289
      vertex -8.652476 -10.000000 21.370418
      vertex -14.000000 10.000000 23.751289
    endloop
  endfacet
  facet normal 0.207912 0.000000 0.978148
    outer loop
      vertex -2.926797 -10.000000 20.153387
      vertex -2.926797 10.000000 20.153387
      vertex -8.652476 10.000000 21.370418
    endloop
  endfacet
  facet normal 0.207912 0.000000 0.978148
    outer loop
      vertex -8.652476 -10.000000 21.370418
      vertex -2.926797 -10.000000 20.153387
      vertex -8.652476 10.000000 21.370418
    endloop
  endfacet
  facet normal 0.000000 0.000000 1.000000
    outer loop
      vertex 2.926797 -10.000000 20.153387
      vertex 2.926797 10.000000 20.153387
      vertex -2.926797 10.000000 20.153387
    endloop
  endfacet
  facet normal 0.000000 0.000000 1.000000
    outer loop
      vertex -2.926797 -10.000000 20.153387
      vertex 2.926797 -10.000000 20.153387
      vertex -2.926797 10.000000 20.153387
    endloop
  endfacet
  facet normal -0.207912 0.000000 0.978148
    outer loop
      vertex 8.652476 -10.000000 21.370418
      vertex 8.652476 10.000000 21.370418
      vertex 2.926797 10.000000 20.153387
    endloop
  endfacet
  facet normal -0.207912 0.000000 0.978148
    outer loop
      vertex 2.926797 -10.000000 20.153387
      vertex 8.652476 -10.000000 21.370418
      vertex 2.926797 10.000000 20.153387
    endloop
  endfacet
  facet normal -0.406737 0.000000 0.913545
    outer loop
      vertex 14.000000 -10.000000 23.751289
      vertex 14.000000 10.000000 23.751289
      vertex 8.652476 10.000000 21.370418
    endloop
  endfacet
  facet normal -0.406737 0.000000 0.913545
    outer loop
      vertex 8.652476 -10.000000 21.370418
      vertex 14.000000 -10.000000 23.751289
      vertex 8.652476 10.000000 21.370418
    endloop
  endfacet
  facet normal -0.587785 0.000000 0.809017
    outer loop
      vertex 18.735657 -10.000000 27.191945
      vertex 18.735657 10.000000 27.191945
      vertex 14.000000 10.000000 23.751289
    endloop
  endfacet
  facet normal -0.587785 0.000000 0.809017
    outer loop
      vertex 14.000000 -10.000000 23.751289
      vertex 18.735657 -10.000000 27.191945
      vertex 14.000000 10.000000 23.751289
    endloop
  endfacet
  facet normal -0.743145 0.000000 0.669131
    outer loop
      vertex 22.652476 10.000000 31.542013
      vertex 18.735657 10.000000 27.191945
      vertex 22.652476 -10.000000 31.542013
    endloop
  endfacet
  facet normal -0.743145 0.000000 0.669131
    outer loop
      vertex 22.652476 -10.000000 31.542013
      vertex 18.735657 10.000000 27.191945
      vertex 18.735657 -10.000000 27.191945
    endloop
  endfacet
  facet normal -0.866025 0.000000 0.500000
    outer loop
      vertex 25.579273 10.000000 36.611374
      vertex 22.652476 10.000000 31.542013
      vertex 25.579273 -10.000000 36.611374
    endloop
  endfacet
  facet normal -0.866025 0.000000 0.500000
    outer loop
      vertex 25.579273 -10.000000 36.611374
      vertex 22.652476 10.000000 31.542013
      vertex 22.652476 -10.000000 31.542013
    endloop
  endfacet
  facet normal -0.951057 0.000000 0.309017
    outer loop
      vertex 27.388133 10.000000 42.178473
      vertex 25.579273 10.000000 36.611374
      vertex 27.388133 -10.000000 42.178473
    endloop
  endfacet
  facet normal -0.951057 0.000000 0.309017
    outer loop
      vertex 27.388133 -10.000000 42.178473
      vertex 25.579273 10.000000 36.611374
      vertex 25.579273 -10.000000 36.611374
    endloop
  endfacet
  facet normal -0.994522 0.000000 0.104528
    outer loop
      vertex 28.000000 10.000000 48.000000
      vertex 27.388133 10.000000 42.178473
      vertex 28.000000 -10.000000 48.000000
    endloop
  endfacet
  facet normal -0.994522 0.000000 0.104528
    outer loop
      vertex 28.000000 -10.000000 48.000000
      vertex 27.388133 10.000000 42.178473
      vertex 27.388133 -10.000000 42.178473
    endloop
  endfacet
  facet normal -0.994522 0.000000 -0.104528
    outer loop
      vertex 28.000000 10.000000 48.000000
      vertex 28.000000 -10.000000 48.000000
      vertex 27.388133 10.000000 53.821527
    endloop
  endfacet
  facet normal -0.994522 0.000000 -0.104528
    outer loop
      vertex 27.388133 10.000000 53.821527
      vertex 28.000000 -10.000000 48.000000
      vertex 27.388133 -10.000000 53.821527
    endloop
  endfacet
  facet normal -0.951057 0.000000 -0.309017
    outer loop
      vertex 27.388133 10.000000 53.821527
      vertex 27.388133 -10.000000 53.821527
      vertex 25.579273 10.000000 59.388626
    endloop
  endfacet
  facet normal -0.951057 0.000000 -0.309017
    outer loop
      vertex 25.579273 10.000000 59.388626
      vertex 27.388133 -10.000000 53.821527
      vertex 25.579273 -10.000000 59.388626
    endloop
  endfacet
  facet normal -0.866025 0.000000 -0.500000
    outer loop
      vertex 25.579273 10.000000 59.388626
      vertex 25.579273 -10.000000 59.388626
      vertex 22.652476 10.000000 64.457987
    endloop
  endfacet
  facet normal -0.866025 0.000000 -0.500000
    outer loop
      vertex 22.652476 10.000000 64.457987
      vertex 25.579273 -10.000000 59.388626
      vertex 22.652476 -10.000000 64.457987
    endloop
  endfacet
  facet normal -0.743145 0.000000 -0.669131
    outer loop
      vertex 22.652476 10.000000 64.457987
      vertex 22.652476 -10.000000 64.457987
      vertex 18.735657 10.000000 68.808055
    endloop
  endfacet
  facet normal -0.743145 0.000000 -0.669131
    outer loop
      vertex 18.735657 10.000000 68.808055
      vertex 22.652476 -10.000000 64.457987
      vertex 18.735657 -10.000000 68.808055
    endloop
  endfacet
  facet normal -0.587785 0.000000 -0.809017
    outer loop
      vertex 18.735657 10.000000 68.808055
      vertex 18.735657 -10.000000 68.808055
      vertex 14.000000 10.000000 72.248711
    endloop
  endfacet
  facet normal -0.587785 0.000000 -0.809017
    outer loop
      vertex 14.000000 10.000000 72.248711
      vertex 18.735657 -10.000000 68.808055
      vertex 14.000000 -10.000000 72.248711
    endloop
  endfacet
  facet normal -0.406737 0.000000 -0.913545
    outer loop
      vertex 14.000000 10.000000 72.248711
      vertex 14.000000 -10.000000 72.248711
      vertex 8.652476 10.000000 74.629582
    endloop
  endfacet
  facet normal -0.406737 0.000000 -0.913545
    outer loop
      vertex 8.652476 10.000000 74.629582
      vertex 14.000000 -10.000000 72.248711
      vertex 8.652476 -10.000000 74.629582
    endloop
  endfacet
  facet normal -0.207912 0.000000 -0.978148
    outer loop
      vertex 8.652476 10.000000 74.629582
      vertex 8.652476 -10.000000 74.629582
      vertex 3.500000 10.000000 75.724775
    endloop
  endfacet
  facet normal -0.207912 0.000000 -0.978148
    outer loop
      vertex 3.500000 10.000000 75.724775
      vertex 8.652476 -10.000000 74.629582
      vertex 3.500000 -10.000000 75.724775
    endloop
  endfacet
  facet normal -1.000000 0.000000 0.000000
    outer loop
      vertex 3.500000 10.000000 100.000000
      vertex 3.500000 10.000000 82.808266
      vertex 3.500000 -10.000000 100.000000
    endloop
  endfacet
  facet normal -1.000000 0.000000 0.000000
    outer loop
      vertex 3.500000 -10.000000 100.000000
      vertex 3.500000 10.000000 82.808266
      vertex 3.500000 10.000000 75.724775
    endloop
  endfacet
  facet normal -1.000000 0.000000 0.000000
    outer loop
      vertex 3.500000 -10.000000 80.000000
      vertex 3.500000 10.000000 75.724775
      vertex 3.500000 -10.000000 75.724775
    endloop
  endfacet
  facet normal -1.000000 0.000000 0.000000
    outer loop
      vertex 3.500000 -10.000000 100.000000
      vertex 3.500000 10.000000 75.724775
      vertex 3.500000 -10.000000 80.000000
    endloop
  endfacet
  facet normal 1.000000 -0.000000 0.000000
    outer loop
      vertex 10.000000 10.000000 81.460338
      vertex 10.000000 -10.000000 100.000000
      vertex 10.000000 -10.000000 81.460338
    endloop
  endfacet
  facet normal 0.000000 -0.000000 0.000000
    outer loop
      vertex 10.000000 -10.000000 81.460338
      vertex 10.000000 -10.000000 100.000000
      vertex 10.000000 -10.000000 80.000000
    endloop
  endfacet
  facet normal 1.000000 -0.000000 0.000000
    outer loop
      vertex 10.000000 10.000000 100.000000
      vertex 10.000000 -10.000000 100.000000
      vertex 10.000000 10.000000 81.460338
    endloop
  endfacet
  facet normal 0.000000 -0.000000 0.000000
    outer loop
      vertex 10.815595 10.000000 81.286978
      vertex 3.658496 10.000000 82.808266
      vertex 10.000000 10.000000 81.460338
    endloop
  endfacet
  facet normal 0.207912 0.000000 0.978148
    outer loop
      vertex 10.000000 -10.000000 81.460338
      vertex 10.815595 -10.000000 81.286978
      vertex 10.000000 10.000000 81.460338
    endloop
  endfacet
  facet normal 0.207912 0.000000 0.978148
    outer loop
      vertex 10.815595 -10.000000 81.286978
      vertex 10.815595 10.000000 81.286978
      vertex 10.000000 10.000000 81.460338
    endloop
  endfacet
  facet normal 0.406737 -0.000000 0.913545
    outer loop
      vertex 10.815595 10.000000 81.286978
      vertex 10.815595 -10.000000 81.286978
      vertex 17.500000 -10.000000 78.310889
    endloop
  endfacet
  facet normal 0.406737 -0.000000 0.913545
    outer loop
      vertex 17.500000 10.000000 78.310889
      vertex 10.815595 10.000000 81.286978
      vertex 17.500000 -10.000000 78.310889
    endloop
  endfacet
  facet normal 0.587785 -0.000000 0.809017
    outer loop
      vertex 17.500000 10.000000 78.310889
      vertex 17.500000 -10.000000 78.310889
      vertex 23.419571 -10.000000 74.010069
    endloop
  endfacet
  facet normal 0.587785 -0.000000 0.809017
    outer loop
      vertex 23.419571 10.000000 74.010069
      vertex 17.500000 10.000000 78.310889
      vertex 23.419571 -10.000000 74.010069
    endloop
  endfacet
  facet normal 0.743145 -0.000000 0.669131
    outer loop
      vertex 23.419571 10.000000 74.010069
      vertex 23.419571 -10.000000 74.010069
      vertex 28.315595 -10.000000 68.572484
    endloop
  endfacet
  facet normal 0.743145 -0.000000 0.669131
    outer loop
      vertex 28.315595 10.000000 68.572484
      vertex 23.419571 10.000000 74.010069
      vertex 28.315595 -10.000000 68.572484
    endloop
  endfacet
  facet normal 0.866025 -0.000000 0.500000
    outer loop
      vertex 28.315595 10.000000 68.572484
      vertex 28.315595 -10.000000 68.572484
      vertex 31.974091 -10.000000 62.235783
    endloop
  endfacet
  facet normal 0.866025 -0.000000 0.500000
    outer loop
      vertex 31.974091 10.000000 62.235783
      vertex 28.315595 10.000000 68.572484
      vertex 31.974091 -10.000000 62.235783
    endloop
  endfacet
  facet normal 0.951057 -0.000000 0.309017
    outer loop
      vertex 31.974091 10.000000 62.235783
      vertex 31.974091 -10.000000 62.235783
      vertex 34.235166 -10.000000 55.276909
    endloop
  endfacet
  facet normal 0.951057 -0.000000 0.309017
    outer loop
      vertex 34.235166 10.000000 55.276909
      vertex 31.974091 10.000000 62.235783
      vertex 34.235166 -10.000000 55.276909
    endloop
  endfacet
  facet normal 0.994522 -0.000000 0.104528
    outer loop
      vertex 34.235166 10.000000 55.276909
      vertex 34.235166 -10.000000 55.276909
      vertex 35.000000 -10.000000 48.000000
    endloop
  endfacet
  facet normal 0.994522 -0.000000 0.104528
    outer loop
      vertex 35.000000 10.000000 48.000000
      vertex 34.235166 10.000000 55.276909
      vertex 35.000000 -10.000000 48.000000
    endloop
  endfacet
  facet normal 0.994522 0.000000 -0.104528
    outer loop
      vertex 35.000000 -10.000000 48.000000
      vertex 34.235166 -10.000000 40.723091
      vertex 34.235166 10.000000 40.723091
    endloop
  endfacet
  facet normal 0.994522 0.000000 -0.104528
    outer loop
      vertex 35.000000 10.000000 48.000000
      vertex 35.000000 -10.000000 48.000000
      vertex 34.235166 10.000000 40.723091
    endloop
  endfacet
  facet normal 0.951057 0.000000 -0.309017
    outer loop
      vertex 34.235166 -10.000000 40.723091
      vertex 31.974091 -10.000000 33.764217
      vertex 31.974091 10.000000 33.764217
    endloop
  endfacet
  facet normal 0.951057 0.000000 -0.309017
    outer loop
      vertex 34.235166 10.000000 40.723091
      vertex 34.235166 -10.000000 40.723091
      vertex 31.974091 10.000000 33.764217
    endloop
  endfacet
  facet normal 0.866025 0.000000 -0.500000
    outer loop
      vertex 31.974091 -10.000000 33.764217
      vertex 28.315595 -10.000000 27.427516
      vertex 28.315595 10.000000 27.427516
    endloop
  endfacet
  facet normal 0.866025 0.000000 -0.500000
    outer loop
      vertex 31.974091 10.000000 33.764217
      vertex 31.974091 -10.000000 33.764217
      vertex 28.315595 10.000000 27.427516
    endloop
  endfacet
  facet normal 0.743145 0.000000 -0.669131
    outer loop
      vertex 28.315595 -10.000000 27.427516
      vertex 23.419571 -10.000000 21.989931
      vertex 23.419571 10.000000 21.989931
    endloop
  endfacet
  facet normal 0.743145 0.000000 -0.669131
    outer loop
      vertex 28.315595 10.000000 27.427516
      vertex 28.315595 -10.000000 27.427516
      vertex 23.419571 10.000000 21.989931
    endloop
  endfacet
  facet normal 0.587785 0.000000 -0.809017
    outer loop
      vertex 17.500000 -10.000000 17.689111
      vertex 17.500000 10.000000 17.689111
      vertex 23.419571 -10.000000 21.989931
    endloop
  endfacet
  facet normal 0.587785 0.000000 -0.809017
    outer loop
      vertex 23.419571 -10.000000 21.989931
      vertex 17.500000 10.000000 17.689111
      vertex 23.419571 10.000000 21.989931
    endloop
  endfacet
  facet normal 0.406737 0.000000 -0.913545
    outer loop
      vertex 10.815595 -10.000000 14.713022
      vertex 10.815595 10.000000 14.713022
      vertex 17.500000 -10.000000 17.689111
    endloop
  endfacet
  facet normal 0.406737 0.000000 -0.913545
    outer loop
      vertex 17.500000 -10.000000 17.689111
      vertex 10.815595 10.000000 14.713022
      vertex 17.500000 10.000000 17.689111
    endloop
  endfacet
  facet normal 0.000000 0.000000 -0.000000
    outer loop
      vertex 10.815595 -10.000000 14.713022
      vertex 3.658496 -10.000000 13.191734
      vertex 10.000000 -10.000000 14.539662
    endloop
  endfacet
  facet normal 0.207912 -0.000000 -0.978148
    outer loop
      vertex 10.815595 -10.000000 14.713022
      vertex 10.000000 -10.000000 14.539662
      vertex 10.000000 10.000000 14.539662
    endloop
  endfacet
  facet normal 0.207912 0.000000 -0.978148
    outer loop
      vertex 10.815595 -10.000000 14.713022
      vertex 10.000000 10.000000 14.539662
      vertex 10.815595 10.000000 14.713022
    endloop
  endfacet
  facet normal -0.207912 -0.000000 -0.978148
    outer loop
      vertex -10.815595 -10.000000 14.713022
      vertex -10.815595 10.000000 14.713022
      vertex -10.000000 -10.000000 14.539662
    endloop
  endfacet
  facet normal -0.000000 0.000000 -0.000000
    outer loop
      vertex -10.815595 -10.000000 14.713022
      vertex -10.000000 -10.000000 14.539662
      vertex -3.658496 -10.000000 13.191734
    endloop
  endfacet
  facet normal -0.207912 -0.000000 -0.978148
    outer loop
      vertex -10.000000 -10.000000 14.539662
      vertex -10.815595 10.000000 14.713022
      vertex -10.000000 10.000000 14.539662
    endloop
  endfacet
  facet normal -0.406737 -0.000000 -0.913545
    outer loop
      vertex -17.500000 -10.000000 17.689111
      vertex -17.500000 10.000000 17.689111
      vertex -10.815595 -10.000000 14.713022
    endloop
  endfacet
  facet normal -0.406737 -0.000000 -0.913545
    outer loop
      vertex -10.815595 -10.000000 14.713022
      vertex -17.500000 10.000000 17.689111
      vertex -10.815595 10.000000 14.713022
    endloop
  endfacet
  facet normal -0.587785 -0.000000 -0.809017
    outer loop
      vertex -23.419571 -10.000000 21.989931
      vertex -23.419571 10.000000 21.989931
      vertex -17.500000 -10.000000 17.689111
    endloop
  endfacet
  facet normal -0.587785 -0.000000 -0.809017
    outer loop
      vertex -17.500000 -10.000000 17.689111
      vertex -23.419571 10.000000 21.989931
      vertex -17.500000 10.000000 17.689111
    endloop
  endfacet
  facet normal -0.743145 -0.000000 -0.669131
    outer loop
      vertex -28.315595 -10.000000 27.427516
      vertex -28.315595 10.000000 27.427516
      vertex -23.419571 -10.000000 21.989931
    endloop
  endfacet
  facet normal -0.743145 -0.000000 -0.669131
    outer loop
      vertex -23.419571 -10.000000 21.989931
      vertex -28.315595 10.000000 27.427516
      vertex -23.419571 10.000000 21.989931
    endloop
  endfacet
  facet normal -0.866025 -0.000000 -0.500000
    outer loop
      vertex -31.974091 -10.000000 33.764217
      vertex -31.974091 10.000000 33.764217
      vertex -28.315595 -10.000000 27.427516
    endloop
  endfacet
  facet normal -0.866025 -0.000000 -0.500000
    outer loop
      vertex -28.315595 -10.000000 27.427516
      vertex -31.974091 10.000000 33.764217
      vertex -28.315595 10.000000 27.427516
    endloop
  endfacet
  facet normal -0.951057 -0.000000 -0.309017
    outer loop
      vertex -34.235166 -10.000000 40.723091
      vertex -34.235166 10.000000 40.723091
      vertex -31.974091 -10.000000 33.764217
    endloop
  endfacet
  facet normal -0.951057 -0.000000 -0.309017
    outer loop
      vertex -31.974091 -10.000000 33.764217
      vertex -34.235166 10.000000 40.723091
      vertex -31.974091 10.000000 33.764217
    endloop
  endfacet
  facet normal 0.000000 1.000000 -0.000000
    outer loop
      vertex -35.000000 10.000000 48.000000
      vertex -34.235166 10.000000 55.276909
      vertex -34.235166 10.000000 40.723091
    endloop
  endfacet
  facet normal 0.000000 1.000000 -0.000000
    outer loop
      vertex -34.235166 10.000000 40.723091
      vertex -34.235166 10.000000 55.276909
      vertex -31.974091 10.000000 62.235783
    endloop
  endfacet
  facet normal 0.000000 1.000000 -0.000000
    outer loop
      vertex -34.235166 10.000000 40.723091
      vertex -31.974091 10.000000 62.235783
      vertex -28.315595 10.000000 68.572484
    endloop
  endfacet
  facet normal 0.000000 1.000000 -0.000000
    outer loop
      vertex -34.235166 10.000000 40.723091
      vertex -28.315595 10.000000 68.572484
      vertex -23.419571 10.000000 74.010069
    endloop
  endfacet
  facet normal -0.000000 1.000000 0.000000
    outer loop
      vertex -34.235166 10.000000 40.723091
      vertex -23.419571 10.000000 74.010069
      vertex -17.500000 10.000000 78.310889
    endloop
  endfacet
  facet normal 0.000000 1.000000 -0.000000
    outer loop
      vertex -18.735657 10.000000 68.808055
      vertex -17.500000 10.000000 78.310889
      vertex -10.815595 10.000000 81.286978
    endloop
  endfacet
  facet normal 0.000000 1.000000 -0.000000
    outer loop
      vertex -14.000000 10.000000 72.248711
      vertex -10.815595 10.000000 81.286978
      vertex -3.658496 10.000000 82.808266
    endloop
  endfacet
  facet normal 0.000000 1.000000 -0.000000
    outer loop
      vertex -8.652476 10.000000 74.629582
      vertex -3.500000 10.000000 82.808266
      vertex -3.500000 10.000000 75.724775
    endloop
  endfacet
  facet normal 0.000000 1.000000 -0.000000
    outer loop
      vertex -18.735657 10.000000 68.808055
      vertex -10.815595 10.000000 81.286978
      vertex -14.000000 10.000000 72.248711
    endloop
  endfacet
  facet normal 0.000000 1.000000 -0.000000
    outer loop
      vertex -22.652476 10.000000 64.457987
      vertex -17.500000 10.000000 78.310889
      vertex -18.735657 10.000000 68.808055
    endloop
  endfacet
  facet normal -0.000000 1.000000 0.000000
    outer loop
      vertex -27.388133 10.000000 53.821527
      vertex -34.235166 10.000000 40.723091
      vertex -25.579273 10.000000 59.388626
    endloop
  endfacet
  facet normal 0.000000 1.000000 -0.000000
    outer loop
      vertex -25.579273 10.000000 59.388626
      vertex -17.500000 10.000000 78.310889
      vertex -22.652476 10.000000 64.457987
    endloop
  endfacet
  facet normal -0.000000 1.000000 -0.000000
    outer loop
      vertex -34.235166 10.000000 40.723091
      vertex -17.500000 10.000000 78.310889
      vertex -25.579273 10.000000 59.388626
    endloop
  endfacet
  facet normal -0.000000 1.000000 0.000000
    outer loop
      vertex -28.000000 10.000000 48.000000
      vertex -34.235166 10.000000 40.723091
      vertex -27.388133 10.000000 53.821527
    endloop
  endfacet
  facet normal 0.000000 1.000000 -0.000000
    outer loop
      vertex -27.388133 10.000000 42.178473
      vertex -34.235166 10.000000 40.723091
      vertex -28.000000 10.000000 48.000000
    endloop
  endfacet
  facet normal 0.000000 1.000000 -0.000000
    outer loop
      vertex 10.000000 10.000000 16.000000
      vertex 10.815595 10.000000 14.713022
      vertex 10.000000 10.000000 14.539662
    endloop
  endfacet
  facet normal 0.000000 1.000000 0.000000
    outer loop
      vertex -34.235166 10.000000 40.723091
      vertex -27.388133 10.000000 42.178473
      vertex -25.579273 10.000000 36.611374
    endloop
  endfacet
  facet normal -0.000000 1.000000 -0.000000
    outer loop
      vertex -25.579273 10.000000 36.611374
      vertex -22.652476 10.000000 31.542013
      vertex -34.235166 10.000000 40.723091
    endloop
  endfacet
  facet normal -0.000000 1.000000 -0.000000
    outer loop
      vertex -22.652476 10.000000 31.542013
      vertex -18.735657 10.000000 27.191945
      vertex -34.235166 10.000000 40.723091
    endloop
  endfacet
  facet normal -0.000000 1.000000 -0.000000
    outer loop
      vertex -18.735657 10.000000 27.191945
      vertex -10.000000 10.000000 16.000000
      vertex -34.235166 10.000000 40.723091
    endloop
  endfacet
  facet normal -0.000000 1.000000 -0.000000
    outer loop
      vertex -14.000000 10.000000 23.751289
      vertex -10.000000 10.000000 16.000000
      vertex -18.735657 10.000000 27.191945
    endloop
  endfacet
  facet normal -0.000000 1.000000 -0.000000
    outer loop
      vertex 3.500000 10.000000 82.808266
      vertex 14.000000 10.000000 72.248711
      vertex 8.652476 10.000000 74.629582
    endloop
  endfacet
  facet normal -0.000000 1.000000 -0.000000
    outer loop
      vertex 3.500000 10.000000 82.808266
      vertex 8.652476 10.000000 74.629582
      vertex 3.500000 10.000000 75.724775
    endloop
  endfacet
  facet normal -0.000000 1.000000 -0.000000
    outer loop
      vertex 18.735657 10.000000 68.808055
      vertex 14.000000 10.000000 72.248711
      vertex 3.500000 10.000000 82.808266
    endloop
  endfacet
  facet normal 0.000000 1.000000 -0.000000
    outer loop
      vertex 18.735657 10.000000 68.808055
      vertex 3.500000 10.000000 82.808266
      vertex 3.658496 10.000000 82.808266
    endloop
  endfacet
  facet normal -0.000000 1.000000 -0.000000
    outer loop
      vertex 18.735657 10.000000 68.808055
      vertex 3.658496 10.000000 82.808266
      vertex 10.815595 10.000000 81.286978
    endloop
  endfacet
  facet normal -0.000000 1.000000 -0.000000
    outer loop
      vertex 18.735657 10.000000 68.808055
      vertex 10.815595 10.000000 81.286978
      vertex 22.652476 10.000000 64.457987
    endloop
  endfacet
  facet normal -0.000000 1.000000 -0.000000
    outer loop
      vertex 22.652476 10.000000 64.457987
      vertex 10.815595 10.000000 81.286978
      vertex 17.500000 10.000000 78.310889
    endloop
  endfacet
  facet normal -0.000000 1.000000 -0.000000
    outer loop
      vertex 22.652476 10.000000 64.457987
      vertex 17.500000 10.000000 78.310889
      vertex 25.579273 10.000000 59.388626
    endloop
  endfacet
  facet normal 0.000000 1.000000 0.000000
    outer loop
      vertex 25.579273 10.000000 59.388626
      vertex 17.500000 10.000000 78.310889
      vertex 23.419571 10.000000 74.010069
    endloop
  endfacet
  facet normal 0.000000 1.000000 0.000000
    outer loop
      vertex 25.579273 10.000000 59.388626
      vertex 23.419571 10.000000 74.010069
      vertex 27.388133 10.000000 53.821527
    endloop
  endfacet
  facet normal 0.000000 1.000000 0.000000
    outer loop
      vertex 27.388133 10.000000 53.821527
      vertex 23.419571 10.000000 74.010069
      vertex 28.315595 10.000000 68.572484
    endloop
  endfacet
  facet normal 0.000000 1.000000 0.000000
    outer loop
      vertex 27.388133 10.000000 53.821527
      vertex 28.315595 10.000000 68.572484
      vertex 28.000000 10.000000 48.000000
    endloop
  endfacet
  facet normal 0.000000 1.000000 0.000000
    outer loop
      vertex 28.000000 10.000000 48.000000
      vertex 28.315595 10.000000 68.572484
      vertex 31.974091 10.000000 62.235783
    endloop
  endfacet
  facet normal 0.000000 1.000000 -0.000000
    outer loop
      vertex 28.000000 10.000000 48.000000
      vertex 31.974091 10.000000 62.235783
      vertex 27.388133 10.000000 42.178473
    endloop
  endfacet
  facet normal -0.000000 1.000000 -0.000000
    outer loop
      vertex 27.388133 10.000000 42.178473
      vertex 31.974091 10.000000 62.235783
      vertex 34.235166 10.000000 55.276909
    endloop
  endfacet
  facet normal -0.000000 1.000000 0.000000
    outer loop
      vertex 27.388133 10.000000 42.178473
      vertex 34.235166 10.000000 55.276909
      vertex 25.579273 10.000000 36.611374
    endloop
  endfacet
  facet normal -0.000000 1.000000 -0.000000
    outer loop
      vertex 25.579273 10.000000 36.611374
      vertex 34.235166 10.000000 55.276909
      vertex 35.000000 10.000000 48.000000
    endloop
  endfacet
  facet normal -0.000000 1.000000 0.000000
    outer loop
      vertex 25.579273 10.000000 36.611374
      vertex 35.000000 10.000000 48.000000
      vertex 22.652476 10.000000 31.542013
    endloop
  endfacet
  facet normal 0.000000 1.000000 -0.000000
    outer loop
      vertex 22.652476 10.000000 31.542013
      vertex 35.000000 10.000000 48.000000
      vertex 34.235166 10.000000 40.723091
    endloop
  endfacet
  facet normal 0.000000 1.000000 -0.000000
    outer loop
      vertex 22.652476 10.000000 31.542013
      vertex 34.235166 10.000000 40.723091
      vertex 18.735657 10.000000 27.191945
    endloop
  endfacet
  facet normal 0.000000 1.000000 0.000000
    outer loop
      vertex 18.735657 10.000000 27.191945
      vertex 34.235166 10.000000 40.723091
      vertex 31.974091 10.000000 33.764217
    endloop
  endfacet
  facet normal 0.000000 1.000000 -0.000000
    outer loop
      vertex 18.735657 10.000000 27.191945
      vertex 31.974091 10.000000 33.764217
      vertex 14.000000 10.000000 23.751289
    endloop
  endfacet
  facet normal 0.000000 1.000000 0.000000
    outer loop
      vertex 14.000000 10.000000 23.751289
      vertex 31.974091 10.000000 33.764217
      vertex 28.315595 10.000000 27.427516
    endloop
  endfacet
  facet normal 0.000000 1.000000 -0.000000
    outer loop
      vertex 14.000000 10.000000 23.751289
      vertex 28.315595 10.000000 27.427516
      vertex 8.652476 10.000000 21.370418
    endloop
  endfacet
  facet normal 0.000000 1.000000 0.000000
    outer loop
      vertex 8.652476 10.000000 21.370418
      vertex 28.315595 10.000000 27.427516
      vertex 23.419571 10.000000 21.989931
    endloop
  endfacet
  facet normal 0.000000 1.000000 -0.000000
    outer loop
      vertex 8.652476 10.000000 21.370418
      vertex 23.419571 10.000000 21.989931
      vertex 2.926797 10.000000 20.153387
    endloop
  endfacet
  facet normal 0.000000 1.000000 -0.000000
    outer loop
      vertex 2.926797 10.000000 20.153387
      vertex 23.419571 10.000000 21.989931
      vertex 17.500000 10.000000 17.689111
    endloop
  endfacet
  facet normal 0.000000 1.000000 -0.000000
    outer loop
      vertex 2.926797 10.000000 20.153387
      vertex 17.500000 10.000000 17.689111
      vertex -2.926797 10.000000 20.153387
    endloop
  endfacet
  facet normal 0.000000 1.000000 0.000000
    outer loop
      vertex 10.000000 10.000000 16.000000
      vertex 17.500000 10.000000 17.689111
      vertex 10.815595 10.000000 14.713022
    endloop
  endfacet
  facet normal 0.000000 1.000000 -0.000000
    outer loop
      vertex -10.000000 10.000000 16.000000
      vertex -2.926797 10.000000 20.153387
      vertex 10.000000 10.000000 16.000000
    endloop
  endfacet
  facet normal 0.000000 1.000000 -0.000000
    outer loop
      vertex -2.926797 10.000000 20.153387
      vertex 17.500000 10.000000 17.689111
      vertex 10.000000 10.000000 16.000000
    endloop
  endfacet
  facet normal -0.000000 1.000000 -0.000000
    outer loop
      vertex -10.000000 10.000000 16.000000
      vertex -8.652476 10.000000 21.370418
      vertex -2.926797 10.000000 20.153387
    endloop
  endfacet
  facet normal -0.000000 1.000000 -0.000000
    outer loop
      vertex -8.652476 10.000000 21.370418
      vertex -10.000000 10.000000 16.000000
      vertex -14.000000 10.000000 23.751289
    endloop
  endfacet
  facet normal 0.000000 1.000000 -0.000000
    outer loop
      vertex -10.000000 10.000000 16.000000
      vertex -10.000000 10.000000 14.539662
      vertex -34.235166 10.000000 40.723091
    endloop
  endfacet
  facet normal -0.000000 1.000000 -0.000000
    outer loop
      vertex -34.235166 10.000000 40.723091
      vertex -10.000000 10.000000 14.539662
      vertex -10.815595 10.000000 14.713022
    endloop
  endfacet
  facet normal -0.000000 1.000000 -0.000000
    outer loop
      vertex -34.235166 10.000000 40.723091
      vertex -10.815595 10.000000 14.713022
      vertex -17.500000 10.000000 17.689111
    endloop
  endfacet
  facet normal 0.000000 1.000000 0.000000
    outer loop
      vertex -34.235166 10.000000 40.723091
      vertex -17.500000 10.000000 17.689111
      vertex -23.419571 10.000000 21.989931
    endloop
  endfacet
  facet normal 0.000000 1.000000 0.000000
    outer loop
      vertex -34.235166 10.000000 40.723091
      vertex -23.419571 10.000000 21.989931
      vertex -28.315595 10.000000 27.427516
    endloop
  endfacet
  facet normal 0.000000 1.000000 0.000000
    outer loop
      vertex -34.235166 10.000000 40.723091
      vertex -28.315595 10.000000 27.427516
      vertex -31.974091 10.000000 33.764217
    endloop
  endfacet
  facet normal 0.000000 1.000000 -0.000000
    outer loop
      vertex -14.000000 10.000000 72.248711
      vertex -3.658496 10.000000 82.808266
      vertex -3.500000 10.000000 82.808266
    endloop
  endfacet
  facet normal 0.000000 1.000000 -0.000000
    outer loop
      vertex -14.000000 10.000000 72.248711
      vertex -3.500000 10.000000 82.808266
      vertex -8.652476 10.000000 74.629582
    endloop
  endfacet
  facet normal 0.000000 1.000000 -0.000000
    outer loop
      vertex -10.000000 10.000000 81.460338
      vertex -10.000000 10.000000 100.000000
      vertex -3.658496 10.000000 82.808266
    endloop
  endfacet
  facet normal 0.000000 1.000000 -0.000000
    outer loop
      vertex -3.658496 10.000000 82.808266
      vertex -10.000000 10.000000 100.000000
      vertex -3.500000 10.000000 100.000000
    endloop
  endfacet
  facet normal 0.000000 1.000000 -0.000000
    outer loop
      vertex -3.658496 10.000000 82.808266
      vertex -3.500000 10.000000 100.000000
      vertex -3.500000 10.000000 82.808266
    endloop
  endfacet
  facet normal 0.000000 0.000000 1.000000
    outer loop
      vertex -10.000000 10.000000 100.000000
      vertex -10.000000 -10.000000 100.000000
      vertex -3.500000 -10.000000 100.000000
    endloop
  endfacet
  facet normal -0.000000 0.000000 1.000000
    outer loop
      vertex -3.500000 10.000000 100.000000
      vertex -10.000000 10.000000 100.000000
      vertex -3.500000 -10.000000 100.000000
    endloop
  endfacet
  facet normal 0.000000 -1.000000 0.000000
    outer loop
      vertex -10.000000 -10.000000 100.000000
      vertex -10.000000 -10.000000 80.000000
      vertex -3.500000 -10.000000 80.000000
    endloop
  endfacet
  facet normal 0.000000 -1.000000 0.000000
    outer loop
      vertex -3.500000 -10.000000 100.000000
      vertex -10.000000 -10.000000 100.000000
      vertex -3.500000 -10.000000 80.000000
    endloop
  endfacet
  facet normal 0.000000 0.000000 1.000000
    outer loop
      vertex 3.500000 10.000000 100.000000
      vertex 3.500000 -10.000000 100.000000
      vertex 10.000000 -10.000000 100.000000
    endloop
  endfacet
  facet normal -0.000000 0.000000 1.000000
    outer loop
      vertex 10.000000 10.000000 100.000000
      vertex 3.500000 10.000000 100.000000
      vertex 10.000000 -10.000000 100.000000
    endloop
  endfacet
  facet normal 0.000000 -1.000000 0.000000
    outer loop
      vertex 3.500000 -10.000000 100.000000
      vertex 3.500000 -10.000000 80.000000
      vertex 10.000000 -10.000000 80.000000
    endloop
  endfacet
  facet normal 0.000000 -1.000000 0.000000
    outer loop
      vertex 10.000000 -10.000000 100.000000
      vertex 3.500000 -10.000000 100.000000
      vertex 10.000000 -10.000000 80.000000
    endloop
  endfacet
  facet normal 0.000000 1.000000 -0.000000
    outer loop
      vertex 3.500000 10.000000 82.808266
      vertex 3.500000 10.000000 100.000000
      vertex 3.658496 10.000000 82.808266
    endloop
  endfacet
  facet normal 0.000000 1.000000 -0.000000
    outer loop
      vertex 3.658496 10.000000 82.808266
      vertex 3.500000 10.000000 100.000000
      vertex 10.000000 10.000000 100.000000
    endloop
  endfacet
  facet normal -0.000000 1.000000 -0.000000
    outer loop
      vertex 3.658496 10.000000 82.808266
      vertex 10.000000 10.000000 100.000000
      vertex 10.000000 10.000000 81.460338
    endloop
  endfacet
  facet normal 1.000000 0.000000 -0.000000
    outer loop
      vertex 10.000000 -10.000000 14.539662
      vertex 10.000000 -10.000000 -19.000000
      vertex 10.000000 10.000000 -19.000000
    endloop
  endfacet
  facet normal 1.000000 -0.000000 -0.000000
    outer loop
      vertex 10.000000 10.000000 14.539662
      vertex 10.000000 -10.000000 14.539662
      vertex 10.000000 10.000000 -19.000000
    endloop
  endfacet
  facet normal 0.000000 0.000000 0.000000
    outer loop
      vertex 10.000000 10.000000 16.000000
      vertex 10.000000 10.000000 14.539662
      vertex 10.000000 10.000000 -19.000000
    endloop
  endfacet
  facet normal 0.000000 -1.000000 0.000000
    outer loop
      vertex -10.000000 -10.000000 14.539662
      vertex -10.000000 -10.000000 -19.000000
      vertex 10.000000 -10.000000 -19.000000
    endloop
  endfacet
  facet normal 0.000000 -1.000000 0.000000
    outer loop
      vertex -3.658496 -10.000000 13.191734
      vertex -10.000000 -10.000000 14.539662
      vertex 10.000000 -10.000000 -19.000000
    endloop
  endfacet
  facet normal 0.000000 -1.000000 0.000000
    outer loop
      vertex 10.000000 -10.000000 14.539662
      vertex 3.658496 -10.000000 13.191734
      vertex 10.000000 -10.000000 -19.000000
    endloop
  endfacet
  facet normal 0.000000 -1.000000 0.000000
    outer loop
      vertex 3.658496 -10.000000 13.191734
      vertex -3.658496 -10.000000 13.191734
      vertex 10.000000 -10.000000 -19.000000
    endloop
  endfacet
  facet normal -1.000000 -0.000000 -0.000000
    outer loop
      vertex -10.000000 -10.000000 -19.000000
      vertex -10.000000 -10.000000 14.539662
      vertex -10.000000 10.000000 -19.000000
    endloop
  endfacet
  facet normal -1.000000 0.000000 0.000000
    outer loop
      vertex -10.000000 10.000000 -19.000000
      vertex -10.000000 -10.000000 14.539662
      vertex -10.000000 10.000000 14.539662
    endloop
  endfacet
  facet normal -0.000000 0.000000 0.000000
    outer loop
      vertex -10.000000 10.000000 -19.000000
      vertex -10.000000 10.000000 14.539662
      vertex -10.000000 10.000000 16.000000
    endloop
  endfacet
  facet normal 0.000000 1.000000 0.000000
    outer loop
      vertex -10.000000 10.000000 -19.000000
      vertex -10.000000 10.000000 16.000000
      vertex 10.000000 10.000000 -19.000000
    endloop
  endfacet
  facet normal 0.000000 1.000000 0.000000
    outer loop
      vertex 10.000000 10.000000 -19.000000
      vertex -10.000000 10.000000 16.000000
      vertex 10.000000 10.000000 16.000000
    endloop
  endfacet
  facet normal -0.000000 -0.000000 -1.000000
    outer loop
      vertex -10.000000 -10.000000 -19.000000
      vertex -10.000000 10.000000 -19.000000
      vertex 10.000000 -10.000000 -19.000000
    endloop
  endfacet
  facet normal 0.000000 0.000000 -1.000000
    outer loop
      vertex 10.000000 -10.000000 -19.000000
      vertex -10.000000 10.000000 -19.000000
      vertex 10.000000 10.000000 -19.000000
    endloop
  endfacet
endsolid OpenSCAD_Model
